<svg width="683" height="486" viewBox="0 0 683 486" fill="none" xmlns="http://www.w3.org/2000/svg">
<g clip-path="url(#clip0_104_68)">
<mask id="mask0_104_68" style="mask-type:luminance" maskUnits="userSpaceOnUse" x="0" y="-51" width="683" height="545">
<path d="M0 -51H683V494H0V-51Z" fill="white"/>
</mask>
<g mask="url(#mask0_104_68)">
<path d="M81.6644 413.667H61.8177C38.7217 413.667 19.999 394.944 19.999 371.849V289.587C19.999 278.496 24.4057 267.86 32.247 260.017L132.679 159.585C152.564 139.7 179.534 128.529 207.654 128.529H380.958C398.57 128.529 415.462 135.527 427.915 147.98L532.48 252.545L638.624 287.068C652.96 291.732 662.666 305.093 662.666 320.169V378.859C662.666 398.083 647.082 413.667 627.858 413.667H601" fill="#FE6663"/>
<path d="M81.6644 413.667H61.8177C38.7217 413.667 19.999 394.944 19.999 371.849V289.587C19.999 278.496 24.4057 267.86 32.247 260.017L132.679 159.585C152.564 139.7 179.534 128.529 207.654 128.529H380.958C398.57 128.529 415.462 135.527 427.915 147.98L532.48 252.545L638.624 287.068C652.96 291.732 662.666 305.093 662.666 320.169V378.859C662.666 398.083 647.082 413.667 627.858 413.667H601" stroke="#313A46" stroke-width="24" stroke-miterlimit="10" stroke-linecap="round" stroke-linejoin="round"/>
<path d="M201.664 413.667H481" stroke="#313A46" stroke-width="24" stroke-miterlimit="10" stroke-linecap="round" stroke-linejoin="round"/>
<path d="M163.653 138.093V177.413C163.653 218.906 197.293 252.546 238.787 252.546H532.48" stroke="#313A46" stroke-width="24" stroke-miterlimit="10" stroke-linecap="round" stroke-linejoin="round"/>
<path d="M341.333 252.547V128.53" stroke="#313A46" stroke-width="24" stroke-miterlimit="10" stroke-linecap="round" stroke-linejoin="round"/>
<path d="M380.759 319.214H416.351" stroke="#313A46" stroke-width="24" stroke-miterlimit="10" stroke-linecap="round" stroke-linejoin="round"/>
<path d="M201.664 413.667C201.664 446.804 174.801 473.667 141.664 473.667C108.527 473.667 81.6641 446.804 81.6641 413.667C81.6641 380.529 108.527 353.667 141.664 353.667C174.801 353.667 201.664 380.529 201.664 413.667Z" fill="#FFCDAC" stroke="#313A46" stroke-width="24" stroke-miterlimit="10" stroke-linecap="round" stroke-linejoin="round"/>
<path d="M601.001 413.667C601.001 446.804 574.14 473.667 541.001 473.667C507.864 473.667 481.001 446.804 481.001 413.667C481.001 380.529 507.864 353.667 541.001 353.667C574.14 353.667 601.001 380.529 601.001 413.667Z" fill="#FFCDAC" stroke="#313A46" stroke-width="24" stroke-miterlimit="10" stroke-linecap="round" stroke-linejoin="round"/>
</g>
<path d="M305.115 156.408C346.108 156.408 379.339 123.177 379.339 82.1842C379.339 41.1916 346.108 7.96057 305.115 7.96057C264.123 7.96057 230.892 41.1916 230.892 82.1842C230.892 123.177 264.123 156.408 305.115 156.408Z" fill="#A5DDFF"/>
<path d="M305.115 0.5C350.118 0.5 386.73 37.112 386.73 82.1152C386.73 127.188 350.118 163.73 305.115 163.73C260.112 163.73 223.5 127.118 223.5 82.1152C223.5 37.112 260.112 0.500039 305.115 0.5ZM305.115 15.3525C268.245 15.3526 238.283 45.3145 238.283 82.1846C238.283 119.055 268.245 149.017 305.115 149.017C341.985 149.017 371.947 119.055 371.947 82.1846C371.947 45.3144 341.985 15.3525 305.115 15.3525Z" fill="#313A46" stroke="#313A46"/>
<path d="M332.82 89.0759H277.48C273.689 89.0759 270.588 85.9747 270.588 82.1842C270.588 78.3938 273.689 75.2925 277.48 75.2925H332.82C336.61 75.2925 339.712 78.3938 339.712 82.1842C339.712 85.9747 336.61 89.0759 332.82 89.0759Z" fill="#313A46"/>
<path d="M305.115 116.712C301.325 116.712 298.224 113.61 298.224 109.82V54.4795C298.224 50.6891 301.325 47.5878 305.115 47.5878C308.906 47.5878 312.007 50.6891 312.007 54.4795V109.82C312.007 113.679 308.975 116.712 305.115 116.712Z" fill="#313A46"/>
</g>
<defs>
<clipPath id="clip0_104_68">
<rect width="683" height="486" fill="white"/>
</clipPath>
</defs>
</svg>
