<svg width="200" height="167" viewBox="0 0 200 167" fill="none" xmlns="http://www.w3.org/2000/svg">
<path d="M124.578 133.788H23.9596C14.9149 133.788 7.57617 126.449 7.57617 117.404V44.4994C7.57617 35.4547 14.9149 28.1159 23.9596 28.1159H40.8902L48.6474 15.2409C52.4134 9.06094 59.1405 5.26282 66.3827 5.26282H109.321C116.563 5.26282 123.29 9.06094 127.056 15.2731L134.781 28.1159H151.712C160.789 28.1159 168.095 35.4547 168.095 44.4994V94.3256L124.578 133.788Z" fill="#FE6663"/>
<path d="M87.852 116.471C107.673 116.471 123.741 100.403 123.741 80.5816C123.741 60.7606 107.673 44.6925 87.852 44.6925C68.031 44.6925 51.9629 60.7606 51.9629 80.5816C51.9629 100.403 68.031 116.471 87.852 116.471Z" fill="#FFCDAC"/>
<path d="M87.8521 94.6475C95.6205 94.6475 101.918 88.35 101.918 80.5816C101.918 72.8132 95.6205 66.5156 87.8521 66.5156C80.0837 66.5156 73.7861 72.8132 73.7861 80.5816C73.7861 88.35 80.0837 94.6475 87.8521 94.6475Z" fill="#A5DDFF"/>
<path d="M144.502 59.885C148.697 59.885 152.098 56.484 152.098 52.2888C152.098 48.0935 148.697 44.6925 144.502 44.6925C140.306 44.6925 136.905 48.0935 136.905 52.2888C136.905 56.484 140.306 59.885 144.502 59.885Z" fill="#8FC3AC"/>
<path d="M109.321 1.07623C117.707 1.07639 125.642 5.41811 130.215 12.4268L130.647 13.1133L130.649 13.1163L137.149 23.9297H151.68C163.047 23.9298 172.282 33.1642 172.282 44.5313V94.3575C172.282 96.6799 170.386 98.576 168.063 98.5762C165.741 98.5762 163.845 96.6801 163.845 94.3575V44.5313C163.845 37.8094 158.402 32.3673 151.68 32.3672H134.749C133.285 32.3672 131.89 31.6143 131.123 30.336V30.335L123.4 17.4962V17.4971C120.426 12.58 115.02 9.51387 109.289 9.51373H66.3828C60.6515 9.51373 55.2456 12.547 52.2393 17.462L52.2402 17.463L44.4824 30.338C43.7153 31.6151 42.3218 32.3671 40.8584 32.3672H23.9277C17.2057 32.3672 11.7628 37.8093 11.7627 44.5313V117.437C11.7629 124.159 17.2058 129.601 23.9277 129.601H124.578C126.9 129.601 128.797 131.497 128.797 133.819C128.797 136.148 126.926 138.006 124.578 138.006H23.96C12.5928 138.006 3.35759 128.772 3.35742 117.404V44.5313C3.35755 33.1641 12.5928 23.9297 23.96 23.9297H38.4902L45.0225 13.0831L45.0264 13.0782L45.4609 12.3917C50.0639 5.38567 57.9994 1.07623 66.3828 1.07623H109.321Z" fill="#313A46" stroke="#313A46" stroke-width="2"/>
<path d="M87.8516 40.9415C109.693 40.9415 127.46 58.7074 127.46 80.549C127.46 102.391 109.693 120.157 87.8516 120.157C66.01 120.157 48.2441 102.391 48.2441 80.549C48.2444 58.7075 66.0101 40.9417 87.8516 40.9415ZM87.8516 48.4113C70.1349 48.4115 55.6818 62.8329 55.6816 80.5812C55.6816 98.3299 70.1029 112.752 87.8516 112.752C105.569 112.752 120.022 98.3297 120.022 80.5812C120.022 62.8328 105.568 48.4113 87.8516 48.4113Z" fill="#313A46" stroke="#313A46"/>
<path d="M87.8521 97.8663C78.3246 97.8663 70.5674 90.1091 70.5674 80.5816C70.5674 71.0541 78.3246 63.2969 87.8521 63.2969C97.3796 63.2969 105.137 71.0541 105.137 80.5816C105.137 90.1091 97.3796 97.8663 87.8521 97.8663ZM87.8521 69.7344C81.8652 69.7344 77.0049 74.5947 77.0049 80.5816C77.0049 86.5684 81.8652 91.4288 87.8521 91.4288C93.8389 91.4288 98.6993 86.5684 98.6993 80.5816C98.6993 74.5947 93.8389 69.7344 87.8521 69.7344Z" fill="#313A46"/>
<path d="M144.502 63.1359C138.547 63.1359 133.687 58.2756 133.687 52.3209C133.687 46.3662 138.547 41.5059 144.502 41.5059C150.456 41.5059 155.317 46.3662 155.317 52.3209C155.317 58.2756 150.456 63.1359 144.502 63.1359ZM144.502 47.9112C142.087 47.9112 140.124 49.8747 140.124 52.2887C140.124 54.7028 142.087 56.6662 144.502 56.6662C146.916 56.6662 148.879 54.7028 148.879 52.2887C148.879 49.8747 146.916 47.9112 144.502 47.9112Z" fill="#313A46"/>
<path d="M111.38 22.9016H64.3223C62.552 22.9016 61.1035 21.4531 61.1035 19.6828C61.1035 17.9125 62.552 16.4641 64.3223 16.4641H111.38C113.151 16.4641 114.599 17.9125 114.599 19.6828C114.599 21.4531 113.151 22.9016 111.38 22.9016Z" fill="#313A46"/>
<path d="M158.696 162.37C177.842 162.37 193.362 146.849 193.362 127.704C193.362 108.559 177.842 93.0381 158.696 93.0381C139.551 93.0381 124.03 108.559 124.03 127.704C124.03 146.849 139.551 162.37 158.696 162.37Z" fill="#A5DDFF"/>
<path d="M158.696 89.2872C179.862 89.2872 197.081 106.506 197.081 127.672C197.081 148.87 179.862 166.057 158.696 166.057C137.53 166.057 120.312 148.838 120.312 127.672C120.312 106.506 137.53 89.2872 158.696 89.2872ZM158.696 96.7569C141.623 96.7569 127.749 110.631 127.749 127.704C127.749 144.777 141.623 158.651 158.696 158.651C175.769 158.651 189.643 144.777 189.644 127.704C189.644 110.631 175.769 96.7569 158.696 96.7569Z" fill="#313A46" stroke="#313A46"/>
<path d="M171.636 130.923H145.789C144.019 130.923 142.57 129.474 142.57 127.704C142.57 125.934 144.019 124.485 145.789 124.485H171.636C173.406 124.485 174.854 125.934 174.854 127.704C174.854 129.474 173.406 130.923 171.636 130.923Z" fill="#313A46"/>
<path d="M158.696 143.83C156.926 143.83 155.478 142.382 155.478 140.611V114.765C155.478 112.994 156.926 111.546 158.696 111.546C160.467 111.546 161.915 112.994 161.915 114.765V140.611C161.915 142.414 160.499 143.83 158.696 143.83Z" fill="#313A46"/>
</svg>
