<svg width="580" height="488" viewBox="0 0 580 488" fill="none" xmlns="http://www.w3.org/2000/svg">
<path fill-rule="evenodd" clip-rule="evenodd" d="M53.9611 175.064H45.5906L45.5909 215.443H86.6689V175.064H53.9611ZM53.9594 291.718H53.9629C55.6675 291.717 57.3217 290.833 58.2358 289.251L62.5094 281.85L95.1539 225.311L96.5783 222.844C97.5014 221.243 97.4255 219.332 96.5382 217.843C96.1212 217.144 95.5248 216.538 94.7689 216.101C92.4046 214.744 89.3934 215.556 88.0265 217.91L86.6689 220.262L83.7539 225.311L51.1164 281.85L49.6923 284.317C48.3252 286.671 49.1378 289.693 51.5018 291.05C52.2727 291.503 53.1264 291.718 53.9594 291.718ZM117.344 291.718H117.348C119.052 291.717 120.705 290.833 121.621 289.251L125.894 281.85L158.539 225.311L159.963 222.844C161.32 220.49 160.519 217.468 158.154 216.101C155.789 214.744 152.778 215.556 151.411 217.91L147.139 225.311L114.501 281.85L113.077 284.317C111.71 286.671 112.523 289.693 114.887 291.05C115.658 291.503 116.511 291.718 117.344 291.718ZM178.159 291.718H178.163C179.867 291.717 181.521 290.833 182.435 289.251L186.707 281.85L219.344 225.311L220.768 222.844C222.135 220.49 221.323 217.468 218.969 216.101C216.605 214.744 213.583 215.556 212.226 217.91L207.952 225.311L175.306 281.85L173.882 284.317C172.525 286.671 173.338 289.693 175.691 291.05C176.472 291.503 177.316 291.718 178.159 291.718ZM241.543 291.718H241.547C243.252 291.717 244.906 290.833 245.82 289.251L250.092 281.85L282.728 225.311L284.153 222.844C285.52 220.49 284.708 217.468 282.353 216.101C279.989 214.744 276.968 215.556 275.61 217.91L271.338 225.311L238.701 281.85L237.277 284.317C235.91 286.671 236.722 289.693 239.076 291.05C239.857 291.503 240.7 291.718 241.543 291.718ZM302.348 291.718H302.352C304.057 291.717 305.721 290.833 306.625 289.251L310.898 281.85L343.543 225.311L344.967 222.844C346.324 220.49 345.522 217.468 343.158 216.101C340.794 214.744 337.782 215.556 336.415 217.91L332.143 225.311L299.506 281.85L298.082 284.317C296.714 286.671 297.527 289.693 299.891 291.05C300.662 291.503 301.515 291.718 302.348 291.718ZM406.419 215.442L406.42 175.064H365.733C365.603 175.064 365.472 175.059 365.342 175.049C364.636 174.994 363.926 174.788 363.276 174.406C360.912 173.039 360.099 170.027 361.466 167.663L362.596 165.706L362.891 165.195L360.407 165.196L310.899 165.195L306.625 172.596C305.72 174.18 304.054 175.064 302.348 175.064C301.515 175.064 300.662 174.858 299.891 174.406C297.527 173.039 296.714 170.027 298.082 167.663L299.506 165.195H250.093L245.82 172.596C244.905 174.18 243.25 175.064 241.543 175.064C240.7 175.064 239.857 174.858 239.076 174.406C236.722 173.039 235.91 170.027 237.277 167.663L238.702 165.195H186.708L182.435 172.596C181.52 174.18 179.865 175.064 178.159 175.064C177.316 175.064 176.472 174.858 175.691 174.406C173.338 173.039 172.525 170.027 173.882 167.663L175.307 165.195H125.895L121.621 172.596C120.705 174.18 119.05 175.064 117.344 175.064C116.511 175.064 115.658 174.858 114.887 174.406C112.523 173.039 111.71 170.027 113.077 167.663L114.502 165.195L91.6026 165.196L62.51 165.195L58.2358 172.596C57.3211 174.18 55.6669 175.064 53.9611 175.064C53.1282 175.064 52.2727 174.858 51.5018 174.406C49.1378 173.039 48.3252 170.027 49.6923 167.663L51.1173 165.195L40.6566 165.196L9.86872 165.195V108.667H40.6586H83.7536L86.6689 103.618L88.0265 101.266C88.8994 99.7564 90.4425 98.8794 92.0594 98.7988H86.6689H45.5909H35.7225H4.93466C2.21044 98.7988 0.000591354 101.009 0.000591354 103.733L0 170.13C0 172.864 2.21073 175.064 4.93525 175.064H35.7228L35.7225 215.443H4.93466C2.21044 215.443 0.000591354 217.652 0.000591354 220.377L0 286.784C0 289.508 2.21073 291.718 4.93525 291.718H35.7228H45.5906H53.9594H53.9629H86.6689H96.5373H117.344H117.348H178.159H178.163H241.543H241.547H302.348H302.352H355.474H365.342H365.733C365.601 291.718 365.471 291.713 365.342 291.702C364.373 291.627 363.5 291.271 362.783 290.727C361.899 290.07 361.289 289.156 360.998 288.152C360.997 288.149 360.996 288.146 360.996 288.143C360.665 286.996 360.75 285.73 361.317 284.594C361.327 284.574 361.337 284.554 361.347 284.535C361.385 284.462 361.425 284.389 361.466 284.317L362.596 282.361L362.891 281.85H360.407H310.898L343.543 225.311H360.408H395.528L399.8 217.91C401.143 215.597 404.084 214.773 406.419 216.032C406.461 216.054 406.502 216.077 406.543 216.101C408.907 217.468 409.709 220.49 408.352 222.844L407.801 223.8L406.928 225.311H411.355H442.131V281.85H411.354H374.283L370.009 289.251C369.106 290.833 367.441 291.717 365.736 291.718H406.42H416.288H447.066C449.79 291.718 452.001 289.508 452.001 286.784L452 220.377C452 217.653 449.791 215.442 447.066 215.442H416.289H406.419ZM365.342 175.064V215.442H355.473L96.5382 215.443L96.5373 175.064H117.344H178.159H241.543H302.348H355.474H365.342ZM158.539 225.311H207.952L175.306 281.85H125.894L158.539 225.311ZM147.139 225.311L114.501 281.85H91.6026H62.5094L95.1539 225.311H147.139ZM83.7539 225.311L51.1164 281.85H40.6566H9.86872V225.311H40.6575H83.7539ZM219.344 225.311H271.338L238.701 281.85H186.707L219.344 225.311ZM282.728 225.311H332.143L299.506 281.85H250.092L282.728 225.311Z" fill="#FE6663"/>
<path fill-rule="evenodd" clip-rule="evenodd" d="M343.541 225.312L310.898 281.849H360.407H362.891L395.528 225.312H360.407H343.541Z" fill="#FFCDAC"/>
<path fill-rule="evenodd" clip-rule="evenodd" d="M94.4011 48.2836V29.0709C94.4011 18.4828 85.7861 9.86876 75.1978 9.86876L57.0646 9.86816C46.4665 9.86816 37.8516 18.4831 37.8516 29.0712L37.8522 48.2836L40.6579 48.2839H91.6039L94.4011 48.2836Z" fill="#FE6663"/>
<path fill-rule="evenodd" clip-rule="evenodd" d="M86.672 58.1523H45.5938L45.594 98.7989H86.672V58.1523Z" fill="#FE6663"/>
<path fill-rule="evenodd" clip-rule="evenodd" d="M357.602 29.0712L357.602 48.2836L360.408 48.2839H411.354L414.151 48.2836V29.0709C414.151 18.4828 405.536 9.86876 394.948 9.86876L376.814 9.86816C366.217 9.86816 357.602 18.4831 357.602 29.0712Z" fill="#FE6663"/>
<path fill-rule="evenodd" clip-rule="evenodd" d="M406.421 58.1523H365.344V98.7986H403.844C404.004 98.7906 404.165 98.7906 404.326 98.7986H406.421L406.421 58.1523Z" fill="#FE6663"/>
<path fill-rule="evenodd" clip-rule="evenodd" d="M428.416 413.583H343.384C343.366 413.583 343.348 413.583 343.33 413.583C343.312 413.583 343.294 413.583 343.276 413.583H330.43V440.516H441.327V413.583H428.416Z" fill="#A5DDFF"/>
<path fill-rule="evenodd" clip-rule="evenodd" d="M348.266 403.715L423.482 403.715L423.483 387.37C423.483 382.909 419.854 379.27 415.382 379.27L411.353 379.27H360.407H356.377C351.906 379.27 348.266 382.909 348.266 387.37L348.266 403.715Z" fill="#A5DDFF"/>
<path fill-rule="evenodd" clip-rule="evenodd" d="M121.577 440.519V413.586H108.667H23.6343C23.616 413.586 23.598 413.586 23.5797 413.586C23.5617 413.586 23.5437 413.586 23.5257 413.586H10.6797V440.519H121.577Z" fill="#A5DDFF"/>
<path fill-rule="evenodd" clip-rule="evenodd" d="M28.5162 403.715L103.732 403.715L103.733 387.37C103.733 382.909 100.104 379.27 95.6319 379.27L91.6026 379.27H40.6568H36.6266C32.1558 379.27 28.5156 382.909 28.5156 387.37L28.5162 403.715Z" fill="#A5DDFF"/>
<path fill-rule="evenodd" clip-rule="evenodd" d="M40.655 281.849H51.1149L83.7524 225.312H40.6559H9.86719V281.849H40.655Z" fill="#FFCDAC"/>
<path fill-rule="evenodd" clip-rule="evenodd" d="M53.9625 291.717H45.5938L45.594 369.401L86.672 369.401V291.717H53.966C53.9648 291.717 53.9636 291.717 53.9625 291.717Z" fill="#FE6663"/>
<path fill-rule="evenodd" clip-rule="evenodd" d="M365.342 291.716V369.401L406.419 369.401L406.42 291.716H365.736H365.733C365.603 291.716 365.472 291.711 365.342 291.701C364.636 291.644 363.926 291.431 363.276 291.049C360.912 289.692 360.099 286.67 361.466 284.316L362.596 282.359L362.891 281.849H360.407H310.898L306.625 289.25C305.721 290.832 304.056 291.716 302.352 291.716H355.474H365.342Z" fill="#FE6663"/>
<path fill-rule="evenodd" clip-rule="evenodd" d="M374.281 281.849H411.35H442.13V225.312H411.353H406.927L374.281 281.849Z" fill="#FFCDAC"/>
<path fill-rule="evenodd" clip-rule="evenodd" d="M299.506 281.849L332.143 225.312H282.729L250.094 281.849H299.506Z" fill="#FFCDAC"/>
<path fill-rule="evenodd" clip-rule="evenodd" d="M238.697 281.849L271.334 225.312H219.339L186.703 281.849H238.697Z" fill="#FFCDAC"/>
<path fill-rule="evenodd" clip-rule="evenodd" d="M175.303 281.849L207.948 225.312H158.535L125.891 281.849H175.303Z" fill="#FFCDAC"/>
<path fill-rule="evenodd" clip-rule="evenodd" d="M114.5 281.849L147.137 225.312H95.1524L62.5078 281.849H91.6011H114.5Z" fill="#FFCDAC"/>
<path fill-rule="evenodd" clip-rule="evenodd" d="M310.898 165.195L360.407 165.196L362.891 165.195L395.528 108.667H360.407H343.541L310.898 165.195Z" fill="#FFCDAC"/>
<path fill-rule="evenodd" clip-rule="evenodd" d="M114.5 165.195L147.136 108.667H95.1518L62.5078 165.195L91.6005 165.196L114.5 165.195Z" fill="#FFCDAC"/>
<path fill-rule="evenodd" clip-rule="evenodd" d="M51.1158 165.195L83.7521 108.667H40.6571H9.86719V165.195L40.655 165.196L51.1158 165.195Z" fill="#FFCDAC"/>
<path fill-rule="evenodd" clip-rule="evenodd" d="M158.535 108.667L125.891 165.195H175.303L207.948 108.667H158.535Z" fill="#FFCDAC"/>
<path fill-rule="evenodd" clip-rule="evenodd" d="M219.339 108.667L186.703 165.195H238.697L271.334 108.667H219.339Z" fill="#FFCDAC"/>
<path fill-rule="evenodd" clip-rule="evenodd" d="M406.927 108.667L374.281 165.195L411.35 165.196L442.13 165.195V108.667H411.353H406.927Z" fill="#FFCDAC"/>
<path fill-rule="evenodd" clip-rule="evenodd" d="M299.509 165.195L332.143 108.667H282.728L250.094 165.195H299.509Z" fill="#FFCDAC"/>
<path fill-rule="evenodd" clip-rule="evenodd" d="M86.672 215.443V175.063H54.059C54.0274 175.064 53.9958 175.065 53.9642 175.063C53.9253 175.065 53.8863 175.064 53.8473 175.063H45.5938L45.594 215.443H86.672Z" fill="#FE6663"/>
<path fill-rule="evenodd" clip-rule="evenodd" d="M10.6821 440.518H121.579V413.585H10.6821V440.518ZM126.514 450.387H5.74715C3.02382 450.387 0.8125 448.177 0.8125 445.453L0.812793 408.651C0.812793 405.917 3.02264 403.717 5.74656 403.717L126.514 403.717C129.237 403.717 131.447 405.917 131.447 408.651L131.447 445.453C131.447 448.177 129.237 450.387 126.514 450.387Z" fill="black"/>
<path fill-rule="evenodd" clip-rule="evenodd" d="M108.669 413.583C105.944 413.583 103.734 411.373 103.734 408.649L103.735 387.37C103.735 382.908 100.105 379.269 95.6334 379.269L36.6281 379.269C32.1573 379.269 28.5172 382.908 28.5172 387.37L28.5177 408.648C28.5177 411.373 26.3173 413.583 23.5828 413.583C20.8595 413.583 18.6484 411.373 18.6484 408.649L18.6496 387.37C18.6496 377.46 26.718 369.401 36.6278 369.401L95.6334 369.4C105.543 369.4 113.602 377.46 113.602 387.37L113.603 408.648C113.603 411.373 111.392 413.583 108.669 413.583Z" fill="black"/>
<path fill-rule="evenodd" clip-rule="evenodd" d="M40.6615 108.667C37.937 108.667 35.7266 106.457 35.7266 103.733L35.7269 53.2182C35.7269 50.4837 37.9367 48.2842 40.6606 48.2842C43.3848 48.2839 45.5947 50.484 45.5947 53.2185L45.595 103.733C45.595 106.457 43.3848 108.667 40.6615 108.667ZM91.6073 108.667C88.8839 108.667 86.6729 106.457 86.6729 103.733V53.2182C86.6729 50.4837 88.8828 48.2842 91.6067 48.2842C94.3321 48.2839 96.5414 50.484 96.5414 53.2185L96.5422 103.733C96.5422 106.457 94.3309 108.667 91.6073 108.667ZM40.6615 225.311C37.937 225.311 35.7266 223.101 35.7266 220.377L35.7269 170.13C35.7269 167.405 37.9367 165.196 40.6606 165.196C43.3848 165.195 45.5947 167.406 45.5947 170.13L45.595 220.377C45.595 223.101 43.3848 225.311 40.6615 225.311ZM91.6073 225.311C88.8839 225.311 86.6729 223.101 86.6729 220.377V170.13C86.6729 167.405 88.8828 165.196 91.6067 165.196C94.3321 165.195 96.5414 167.406 96.5414 170.13L96.5422 220.377C96.5422 223.101 94.3309 225.311 91.6073 225.311ZM40.6615 379.271C37.937 379.271 35.7266 377.061 35.7266 374.337L35.7269 286.784C35.7269 284.06 37.9367 281.85 40.6606 281.85C43.3848 281.85 45.5947 284.06 45.5947 286.784L45.595 374.336C45.595 377.06 43.3848 379.271 40.6615 379.271ZM91.6073 379.271C88.8839 379.271 86.6729 377.061 86.6729 374.337V286.784C86.6729 284.06 88.8828 281.85 91.6067 281.85C94.3321 281.85 96.5414 284.06 96.5414 286.784L96.5422 374.336C96.5422 377.06 94.3309 379.271 91.6073 379.271Z" fill="black"/>
<path fill-rule="evenodd" clip-rule="evenodd" d="M360.412 108.667C357.687 108.667 355.477 106.457 355.477 103.733L355.477 53.2182C355.477 50.4837 357.687 48.2842 360.411 48.2842C363.135 48.2839 365.345 50.484 365.345 53.2185V103.733C365.345 106.457 363.135 108.667 360.412 108.667ZM411.358 108.667C408.633 108.667 406.423 106.457 406.423 103.733L406.423 53.2182C406.423 50.4837 408.633 48.2842 411.357 48.2842C414.082 48.2839 416.292 50.484 416.292 53.2185L416.293 103.733C416.293 106.457 414.081 108.667 411.358 108.667ZM360.412 225.311C357.687 225.311 355.477 223.101 355.477 220.377L355.477 170.13C355.477 167.405 357.687 165.196 360.411 165.196C363.135 165.195 365.345 167.406 365.345 170.13V220.377C365.345 223.101 363.135 225.311 360.412 225.311ZM411.358 225.311C408.633 225.311 406.423 223.101 406.423 220.377L406.423 170.13C406.423 167.405 408.633 165.196 411.357 165.196C414.082 165.195 416.292 167.406 416.292 170.13L416.293 220.377C416.293 223.101 414.081 225.311 411.358 225.311ZM360.412 379.271C357.687 379.271 355.477 377.061 355.477 374.337L355.477 286.784C355.477 284.06 357.687 281.85 360.411 281.85C363.135 281.85 365.345 284.06 365.345 286.784V374.336C365.345 377.06 363.135 379.271 360.412 379.271ZM411.358 379.271C408.633 379.271 406.423 377.061 406.423 374.337L406.423 286.784C406.423 284.06 408.633 281.85 411.357 281.85C414.082 281.85 416.292 284.06 416.292 286.784L416.293 374.336C416.293 377.06 414.081 379.271 411.358 379.271Z" fill="black"/>
<path fill-rule="evenodd" clip-rule="evenodd" d="M330.432 440.518H441.33V413.585H330.432V440.518ZM446.264 450.387H325.498C322.773 450.387 320.562 448.177 320.562 445.453L320.563 408.651C320.563 405.917 322.773 403.717 325.497 403.717L446.264 403.717C448.988 403.717 451.198 405.917 451.198 408.651V445.453C451.198 448.177 448.987 450.387 446.264 450.387Z" fill="black"/>
<path fill-rule="evenodd" clip-rule="evenodd" d="M428.418 413.583C425.695 413.583 423.484 411.373 423.484 408.649L423.484 387.37C423.484 382.908 419.855 379.269 415.383 379.269L356.378 379.269C351.907 379.269 348.267 382.908 348.267 387.37L348.268 408.648C348.268 411.373 346.057 413.583 343.333 413.583C340.61 413.583 338.398 411.373 338.398 408.649L338.399 387.37C338.399 377.46 346.468 369.401 356.378 369.401L415.383 369.4C425.293 369.4 433.352 377.46 433.352 387.37L433.353 408.648C433.353 411.373 431.142 413.583 428.418 413.583Z" fill="black"/>
<path fill-rule="evenodd" clip-rule="evenodd" d="M9.86931 165.194H442.133V108.666H9.86931V165.194ZM447.067 175.063H4.93525C2.21073 175.063 0 172.863 0 170.129L0.000588538 103.732C0.000588538 101.008 2.21044 98.7981 4.93465 98.7981L447.066 98.7979C449.791 98.7979 452 101.008 452 103.732L452.001 170.129C452.001 172.863 449.791 175.064 447.067 175.063Z" fill="black"/>
<path fill-rule="evenodd" clip-rule="evenodd" d="M53.9622 175.063C53.1292 175.063 52.2756 174.858 51.5046 174.406C49.1406 173.038 48.328 170.026 49.6952 167.662L88.0294 101.265C89.3962 98.9009 92.4075 98.0889 94.7717 99.456C97.1366 100.823 97.938 103.835 96.5812 106.2L58.2387 172.596C57.3239 174.179 55.668 175.064 53.9622 175.063ZM117.347 175.063C116.514 175.063 115.66 174.858 114.889 174.406C112.526 173.038 111.713 170.026 113.08 167.662L151.414 101.265C152.781 98.9009 155.792 98.0889 158.157 99.456C160.521 100.823 161.323 103.835 159.966 106.2L121.624 172.596C120.708 174.179 119.053 175.064 117.347 175.063Z" fill="black"/>
<path fill-rule="evenodd" clip-rule="evenodd" d="M178.161 175.063C177.318 175.063 176.474 174.858 175.693 174.406C173.34 173.038 172.527 170.026 173.884 167.662L212.227 101.265C213.585 98.9009 216.606 98.0889 218.97 99.456C221.325 100.823 222.136 103.835 220.769 106.2L182.437 172.596C181.522 174.179 179.866 175.064 178.161 175.063ZM241.545 175.063C240.702 175.063 239.859 174.858 239.078 174.406C236.723 173.038 235.911 170.026 237.279 167.662L275.612 101.265C276.97 98.9009 279.991 98.0889 282.355 99.456C284.71 100.823 285.521 103.835 284.154 106.2L245.821 172.596C244.907 174.179 243.251 175.064 241.545 175.063Z" fill="black"/>
<path fill-rule="evenodd" clip-rule="evenodd" d="M302.352 175.063C301.52 175.063 300.666 174.858 299.895 174.406C297.531 173.038 296.719 170.026 298.086 167.662L336.42 101.265C337.786 98.9009 340.798 98.0889 343.163 99.456C345.527 100.823 346.329 103.835 344.972 106.2L306.629 172.596C305.725 174.179 304.059 175.064 302.352 175.063ZM365.737 175.063C364.905 175.063 364.051 174.858 363.28 174.406C360.916 173.038 360.103 170.026 361.471 167.662L399.805 101.265C401.171 98.9009 404.193 98.0889 406.547 99.456C408.912 100.823 409.714 103.835 408.357 106.2L370.014 172.596C369.11 174.179 367.443 175.064 365.737 175.063Z" fill="black"/>
<path fill-rule="evenodd" clip-rule="evenodd" d="M9.86931 281.849H442.133V225.31H9.86931V281.849ZM447.067 291.717H4.93525C2.21073 291.717 0 289.507 0 286.783L0.000588538 220.376C0.000588538 217.652 2.21044 215.442 4.93465 215.442L447.066 215.441C449.791 215.441 452 217.652 452 220.376L452.001 286.783C452.001 289.507 449.791 291.717 447.067 291.717Z" fill="black"/>
<path fill-rule="evenodd" clip-rule="evenodd" d="M53.9622 291.717C53.1292 291.717 52.2756 291.502 51.5046 291.049C49.1406 289.692 48.328 286.67 49.6952 284.316L88.0294 217.909C89.3962 215.555 92.4075 214.743 94.7717 216.1C97.1366 217.467 97.938 220.489 96.5812 222.843L58.2387 289.25C57.3239 290.833 55.668 291.717 53.9622 291.717ZM117.347 291.717C116.514 291.717 115.66 291.502 114.889 291.049C112.526 289.692 111.713 286.67 113.08 284.316L151.414 217.909C152.781 215.555 155.792 214.743 158.157 216.1C160.521 217.467 161.323 220.489 159.966 222.843L121.624 289.25C120.708 290.833 119.053 291.717 117.347 291.717Z" fill="black"/>
<path fill-rule="evenodd" clip-rule="evenodd" d="M178.161 291.717C177.318 291.717 176.474 291.502 175.693 291.049C173.34 289.692 172.527 286.67 173.884 284.316L212.227 217.909C213.585 215.555 216.606 214.743 218.97 216.1C221.325 217.467 222.136 220.489 220.769 222.843L182.437 289.25C181.522 290.833 179.866 291.717 178.161 291.717ZM241.545 291.717C240.702 291.717 239.859 291.502 239.078 291.049C236.723 289.692 235.911 286.67 237.279 284.316L275.612 217.909C276.97 215.555 279.991 214.743 282.355 216.1C284.71 217.467 285.521 220.489 284.154 222.843L245.821 289.25C244.907 290.833 243.251 291.717 241.545 291.717Z" fill="black"/>
<path fill-rule="evenodd" clip-rule="evenodd" d="M302.352 291.717C301.52 291.717 300.666 291.502 299.895 291.049C297.531 289.692 296.719 286.67 298.086 284.316L336.42 217.909C337.786 215.555 340.798 214.743 343.163 216.1C345.527 217.467 346.329 220.489 344.972 222.843L306.629 289.25C305.725 290.833 304.059 291.717 302.352 291.717ZM365.737 291.717C364.905 291.717 364.051 291.502 363.28 291.049C360.916 289.692 360.103 286.67 361.471 284.316L399.805 217.909C401.171 215.555 404.193 214.743 406.547 216.1C408.912 217.467 409.714 220.489 408.357 222.843L370.014 289.25C369.11 290.833 367.443 291.717 365.737 291.717Z" fill="black"/>
<path fill-rule="evenodd" clip-rule="evenodd" d="M37.8534 48.2836H94.4023V29.0708C94.4023 18.4828 85.7873 9.86872 75.199 9.86872L57.0658 9.86813C46.4678 9.86813 37.8528 18.4831 37.8528 29.0711L37.8534 48.2836ZM99.3358 58.152H32.9184C30.1951 58.152 27.9844 55.9424 27.9844 53.2182L27.9853 29.0708C27.9853 13.045 41.0291 0 57.0655 0H75.199C91.2358 0 104.27 13.045 104.27 29.0711L104.27 53.2179C104.27 55.9418 102.06 58.1523 99.3358 58.152Z" fill="black"/>
<path fill-rule="evenodd" clip-rule="evenodd" d="M357.604 48.2836H414.153V29.0708C414.153 18.4828 405.537 9.86872 394.949 9.86872L376.816 9.86813C366.218 9.86813 357.603 18.4831 357.603 29.0711L357.604 48.2836ZM419.086 58.152H352.669C349.945 58.152 347.734 55.9424 347.734 53.2182L347.735 29.0708C347.735 13.045 360.78 0 376.816 0H394.949C410.976 0 424.02 13.045 424.02 29.0711L424.021 53.2179C424.021 55.9418 421.81 58.1523 419.086 58.152Z" fill="black"/>
<path d="M476.694 477.532C527.918 477.532 569.442 436.006 569.442 384.784C569.442 333.562 527.918 292.036 476.694 292.036C425.471 292.036 383.945 333.562 383.945 384.784C383.945 436.006 425.471 477.532 476.694 477.532Z" fill="#A5DDFF"/>
<path d="M476.696 282C533.325 282 579.394 328.069 579.394 384.698C579.394 441.413 533.325 487.396 476.696 487.396C420.066 487.396 374 441.327 374 384.698C374 328.069 420.066 282 476.696 282ZM476.696 301.985C431.017 301.985 393.898 339.105 393.898 384.783C393.898 430.462 431.017 467.582 476.696 467.582C522.374 467.582 559.494 430.462 559.496 384.783C559.496 339.105 522.374 301.985 476.696 301.985Z" fill="#313A46" stroke="#313A46"/>
<path d="M511.312 393.398H442.159C437.424 393.398 433.547 389.521 433.547 384.785C433.547 380.05 437.424 376.173 442.159 376.173H511.312C516.048 376.173 519.922 380.05 519.922 384.785C519.922 389.521 516.048 393.398 511.312 393.398Z" fill="#313A46"/>
<path d="M476.688 427.928C471.952 427.928 468.078 424.054 468.078 419.316V350.165C468.078 345.427 471.952 341.553 476.688 341.553C481.426 341.553 485.3 345.427 485.3 350.165V419.316C485.3 424.139 481.512 427.928 476.688 427.928Z" fill="#313A46"/>
</svg>
