<svg width="2943" height="1187" viewBox="0 0 2943 1187" fill="none" xmlns="http://www.w3.org/2000/svg">
<path d="M2936.6 689.5C2936.6 699.4 2936.4 709.8 2935.9 720.6C2935.8 722.6 2935.7 724.7 2935.6 726.8C2935.2 735 2934.6 743.4 2933.9 752C2933.7 754 2933.6 755.9 2933.4 757.9C2933.2 760.3 2933 762.7 2932.7 765.1C2931.7 775.3 2930.5 785.7 2929.2 796.2C2928.9 798.3 2928.6 800.5 2928.3 802.6C2926.9 812.8 2925.4 823.2 2923.6 833.7C2923.2 835.8 2922.9 838 2922.5 840.2C2920.7 850.5 2918.8 860.9 2916.7 871.3C2916.3 873.5 2915.8 875.7 2915.3 877.9C2913.6 886.1 2911.7 894.3 2909.8 902.6C2908.8 906.9 2907.7 911.2 2906.6 915.5C2904 925.9 2901.2 936.3 2898.2 946.6C2897.6 948.8 2896.9 950.9 2896.3 953C2893.2 963.5 2889.9 973.9 2886.3 984.1C2885.6 986.3 2884.8 988.4 2884 990.6C2880.9 999.3 2877.7 1007.9 2874.3 1016.3C2872.5 1020.9 2870.6 1025.5 2868.6 1030C2864 1040.7 2859.2 1051.1 2854.1 1061.1C2853 1063.3 2851.9 1065.4 2850.8 1067.6C2845 1078.5 2839 1088.9 2832.6 1098.7C2831.3 1100.8 2829.9 1102.8 2828.5 1104.8C2820.8 1116.1 2812.6 1126.5 2804 1135.8C2801.2 1138.8 2798.4 1141.7 2795.5 1144.5C2781.7 1157.9 2766.8 1168.4 2750.7 1175.5C2749.5 1176 2748.4 1176.5 2747.2 1177C2746.9 1177.1 2746.6 1177.2 2746.3 1177.4C2744 1178.3 2741.6 1179.2 2739.3 1179.9L2614.9 1180.1L2263.1 1180.6L1826.5 1178L1655.8 1177L1318.1 1175L298 1168.9C298 1168.9 108.8 1056.9 108.8 862.5C108.8 859.8 108.8 857.1 108.9 854.4C111.7 750.5 139.5 552.5 378.9 449.7C396.1 442.3 414.4 435.4 433.8 429.1C451.2 423.4 469.5 418.2 488.8 413.5C513.3 407.5 539.4 402.3 567.2 398.1C569.9 397.7 572.7 397.3 575.4 396.9C588.7 395 601.4 392.7 613.6 390C935.6 320.8 896.9 21.9 1321.6 1.00001C1360.5 -0.899986 1403.3 -0.499986 1450.6 2.60001C1523.2 7.40001 1583.1 25.1 1636.5 46C1693.1 68 1742.5 93.4 1792.5 110.7L1795.9 111.9C1844.9 128.5 1894.6 137 1952 126.5C1954.8 126 1957.6 125.4 1960.4 124.8C2024 111.3 2083.5 101.3 2139 94.6C2140.2 94.5 2141.3 94.3 2142.4 94.2C2275.8 78.4 2386.5 81.4 2478.5 99.1C2479.7 99.3 2480.8 99.5 2481.9 99.8C2521.6 107.6 2557.9 118.1 2590.9 131.1C2600.1 134.7 2609.1 138.5 2617.8 142.5C2618.1 142.6 2618.3 142.7 2618.6 142.9C2620.1 143.6 2621.5 144.2 2623 144.9C2624.4 145.5 2625.8 146.2 2627.2 146.9C2627.3 147 2627.5 147 2627.6 147.1C2638.4 152.3 2648.8 157.7 2658.8 163.4C2670.7 170.2 2682.1 177.3 2693 184.8C2696.1 186.9 2699.2 189.1 2702.2 191.3C2715.9 201.2 2728.8 211.6 2741 222.6C2743.4 224.8 2745.8 226.9 2748.1 229.1C2758.8 239.1 2768.9 249.5 2778.4 260.3C2780.9 263.1 2783.2 265.8 2785.6 268.6C2794.1 278.7 2802.2 289.1 2809.9 299.8C2811.5 302 2813 304.1 2814.5 306.3C2821.6 316.5 2828.2 326.9 2834.5 337.5C2835.9 339.8 2837.2 342.1 2838.6 344.4C2844.3 354.4 2849.8 364.5 2854.9 374.8C2856.8 378.6 2858.7 382.5 2860.5 386.4C2863.7 393.1 2866.8 399.9 2869.7 406.8C2872.2 412.5 2874.6 418.3 2876.9 424.1C2881 434.4 2884.9 444.8 2888.6 455.3C2889.4 457.5 2890.1 459.6 2890.8 461.8C2893.3 469.1 2895.7 476.4 2897.9 483.7C2898.9 486.8 2899.8 489.9 2900.7 493C2901.3 495.2 2902 497.4 2902.6 499.6C2903.1 501.5 2903.7 503.4 2904.2 505.3C2906.4 512.9 2908.4 520.6 2910.4 528.3C2910.6 529.1 2910.8 530 2911 530.8C2911.5 533 2912.1 535.1 2912.6 537.3C2915.2 547.7 2917.6 558 2919.9 568.5C2920.4 570.6 2920.8 572.8 2921.3 574.9C2923.5 585.3 2925.6 595.7 2927.5 606.1C2927.9 608.3 2928.3 610.4 2928.7 612.6C2929.9 619 2931 625.4 2932.1 631.8C2932.5 634.4 2933 637.2 2933.3 640.1C2933.4 641.3 2933.6 642.5 2933.7 643.8C2934 646.5 2934.3 649.3 2934.5 652.1C2935.3 661.6 2935.8 672 2935.9 683.2C2936.6 685.2 2936.6 687.4 2936.6 689.5Z" fill="#EBF3FA"/>
<path d="M2933.8 639.9V752.1C2933.6 754.1 2933.5 756 2933.3 758C2933.1 760.4 2932.9 762.8 2932.6 765.2C2931.6 775.4 2930.4 785.8 2929.1 796.3C2928.8 798.4 2928.5 800.6 2928.2 802.7C2926.8 812.9 2925.3 823.3 2923.5 833.8C2923.1 835.9 2922.8 838.1 2922.4 840.3C2920.6 850.6 2918.7 861 2916.6 871.4C2916.2 873.6 2915.7 875.8 2915.2 878C2913.5 886.2 2911.6 894.4 2909.7 902.7C2908.7 907 2907.6 911.3 2906.5 915.6C2903.9 926 2901.1 936.4 2898.1 946.7C2897.5 948.9 2896.8 951 2896.2 953.1C2893.1 963.6 2889.8 974 2886.2 984.2C2885.5 986.4 2884.7 988.5 2883.9 990.7C2880.8 999.4 2877.6 1008 2874.2 1016.4C2872.4 1021 2870.5 1025.6 2868.5 1030.1C2863.9 1040.8 2859.1 1051.2 2854 1061.2C2852.9 1063.4 2851.8 1065.5 2850.7 1067.7C2844.9 1078.6 2838.9 1089 2832.5 1098.8C2831.2 1100.9 2829.8 1102.9 2828.4 1104.9C2820.7 1116.2 2812.5 1126.6 2803.9 1135.9C2801.1 1138.9 2798.3 1141.8 2795.4 1144.6C2781.6 1158 2766.7 1168.5 2750.6 1175.6C2749.4 1176.1 2748.3 1176.6 2747.1 1177.1C2746.8 1177.2 2746.5 1177.3 2746.2 1177.5L1826.3 1178.1L1655.6 1177.1L1317.9 1175.1L298 1168.9C298 1168.9 108.8 1056.9 108.8 862.5C108.8 859.8 108.8 857.1 108.9 854.4C111.7 750.5 139.5 552.5 378.9 449.7V543.2H433.8V429.2C451.2 423.5 469.5 418.3 488.8 413.6C513.3 407.6 539.4 402.4 567.2 398.2C569.9 397.8 572.7 397.4 575.4 397C588.7 395.1 601.4 392.8 613.6 390.1V529H674.3V496.5L745.9 496.8V444.2H760.3V433.8H762.2V444.2H817.5H828.6V433.8H830.5V444.2H843.8V548.8H929.1V587.3H976.5V565H1020.5V476.3H1042.4V434.9H1045.7V476.3H1098.2V398.7H1103.4V476.3H1138.2V475.2H1138.1V465.4H1138.2V456.1H1138.1V440.6H1138.2V430.7H1138.1V415.2H1138.2V405.3H1138.1V389.8H1138.2V379H1138.1V363.5H1138.2V349.9H1138.1V334.4H1138.2V324.1H1148.5V312.5H1150.2V324.1H1226.9V312.5H1228.6V324.1H1242.6V405.2L1252.5 405.3V405.2H1252.4V389.7H1252.5V379H1252.4V363.5H1252.5V352.8H1252.4V337.3H1252.5H1345.5H1361.5C1362.3 337.7 1363.2 338.1 1364 338.5V427H1432V543.3H1486.9V328.3H1498.9V313.3H1501V328.3H1544.4V313.3H1546.6V328.3H1608V313.3H1610.2V328.3H1648.9V313.3H1651V328.3H1666.9V529H1727.6V496.5L1799.2 496.8V444.2H1813.6V433.8H1815.5V444.2H1870.8H1881.8V433.8H1883.7V444.2H1897V548.8H1982.3V587.3H2029.7V565H2073.7V476.3H2095.6V434.9H2098.9V476.3H2151.4V398.7H2156.6V476.3H2191.4V475.2H2191.3V465.4H2191.4V456.1H2191.3V440.6H2191.4V430.7H2191.3V415.2H2191.4V405.3H2191.3V389.8H2191.4V379H2191.3V363.5H2191.4V349.9H2191.3V334.4H2191.4V324.1H2201.8V312.5H2203.5V324.1H2280.2V312.5H2281.9V324.1H2295.9V405.2L2305.6 405.3H2305.7V405.2H2305.6V389.7H2305.7V379H2305.6V363.5H2305.7V352.8H2305.6V337.3H2305.7H2398.7H2414.7C2415.5 337.7 2416.4 338.1 2417.2 338.5V427H2531.3V543.3H2586.2V328.3H2598.1V313.3H2600.3V328.3H2643.7V313.3H2645.8V328.3H2707.2V313.3H2709.3V328.3H2766V529H2826.7V496.5L2898.3 496.8V483.6C2899.3 486.7 2900.2 489.8 2901.1 492.9C2901.7 495.1 2902.4 497.3 2903 499.5C2903.5 501.4 2904.1 503.3 2904.6 505.2C2906.8 512.8 2908.8 520.5 2910.8 528.2C2911 529 2911.2 529.9 2911.4 530.7C2911.9 532.9 2912.5 535 2913 537.2C2915.6 547.6 2918 557.9 2920.3 568.4C2920.8 570.5 2921.2 572.7 2921.7 574.8C2923.9 585.2 2926 595.6 2927.9 606C2928.3 608.2 2928.7 610.3 2929.1 612.5C2930.3 618.9 2931.4 625.3 2932.5 631.7C2933.1 634.2 2933.5 637 2933.8 639.9Z" fill="#313A46"/>
<path d="M1666.8 328.4H1529.5V362.4H1666.8V328.4Z" fill="#E2EEFD"/>
<path d="M1666.8 380.7H1529.5V414.7H1666.8V380.7Z" fill="#E2EEFD"/>
<path d="M1666.8 434.2H1529.5V468.2H1666.8V434.2Z" fill="#E2EEFD"/>
<path d="M1666.8 488.5H1529.5V522.5H1666.8V488.5Z" fill="#E2EEFD"/>
<path d="M1666.8 540.9H1529.5V574.9H1666.8V540.9Z" fill="#E2EEFD"/>
<path d="M2255.4 324.1H2191.4V344.8H2255.4V324.1Z" fill="#E2EEFD"/>
<path d="M2255.4 355.9H2191.4V376.6H2255.4V355.9Z" fill="#E2EEFD"/>
<path d="M2255.4 388.4H2191.4V409.1H2255.4V388.4Z" fill="#E2EEFD"/>
<path d="M2255.4 421.4H2191.4V442.1H2255.4V421.4Z" fill="#E2EEFD"/>
<path d="M2255.4 453.2H2191.4V473.9H2255.4V453.2Z" fill="#E2EEFD"/>
<path d="M2255.4 488.2H2191.4V508.9H2255.4V488.2Z" fill="#E2EEFD"/>
<path d="M2255.4 520H2191.4V540.7H2255.4V520Z" fill="#E2EEFD"/>
<path d="M2255.4 552.5H2191.4V573.2H2255.4V552.5Z" fill="#E2EEFD"/>
<path d="M2255.4 585.4H2191.4V606.1H2255.4V585.4Z" fill="#E2EEFD"/>
<path d="M2255.4 617.3H2191.4V638H2255.4V617.3Z" fill="#E2EEFD"/>
<path d="M2373.9 337.7H2305.3V358.4H2373.9V337.7Z" fill="#E2EEFD"/>
<path d="M2373.9 369.5H2305.3V390.2H2373.9V369.5Z" fill="#E2EEFD"/>
<path d="M2373.9 401.9H2305.3V422.6H2373.9V401.9Z" fill="#E2EEFD"/>
<path d="M2373.9 434.9H2305.3V455.6H2373.9V434.9Z" fill="#E2EEFD"/>
<path d="M2373.9 466.7H2305.3V487.4H2373.9V466.7Z" fill="#E2EEFD"/>
<path d="M2373.9 499.9H2305.3V520.6H2373.9V499.9Z" fill="#E2EEFD"/>
<path d="M2373.9 531.7H2305.3V552.4H2373.9V531.7Z" fill="#E2EEFD"/>
<path d="M2373.9 564.2H2305.3V584.9H2373.9V564.2Z" fill="#E2EEFD"/>
<path d="M2373.9 597.1H2305.3V617.8H2373.9V597.1Z" fill="#E2EEFD"/>
<path d="M2373.9 629H2305.3V649.7H2373.9V629Z" fill="#E2EEFD"/>
<path d="M2373.9 665.5H2305.3V686.2H2373.9V665.5Z" fill="#E2EEFD"/>
<path d="M2373.9 697.3H2305.3V718H2373.9V697.3Z" fill="#E2EEFD"/>
<path d="M2373.9 729.7H2305.3V750.4H2373.9V729.7Z" fill="#E2EEFD"/>
<path d="M2373.9 762.7H2305.3V783.4H2373.9V762.7Z" fill="#E2EEFD"/>
<path d="M2373.9 794.5H2305.3V815.2H2373.9V794.5Z" fill="#E2EEFD"/>
<path d="M2766 328.4H2641V362.4H2766V328.4Z" fill="#E2EEFD"/>
<path d="M2766 380.7H2641V414.7H2766V380.7Z" fill="#E2EEFD"/>
<path d="M2766 434.2H2641V468.2H2766V434.2Z" fill="#E2EEFD"/>
<path d="M2766 488.5H2641V522.5H2766V488.5Z" fill="#E2EEFD"/>
<path d="M2766 540.9H2641V574.9H2766V540.9Z" fill="#E2EEFD"/>
<path d="M1206.1 324.1H1137.5V344.8H1206.1V324.1Z" fill="#E2EEFD"/>
<path d="M1206.1 355.9H1137.5V376.6H1206.1V355.9Z" fill="#E2EEFD"/>
<path d="M1206.1 388.4H1137.5V409.1H1206.1V388.4Z" fill="#E2EEFD"/>
<path d="M1206.1 421.4H1137.5V442.1H1206.1V421.4Z" fill="#E2EEFD"/>
<path d="M1206.1 453.2H1137.5V473.9H1206.1V453.2Z" fill="#E2EEFD"/>
<path d="M1206.1 488.2H1137.5V508.9H1206.1V488.2Z" fill="#E2EEFD"/>
<path d="M1206.1 520H1137.5V540.7H1206.1V520Z" fill="#E2EEFD"/>
<path d="M1206.1 552.5H1137.5V573.2H1206.1V552.5Z" fill="#E2EEFD"/>
<path d="M1206.1 585.4H1137.5V606.1H1206.1V585.4Z" fill="#E2EEFD"/>
<path d="M1206.1 617.3H1137.5V638H1206.1V617.3Z" fill="#E2EEFD"/>
<path d="M1331.7 337.7H1253.7V358.4H1331.7V337.7Z" fill="#E2EEFD"/>
<path d="M1331.7 369.5H1253.7V390.2H1331.7V369.5Z" fill="#E2EEFD"/>
<path d="M1331.7 401.9H1253.7V422.6H1331.7V401.9Z" fill="#E2EEFD"/>
<path d="M1331.7 434.9H1253.7V455.6H1331.7V434.9Z" fill="#E2EEFD"/>
<path d="M1331.7 466.7H1253.7V487.4H1331.7V466.7Z" fill="#E2EEFD"/>
<path d="M1331.7 499.9H1253.7V520.6H1331.7V499.9Z" fill="#E2EEFD"/>
<path d="M1331.7 531.7H1253.7V552.4H1331.7V531.7Z" fill="#E2EEFD"/>
<path d="M1331.7 564.2H1253.7V584.9H1331.7V564.2Z" fill="#E2EEFD"/>
<path d="M1331.7 597.1H1253.7V617.8H1331.7V597.1Z" fill="#E2EEFD"/>
<path d="M1331.7 629H1253.7V649.7H1331.7V629Z" fill="#E2EEFD"/>
<path d="M1331.7 665.5H1253.7V686.2H1331.7V665.5Z" fill="#E2EEFD"/>
<path d="M1331.7 697.3H1253.7V718H1331.7V697.3Z" fill="#E2EEFD"/>
<path d="M1331.7 729.7H1253.7V750.4H1331.7V729.7Z" fill="#E2EEFD"/>
<path d="M1331.7 762.7H1253.7V783.4H1331.7V762.7Z" fill="#E2EEFD"/>
<path d="M1331.7 794.5H1253.7V815.2H1331.7V794.5Z" fill="#E2EEFD"/>
<path d="M1169.2 208.3C1169.2 208.3 1191.8 171 1245.7 175.2C1245.7 175.2 1324 113.1 1407.6 166.9C1407.6 166.9 1496.4 153.6 1562.2 178.4C1606.1 195 1620.5 212.4 1620.5 212.4L1169.2 208.3Z" fill="#F8FCFF"/>
<path d="M1652 313.2C1652 313.2 1666.6 287.9 1701.6 290.7C1701.6 290.7 1752.4 248.5 1806.5 285.1C1806.5 285.1 1864 276 1906.7 293C1935.1 304.3 1944.5 316.1 1944.5 316.1L1652 313.2Z" fill="#F8FCFF"/>
<path d="M2064.7 201.3C2064.7 201.3 2078 176.6 2109.9 179.4C2109.9 179.4 2156.1 138.3 2205.4 173.9C2205.4 173.9 2257.8 165.1 2296.6 181.5C2322.5 192.5 2331 204 2331 204L2064.7 201.3Z" fill="#F8FCFF"/>
<path d="M2942.6 1181.2V1182.7C2942.6 1184.7 2941 1186.3 2939.2 1186.3L721.7 1178.9L41.5 1176.6L3.4 1176.5C1.5 1176.5 0 1174.9 0 1172.9V1171.4C0 1169.4 1.6 1167.8 3.4 1167.8L41.5 1167.9L2783 1177.1L2939.2 1177.6C2941.1 1177.6 2942.6 1179.3 2942.6 1181.2Z" fill="#2E3552"/>
</svg>
