<svg width="234" height="234" viewBox="0 0 234 234" fill="none" xmlns="http://www.w3.org/2000/svg">
<path d="M89.5781 53.4453C107.374 53.4453 123.371 62.7386 132.266 77.6875L134.868 82.0605L139.194 79.3818C144.839 75.8871 151.345 74.0117 158.133 74.0117C176.147 74.0117 191.138 87.2728 193.837 104.55L194.4 108.154L198.005 108.718C215.361 111.429 229 126.486 229 144.422C229 164.271 212.403 180.555 192.41 180.555H41.5898C21.5972 180.555 5 164.271 5 144.422C5 126.64 18.4202 111.678 35.5713 108.789L39.8984 108.06L39.7383 103.675C39.7354 103.595 39.7344 103.493 39.7344 103.289C39.7344 75.8101 62.0992 53.4453 89.5781 53.4453Z" fill="#FE6663" stroke="#313A46" stroke-width="10"/>
<path d="M116.39 94.433C117.108 94.3266 117.837 94.3266 118.555 94.433H119.152L119.539 94.5628L120.062 94.7386L120.274 94.8099L120.47 94.9173L121.236 95.3372L121.311 95.3783L121.382 95.4242C121.684 95.6178 121.971 95.8355 122.238 96.0755L122.499 96.3226L122.505 96.3285L149.133 123.149L149.165 123.181C151.907 125.961 151.889 130.444 149.126 133.202L149.101 133.227C146.322 135.921 141.916 135.921 139.137 133.227L139.119 133.21L139.103 133.193L124.556 118.528V168.877C124.555 172.78 121.406 175.969 117.489 175.969C113.573 175.969 110.424 172.779 110.424 168.875V118.522L95.8037 133.197L95.7842 133.216L95.7637 133.236C92.9917 135.896 88.6254 135.896 85.8535 133.236L85.832 133.215L85.8027 133.186C85.7963 133.179 85.7841 133.167 85.7695 133.152L85.7705 133.151C83.0387 130.37 83.0581 125.895 85.8184 123.141H85.8193L112.541 96.1556L112.562 96.1351L112.582 96.1156C113.014 95.699 113.5 95.3424 114.025 95.055L114.037 95.0482L114.049 95.0423L114.642 94.7269L115.192 94.433H116.39Z" fill="white" stroke="#313A46" stroke-width="5"/>
</svg>
