<svg width="60" height="60" viewBox="0 0 60 60" fill="none" xmlns="http://www.w3.org/2000/svg">
<g clip-path="url(#clip0_48_112)">
<path d="M56 5H49V3.5C49 1.57 47.43 0 45.5 0C43.57 0 42 1.57 42 3.5V5H18V3.5C18 1.57 16.43 0 14.5 0C12.57 0 11 1.57 11 3.5V5H4C1.794 5 0 6.794 0 9V56C0 58.206 1.794 60 4 60H56C58.206 60 60 58.206 60 56V9C60 6.794 58.206 5 56 5ZM44 3.5C44 2.673 44.673 2 45.5 2C46.327 2 47 2.673 47 3.5V8.5C47 9.327 46.327 10 45.5 10C44.673 10 44 9.327 44 8.5V3.5ZM13 3.5C13 2.673 13.673 2 14.5 2C15.327 2 16 2.673 16 3.5V8.5C16 9.327 15.327 10 14.5 10C13.673 10 13 9.327 13 8.5V3.5ZM4 7H11V8.5C11 10.43 12.57 12 14.5 12C16.43 12 18 10.43 18 8.5V7H42V8.5C42 10.43 43.57 12 45.5 12C47.43 12 49 10.43 49 8.5V7H56C57.103 7 58 7.897 58 9V14H2V9C2 7.897 2.897 7 4 7ZM56 58H4C2.897 58 2 57.103 2 56V16H58V56C58 57.103 57.103 58 56 58Z" fill="white"/>
<path d="M47 25H38.677L37.431 21.893C36.984 20.761 35.867 20 34.651 20H25.35C24.134 20 23.017 20.761 22.573 21.888L21.324 25H13.001C10.795 25 9.00098 26.794 9.00098 29V49C9.00098 51.206 10.795 53 13.001 53H47.001C49.207 53 51.001 51.206 51.001 49V29C51.001 26.794 49.206 25 47 25ZM13 27H22C22.408 27 22.776 26.751 22.928 26.372L24.431 22.627C24.578 22.252 24.948 22 25.35 22H34.651C35.053 22 35.422 22.252 35.573 22.632L37.073 26.372C37.224 26.751 37.593 27 38.001 27H47.001C48.104 27 49.001 27.897 49.001 29V32H37.13C35.314 30.151 32.791 29 30.001 29C27.211 29 24.688 30.151 22.872 32H11.001V29C11.001 27.897 11.898 27 13.001 27H13ZM22 39C22 34.589 25.589 31 30 31C34.411 31 38 34.589 38 39C38 43.411 34.411 47 30 47C25.589 47 22 43.411 22 39ZM21.353 44H11V34H21.353C20.498 35.473 20 37.178 20 39C20 40.822 20.498 42.527 21.353 44ZM38.647 34H49V44H38.647C39.502 42.527 40 40.822 40 39C40 37.178 39.502 35.473 38.647 34ZM47 51H13C11.897 51 11 50.103 11 49V46H22.871C24.687 47.849 27.21 49 30 49C32.79 49 35.313 47.849 37.129 46H49V49C49 50.103 48.103 51 47 51Z" fill="white"/>
<path d="M26 39C26 36.794 27.794 35 30 35C30.553 35 31 34.553 31 34C31 33.447 30.553 33 30 33C26.691 33 24 35.691 24 39C24 39.553 24.447 40 25 40C25.553 40 26 39.553 26 39Z" fill="white"/>
</g>
<defs>
<clipPath id="clip0_48_112">
<rect width="60" height="60" fill="white"/>
</clipPath>
</defs>
</svg>
