<svg width="497" height="497" viewBox="0 0 497 497" fill="none" xmlns="http://www.w3.org/2000/svg">
<g clip-path="url(#clip0_15_43)">
<path d="M496.158 248.085C496.158 111.063 385.089 0.00292969 248.083 0.00292969C111.07 0.00292969 0 111.063 0 248.085C0 385.086 111.07 496.155 248.083 496.155C385.089 496.155 496.158 385.086 496.158 248.085Z" fill="#DF5645"/>
<g clip-path="url(#clip1_15_43)">
<path d="M265.966 248.001L352.274 161.693C357.242 156.725 357.242 148.695 352.274 143.728C347.306 138.76 339.277 138.76 334.309 143.728L248 230.036L161.691 143.728C156.723 138.76 148.694 138.76 143.726 143.728C138.758 148.695 138.758 156.725 143.726 161.693L230.034 248.001L143.726 334.31C138.758 339.278 138.758 347.308 143.726 352.275C146.203 354.753 149.456 355.998 152.709 355.998C155.961 355.998 159.214 354.753 161.691 352.275L248 265.967L334.308 352.275C336.786 354.753 340.038 355.998 343.291 355.998C346.544 355.998 349.796 354.753 352.274 352.275C357.242 347.308 357.242 339.278 352.274 334.31L265.966 248.001Z" fill="white"/>
</g>
</g>
<defs>
<clipPath id="clip0_15_43">
<rect width="496.158" height="496.158" fill="white"/>
</clipPath>
<clipPath id="clip1_15_43">
<rect width="216" height="216" fill="white" transform="translate(140 140)"/>
</clipPath>
</defs>
</svg>
