<svg width="26" height="26" viewBox="0 0 26 26" fill="none" xmlns="http://www.w3.org/2000/svg">
<g clip-path="url(#clip0_101_5199)">
<path d="M7.51807 12.021H9.69953C9.90991 12.021 10.0804 11.8505 10.0804 11.6401C10.0804 11.4298 9.90991 11.2593 9.69953 11.2593H7.51807C7.30768 11.2593 7.13721 11.4298 7.13721 11.6401C7.13721 11.8505 7.30768 12.021 7.51807 12.021Z" fill="#94A8BF"/>
<path d="M7.51807 13.8669H16.3779C16.5883 13.8669 16.7587 13.6964 16.7587 13.4861C16.7587 13.2757 16.5883 13.1052 16.3779 13.1052H7.51807C7.30768 13.1052 7.13721 13.2757 7.13721 13.4861C7.13721 13.6964 7.30768 13.8669 7.51807 13.8669Z" fill="#94A8BF"/>
<path d="M16.3776 14.9509H14.0156C13.8052 14.9509 13.6348 15.1215 13.6348 15.3318C13.6348 15.5421 13.8052 15.7126 14.0156 15.7126H16.3776C16.5879 15.7126 16.7584 15.5421 16.7584 15.3318C16.7584 15.1215 16.5879 14.9509 16.3776 14.9509Z" fill="#94A8BF"/>
<path d="M24.9274 2.55703L19.9977 0.0932725C19.7489 -0.0310908 19.4519 -0.0310908 19.2031 0.0932725L14.2733 2.55703C14.2732 2.55703 14.2732 2.55703 14.2732 2.55703C13.9702 2.70851 13.7819 3.01309 13.7819 3.35196V4.06071H8.42989C8.2195 4.06071 8.04903 4.23123 8.04903 4.44157C8.04903 4.65191 8.2195 4.82243 8.42989 4.82243H13.7819V5.9807C13.7819 6.53625 13.8236 7.06437 13.9069 7.56771H7.51796C7.30757 7.56771 7.1371 7.73824 7.1371 7.94857C7.1371 8.15891 7.30757 8.32943 7.51796 8.32943H14.0699C14.1697 8.70521 14.296 9.06612 14.4485 9.41351H7.51796C7.30757 9.41351 7.1371 9.58403 7.1371 9.79437C7.1371 10.0047 7.30757 10.1752 7.51796 10.1752H14.8379C14.9716 10.4026 15.1181 10.6237 15.2778 10.839C15.3829 10.9808 15.494 11.1207 15.6116 11.2593H11.2229C11.0125 11.2593 10.842 11.4298 10.842 11.6402C10.842 11.8505 11.0125 12.021 11.2229 12.021H16.3382C17.0562 12.6968 17.9638 13.3621 19.1356 14.0792C19.2789 14.1669 19.4396 14.2107 19.6003 14.2107C19.7611 14.2107 19.9217 14.1669 20.0651 14.0792C20.104 14.0554 20.1422 14.0317 20.1806 14.008V23.257H10.2158V22.5469C10.2158 22.3365 10.0453 22.166 9.8349 22.166C9.62452 22.166 9.45404 22.3365 9.45404 22.5469V25.1113C9.45404 25.1813 9.39712 25.2383 9.32709 25.2383H1.47021C1.40019 25.2383 1.34326 25.1813 1.34326 25.1113V19.6256C1.34326 19.5556 1.40019 19.4986 1.47021 19.4986H9.32709C9.39712 19.4986 9.45404 19.5556 9.45404 19.6256V20.7695C9.45404 20.9799 9.62452 21.1504 9.8349 21.1504C10.0453 21.1504 10.2158 20.9799 10.2158 20.7695V19.6256C10.2158 19.549 10.205 19.4751 10.1867 19.4042H16.3778C16.5881 19.4042 16.7586 19.2337 16.7586 19.0234C16.7586 18.813 16.5881 18.6425 16.3778 18.6425H8.99193V17.5584H16.3777C16.5881 17.5584 16.7586 17.3879 16.7586 17.1776C16.7586 16.9672 16.5881 16.7967 16.3777 16.7967H8.97599C8.9408 16.4151 8.84599 16.0506 8.70045 15.7126H12.6447C12.8551 15.7126 13.0256 15.5421 13.0256 15.3318C13.0256 15.1214 12.8551 14.9509 12.6447 14.9509H8.25383C7.59667 14.0915 6.56154 13.5358 5.39865 13.5358C4.79055 13.5358 4.21758 13.6881 3.715 13.9559V4.82243H6.65254C6.86293 4.82243 7.0334 4.65191 7.0334 4.44157C7.0334 4.23123 6.86293 4.06071 6.65254 4.06071H3.58805C3.23801 4.06071 2.95328 4.34544 2.95328 4.69548V14.4995C2.24778 15.156 1.80537 16.0917 1.80537 17.1291V18.7368H1.47021C0.980227 18.7368 0.581543 19.1355 0.581543 19.6255V25.1113C0.581543 25.6013 0.980227 26 1.47021 26H9.32709C9.81708 26 10.2158 25.6013 10.2158 25.1113V24.0187H20.3076C20.6576 24.0187 20.9423 23.7339 20.9423 23.3839V13.5187C22.298 12.6115 23.2366 11.7647 23.9229 10.839C24.9295 9.48166 25.4188 7.89246 25.4188 5.98075V3.35196C25.4189 3.01314 25.2306 2.70856 24.9274 2.55703ZM6.70683 18.7369H4.09053V17.1291C4.09053 16.4078 4.67741 15.8209 5.3987 15.8209C6.12 15.8209 6.70688 16.4078 6.70688 17.1291V18.7369H6.70683ZM2.56709 17.1291C2.56709 15.5677 3.83738 14.2975 5.3987 14.2975C6.96002 14.2975 8.23027 15.5677 8.23027 17.1291V18.7369H7.4686V17.1291C7.4686 15.9878 6.54006 15.0592 5.3987 15.0592C4.25734 15.0592 3.32881 15.9878 3.32881 17.1291V18.7369H2.56709V17.1291ZM24.6571 5.98075C24.6571 9.64086 22.748 11.5444 19.6676 13.4294C19.6266 13.4545 19.5739 13.4544 19.5332 13.4294C16.4528 11.5444 14.5436 9.64086 14.5436 5.98075V3.35196C14.5436 3.30351 14.5705 3.25999 14.6138 3.23836L19.5436 0.774554C19.5791 0.75678 19.6215 0.75678 19.6571 0.774554L24.5869 3.23831C24.6302 3.25994 24.6571 3.30346 24.6571 3.35191V5.98075H24.6571Z" fill="#94A8BF"/>
<path d="M19.5777 2.64722C17.4525 2.64722 15.7236 4.37617 15.7236 6.50131C15.7236 8.62645 17.4526 10.3554 19.5777 10.3554C21.2036 10.3554 22.6627 9.32658 23.2085 7.79527C23.2791 7.59717 23.1757 7.37927 22.9776 7.30863C22.7795 7.23799 22.5616 7.34138 22.491 7.53948C22.053 8.76813 20.8822 9.59363 19.5777 9.59363C17.8726 9.59363 16.4854 8.20639 16.4854 6.50126C16.4854 4.79613 17.8726 3.40888 19.5777 3.40888C21.079 3.40888 22.3591 4.48042 22.6213 5.95668C22.6581 6.16377 22.8559 6.30205 23.0629 6.26508C23.27 6.22831 23.4081 6.03057 23.3713 5.82348C23.0444 3.98302 21.449 2.64722 19.5777 2.64722Z" fill="#94A8BF"/>
<path d="M20.8984 5.45917L19.3978 6.95981L18.5252 6.08718C18.3765 5.93845 18.1353 5.93839 17.9866 6.08718C17.8378 6.23592 17.8378 6.47708 17.9866 6.62577L19.1284 7.76769C19.1999 7.83914 19.2967 7.87925 19.3978 7.87925C19.4988 7.87925 19.5956 7.83914 19.6671 7.76769L21.437 5.99776C21.5858 5.84902 21.5858 5.60786 21.437 5.45917C21.2883 5.31048 21.0472 5.31048 20.8984 5.45917Z" fill="#94A8BF"/>
</g>
<defs>
<clipPath id="clip0_101_5199">
<rect width="26" height="26" fill="white"/>
</clipPath>
</defs>
</svg>
