<svg width="198" height="184" viewBox="0 0 198 184" fill="none" xmlns="http://www.w3.org/2000/svg">
<g clip-path="url(#clip0_97_2)">
<path d="M99.0029 174C144.29 174 181.003 137.287 181.003 92C181.003 46.7127 144.29 10 99.0029 10C53.7156 10 17.0029 46.7127 17.0029 92C17.0029 137.287 53.7156 174 99.0029 174Z" fill="#FE6663"/>
<path d="M125 81.5V88C125 102.359 113.359 114 99 114C84.641 114 73 102.359 73 88V81.5C73 67.141 84.641 55.5 99 55.5C113.359 55.5 125 67.141 125 81.5Z" fill="#FFCDAC"/>
<path d="M99 114C73.62 114 51.936 129.767 43.168 152.033C57.808 165.655 77.425 174 99 174C120.575 174 140.192 165.655 154.832 152.033C146.064 129.767 124.38 114 99 114Z" fill="#A5DDFF"/>
<path d="M191 92C191 41.271 149.729 0 99 0C48.271 0 7 41.271 7 92C7 118.317 18.11 142.085 35.882 158.869C36.215 159.225 36.569 159.562 36.956 159.869C53.327 174.848 75.114 183.999 98.999 183.999C122.884 183.999 144.671 174.847 161.042 159.869C161.429 159.562 161.783 159.224 162.116 158.869C179.89 142.085 191 118.317 191 92ZM99 20C138.701 20 171 52.299 171 92C171 107.967 165.769 122.73 156.94 134.683C149.565 123.745 139.344 115.238 127.477 109.986C132.187 103.899 135 96.274 135 88V81.5C135 61.649 118.851 45.5 99 45.5C79.149 45.5 63 61.649 63 81.5V88C63 96.274 65.813 103.899 70.523 109.986C58.656 115.238 48.435 123.745 41.06 134.683C32.231 122.73 27 107.967 27 92C27 52.299 59.299 20 99 20ZM83 88V81.5C83 72.678 90.178 65.5 99 65.5C107.822 65.5 115 72.678 115 81.5V88C115 96.822 107.822 104 99 104C90.178 104 83 96.822 83 88ZM55.509 149.332C64.298 133.747 80.699 124 99 124C117.301 124 133.702 133.747 142.491 149.332C130.398 158.528 115.329 164 99 164C82.671 164 67.601 158.528 55.509 149.332Z" fill="black"/>
</g>
<defs>
<clipPath id="clip0_97_2">
<rect width="198" height="184" fill="white"/>
</clipPath>
</defs>
</svg>
