<svg width="378" height="378" viewBox="0 0 378 378" fill="none" xmlns="http://www.w3.org/2000/svg">
<g clip-path="url(#clip0_450_2101)">
<path d="M137.802 173.64H35.4076C25.8332 173.64 16.8271 169.902 10.0534 163.108C3.4025 156.514 -0.4375 147.277 -0.4375 137.8V35.4001C-0.4375 25.8257 3.28986 16.8196 10.0534 10.0407C16.7964 3.2823 25.8025 -0.439941 35.4076 -0.439941H137.802C147.402 -0.439941 156.409 3.2823 163.157 10.0407C169.92 16.8247 173.642 25.8257 173.642 35.4001V137.8C173.642 147.272 169.808 156.509 163.121 163.144C156.373 169.902 147.372 173.64 137.802 173.64ZM35.4076 20.0401C31.2809 20.0401 27.4255 21.6273 24.5532 24.5098C21.6399 27.418 20.0425 31.2887 20.0425 35.4001V137.8C20.0425 141.85 21.6707 145.787 24.5123 148.603C27.4614 151.557 31.3167 153.16 35.4076 153.16H137.802C141.893 153.16 145.749 151.557 148.662 148.639C151.534 145.792 153.162 141.85 153.162 137.8V35.4001C153.162 31.2887 151.565 27.418 148.657 24.5098C145.785 21.6273 141.929 20.0401 137.802 20.0401H35.4076Z" fill="#94A8BF"/>
<path d="M137.802 378.44H35.4076C25.8332 378.44 16.8271 374.702 10.0534 367.908C3.4025 361.313 -0.4375 352.077 -0.4375 342.6V240.2C-0.4375 230.625 3.28986 221.619 10.0534 214.841C16.7964 208.082 25.8025 204.36 35.4076 204.36H137.802C147.402 204.36 156.409 208.082 163.157 214.841C169.92 221.625 173.642 230.625 173.642 240.2V342.6C173.642 352.072 169.808 361.308 163.121 367.944C156.373 374.702 147.372 378.44 137.802 378.44ZM35.4076 224.84C31.2809 224.84 27.4255 226.427 24.5532 229.31C21.6399 232.218 20.0425 236.089 20.0425 240.2V342.6C20.0425 346.65 21.6707 350.587 24.5123 353.403C27.4614 356.357 31.3167 357.96 35.4076 357.96H137.802C141.893 357.96 145.749 356.357 148.662 353.439C151.534 350.592 153.162 346.65 153.162 342.6V240.2C153.162 236.089 151.565 232.218 148.657 229.31C145.785 226.427 141.929 224.84 137.802 224.84H35.4076Z" fill="#94A8BF"/>
<path d="M342.599 173.64H240.204C230.63 173.64 221.624 169.902 214.85 163.108C208.199 156.514 204.359 147.277 204.359 137.8V35.4001C204.359 25.8257 208.087 16.8196 214.85 10.0407C221.593 3.2823 230.599 -0.439941 240.204 -0.439941H342.599C352.199 -0.439941 361.205 3.2823 367.954 10.0407C374.717 16.8247 378.439 25.8257 378.439 35.4001V137.8C378.439 147.272 374.604 156.509 367.918 163.144C361.17 169.902 352.169 173.64 342.599 173.64ZM240.204 20.0401C236.078 20.0401 232.222 21.6273 229.35 24.5098C226.437 27.418 224.839 31.2887 224.839 35.4001V137.8C224.839 141.85 226.468 145.787 229.309 148.603C232.258 151.557 236.114 153.16 240.204 153.16H342.599C346.69 153.16 350.546 151.557 353.459 148.639C356.331 145.792 357.959 141.85 357.959 137.8V35.4001C357.959 31.2887 356.362 27.418 353.454 24.5098C350.581 21.6273 346.726 20.0401 342.599 20.0401H240.204Z" fill="#94A8BF"/>
<path d="M342.599 378.44H240.204C230.63 378.44 221.624 374.702 214.85 367.908C208.199 361.313 204.359 352.077 204.359 342.6V240.2C204.359 230.625 208.087 221.619 214.85 214.841C221.593 208.082 230.599 204.36 240.204 204.36H342.599C352.199 204.36 361.205 208.082 367.954 214.841C374.717 221.625 378.439 230.625 378.439 240.2V342.6C378.439 352.072 374.604 361.308 367.918 367.944C361.17 374.702 352.169 378.44 342.599 378.44ZM240.204 224.84C236.078 224.84 232.222 226.427 229.35 229.31C226.437 232.218 224.839 236.089 224.839 240.2V342.6C224.839 346.65 226.468 350.587 229.309 353.403C232.258 356.357 236.114 357.96 240.204 357.96H342.599C346.69 357.96 350.546 356.357 353.459 353.439C356.331 350.592 357.959 346.65 357.959 342.6V240.2C357.959 236.089 356.362 232.218 353.454 229.31C350.581 226.427 346.726 224.84 342.599 224.84H240.204Z" fill="#94A8BF"/>
</g>
<defs>
<clipPath id="clip0_450_2101">
<rect width="378" height="378" fill="white"/>
</clipPath>
</defs>
</svg>
