<svg width="24" height="22" viewBox="0 0 24 22" fill="none" xmlns="http://www.w3.org/2000/svg">
<path d="M24 19V15C24 14.7348 23.8946 14.4804 23.7071 14.2929C23.5196 14.1054 23.2652 14 23 14C22.7348 14 22.4804 14.1054 22.2929 14.2929C22.1054 14.4804 22 14.7348 22 15V19C22 19.2652 21.8946 19.5196 21.7071 19.7071C21.5196 19.8946 21.2652 20 21 20H3C2.73478 20 2.48043 19.8946 2.29289 19.7071C2.10536 19.5196 2 19.2652 2 19V15C2 14.7348 1.89464 14.4804 1.70711 14.2929C1.51957 14.1054 1.26522 14 1 14C0.734784 14 0.48043 14.1054 0.292893 14.2929C0.105357 14.4804 0 14.7348 0 15V19C0 19.7956 0.316071 20.5587 0.87868 21.1213C1.44129 21.6839 2.20435 22 3 22H21C21.7956 22 22.5587 21.6839 23.1213 21.1213C23.6839 20.5587 24 19.7956 24 19ZM17.62 13.78L12.62 17.78C12.4435 17.9195 12.225 17.9954 12 17.9954C11.775 17.9954 11.5565 17.9195 11.38 17.78L6.38 13.78C6.19782 13.608 6.08682 13.3739 6.06897 13.1241C6.05112 12.8742 6.12771 12.6267 6.2836 12.4306C6.43949 12.2344 6.66332 12.104 6.91079 12.065C7.15827 12.026 7.41136 12.0813 7.62 12.22L11 14.92V1C11 0.734784 11.1054 0.48043 11.2929 0.292893C11.4804 0.105357 11.7348 0 12 0C12.2652 0 12.5196 0.105357 12.7071 0.292893C12.8946 0.48043 13 0.734784 13 1V14.92L16.38 12.22C16.4807 12.1249 16.6 12.0518 16.7305 12.0053C16.8609 11.9588 16.9996 11.9399 17.1377 11.9497C17.2758 11.9596 17.4104 11.9981 17.5329 12.0626C17.6553 12.1272 17.7631 12.2166 17.8492 12.325C17.9354 12.4334 17.9981 12.5585 18.0334 12.6924C18.0687 12.8263 18.0758 12.966 18.0542 13.1028C18.0327 13.2396 17.983 13.3704 17.9082 13.487C17.8335 13.6036 17.7353 13.7033 17.62 13.78Z" fill="white"/>
</svg>
