<svg width="200" height="167" viewBox="0 0 200 167" fill="none" xmlns="http://www.w3.org/2000/svg">
<path d="M124.578 133.788H23.9596C14.9149 133.788 7.57617 126.449 7.57617 117.404V44.4994C7.57617 35.4547 14.9149 28.1159 23.9596 28.1159H40.8902L48.6474 15.2409C52.4134 9.06094 59.1405 5.26282 66.3827 5.26282H109.321C116.563 5.26282 123.29 9.06094 127.056 15.2731L134.781 28.1159H151.712C160.789 28.1159 168.095 35.4547 168.095 44.4994V94.3256L124.578 133.788Z" fill="#FE6663"/>
<path d="M87.852 116.471C107.673 116.471 123.741 100.403 123.741 80.5816C123.741 60.7606 107.673 44.6925 87.852 44.6925C68.031 44.6925 51.9629 60.7606 51.9629 80.5816C51.9629 100.403 68.031 116.471 87.852 116.471Z" fill="#FFCDAC"/>
<path d="M87.8521 94.6475C95.6205 94.6475 101.918 88.35 101.918 80.5816C101.918 72.8132 95.6205 66.5156 87.8521 66.5156C80.0837 66.5156 73.7861 72.8132 73.7861 80.5816C73.7861 88.35 80.0837 94.6475 87.8521 94.6475Z" fill="#A5DDFF"/>
<path d="M144.502 59.885C148.697 59.885 152.098 56.484 152.098 52.2888C152.098 48.0935 148.697 44.6925 144.502 44.6925C140.306 44.6925 136.905 48.0935 136.905 52.2888C136.905 56.484 140.306 59.885 144.502 59.885Z" fill="#8FC3AC"/>
<path d="M109.321 1.07617C117.707 1.07633 125.642 5.41805 130.215 12.4267L130.647 13.1132L130.649 13.1162L137.149 23.9296H151.68C163.047 23.9297 172.282 33.1641 172.282 44.5312V94.3574C172.282 96.6798 170.386 98.5759 168.063 98.5761C165.741 98.5761 163.845 96.68 163.845 94.3574V44.5312C163.845 37.8093 158.402 32.3672 151.68 32.3671H134.749C133.285 32.3671 131.89 31.6142 131.123 30.3359L123.4 17.4961C120.426 12.579 115.02 9.51381 109.289 9.51367H66.3828C60.6515 9.51367 55.2456 12.5469 52.2393 17.4619L52.2402 17.4629L44.4824 30.3379C43.7153 31.615 42.3218 32.367 40.8584 32.3671H23.9277C17.2057 32.3671 11.7628 37.8092 11.7627 44.5312V117.437C11.7629 124.159 17.2058 129.601 23.9277 129.601H124.578C126.9 129.601 128.797 131.497 128.797 133.819C128.797 136.148 126.926 138.006 124.578 138.006H23.96C12.5928 138.006 3.35759 128.772 3.35742 117.404V44.5312C3.35755 33.164 12.5928 23.9296 23.96 23.9296H38.4902L45.0225 13.083L45.0264 13.0781L45.4609 12.3916C50.0639 5.38561 57.9994 1.07617 66.3828 1.07617H109.321Z" fill="#313A46" stroke="#313A46" stroke-width="2"/>
<path d="M87.8516 40.9415C109.693 40.9415 127.46 58.7074 127.46 80.549C127.46 102.391 109.693 120.157 87.8516 120.157C66.01 120.157 48.2441 102.391 48.2441 80.549C48.2444 58.7075 66.0101 40.9417 87.8516 40.9415ZM87.8516 48.4113C70.1349 48.4115 55.6818 62.8329 55.6816 80.5812C55.6816 98.3299 70.1029 112.752 87.8516 112.752C105.569 112.752 120.022 98.3297 120.022 80.5812C120.022 62.8328 105.568 48.4113 87.8516 48.4113Z" fill="#313A46" stroke="#313A46"/>
<path d="M87.8521 97.8663C78.3246 97.8663 70.5674 90.1091 70.5674 80.5816C70.5674 71.0541 78.3246 63.2969 87.8521 63.2969C97.3796 63.2969 105.137 71.0541 105.137 80.5816C105.137 90.1091 97.3796 97.8663 87.8521 97.8663ZM87.8521 69.7344C81.8652 69.7344 77.0049 74.5947 77.0049 80.5816C77.0049 86.5684 81.8652 91.4288 87.8521 91.4288C93.8389 91.4288 98.6993 86.5684 98.6993 80.5816C98.6993 74.5947 93.8389 69.7344 87.8521 69.7344Z" fill="#313A46"/>
<path d="M144.502 63.1359C138.547 63.1359 133.687 58.2756 133.687 52.3209C133.687 46.3662 138.547 41.5059 144.502 41.5059C150.456 41.5059 155.317 46.3662 155.317 52.3209C155.317 58.2756 150.456 63.1359 144.502 63.1359ZM144.502 47.9112C142.087 47.9112 140.124 49.8747 140.124 52.2887C140.124 54.7028 142.087 56.6662 144.502 56.6662C146.916 56.6662 148.879 54.7028 148.879 52.2887C148.879 49.8747 146.916 47.9112 144.502 47.9112Z" fill="#313A46"/>
<path d="M111.38 22.9016H64.3223C62.552 22.9016 61.1035 21.4531 61.1035 19.6828C61.1035 17.9125 62.552 16.4641 64.3223 16.4641H111.38C113.151 16.4641 114.599 17.9125 114.599 19.6828C114.599 21.4531 113.151 22.9016 111.38 22.9016Z" fill="#313A46"/>
<path d="M158.696 162.37C177.842 162.37 193.362 146.849 193.362 127.704C193.362 108.559 177.842 93.0381 158.696 93.0381C139.551 93.0381 124.03 108.559 124.03 127.704C124.03 146.849 139.551 162.37 158.696 162.37Z" fill="#A5DDFF"/>
<path d="M162.996 111.412L163.702 110.194C164.795 108.31 167.215 107.665 169.108 108.752C171 109.84 171.649 112.249 170.556 114.133L154.995 140.961L148.141 137.022L154.853 125.45L162.996 111.412Z" fill="#FFBC53"/>
<path d="M169.118 108.758C167.234 107.658 164.825 108.311 163.738 110.216L161.909 113.419L168.731 117.402L170.559 114.199C171.647 112.294 171.002 109.858 169.118 108.758Z" fill="#FE6663"/>
<path d="M155.177 141.115L147.223 146.774L148.319 137.289L155.177 141.115Z" fill="#2361A8"/>
<path d="M169.736 107.699C168.544 107.004 167.155 106.82 165.825 107.18C164.495 107.539 163.383 108.401 162.695 109.604L147.251 136.613C147.167 136.761 147.113 136.925 147.095 137.095L146.008 146.927C145.954 147.416 146.191 147.891 146.614 148.138C146.804 148.249 147.016 148.304 147.227 148.304C147.484 148.304 147.74 148.222 147.955 148.062L155.844 142.196C155.98 142.094 156.094 141.966 156.179 141.817L171.622 114.809C173.043 112.324 172.197 109.134 169.736 107.699ZM149.326 139.253L152.878 141.324L148.758 144.387L149.326 139.253ZM154.667 139.505L149.991 136.779L162.384 115.105L167.06 117.831L154.667 139.505ZM169.497 113.57L168.287 115.685L163.611 112.959L164.821 110.844C165.181 110.213 165.763 109.762 166.46 109.573C167.157 109.385 167.884 109.482 168.509 109.846C169.133 110.21 169.58 110.798 169.766 111.501C169.953 112.204 169.857 112.939 169.497 113.57Z" fill="#313A46"/>
<path d="M158.384 89C179.55 89 196.769 106.219 196.769 127.385C196.769 148.583 179.55 165.77 158.384 165.77C137.218 165.77 120 148.551 120 127.385C120 106.219 137.218 89 158.384 89ZM158.384 96.4697C141.311 96.4697 127.437 110.344 127.437 127.417C127.437 144.49 141.311 158.364 158.384 158.364C175.457 158.364 189.331 144.49 189.332 127.417C189.332 110.344 175.457 96.4697 158.384 96.4697Z" fill="#313A46" stroke="#313A46"/>
</svg>
