<svg width="683" height="486" viewBox="0 0 683 486" fill="none" xmlns="http://www.w3.org/2000/svg">
<g clip-path="url(#clip0_208_767)">
<mask id="mask0_208_767" style="mask-type:luminance" maskUnits="userSpaceOnUse" x="0" y="0" width="683" height="486">
<path d="M683 0H0V486H683V0Z" fill="white"/>
</mask>
<g mask="url(#mask0_208_767)">
<mask id="mask1_208_767" style="mask-type:luminance" maskUnits="userSpaceOnUse" x="0" y="-51" width="683" height="545">
<path d="M0 -51H683V494H0V-51Z" fill="white"/>
</mask>
<g mask="url(#mask1_208_767)">
<path d="M81.6644 413.667H61.8177C38.7217 413.667 19.999 394.944 19.999 371.849V289.587C19.999 278.496 24.4057 267.86 32.247 260.017L132.679 159.585C152.564 139.7 179.534 128.529 207.654 128.529H380.958C398.57 128.529 415.462 135.527 427.915 147.98L532.48 252.545L638.624 287.068C652.96 291.732 662.666 305.093 662.666 320.169V378.859C662.666 398.083 647.082 413.667 627.858 413.667H601" fill="#FE6663"/>
<path d="M81.6644 413.667H61.8177C38.7217 413.667 19.999 394.944 19.999 371.849V289.587C19.999 278.496 24.4057 267.86 32.247 260.017L132.679 159.585C152.564 139.7 179.534 128.529 207.654 128.529H380.958C398.57 128.529 415.462 135.527 427.915 147.98L532.48 252.545L638.624 287.068C652.96 291.732 662.666 305.093 662.666 320.169V378.859C662.666 398.083 647.082 413.667 627.858 413.667H601" stroke="#313A46" stroke-width="24" stroke-miterlimit="10" stroke-linecap="round" stroke-linejoin="round"/>
<path d="M201.664 413.667H481" stroke="#313A46" stroke-width="24" stroke-miterlimit="10" stroke-linecap="round" stroke-linejoin="round"/>
<path d="M163.653 138.093V177.413C163.653 218.906 197.293 252.546 238.787 252.546H532.48" stroke="#313A46" stroke-width="24" stroke-miterlimit="10" stroke-linecap="round" stroke-linejoin="round"/>
<path d="M341.333 252.547V128.53" stroke="#313A46" stroke-width="24" stroke-miterlimit="10" stroke-linecap="round" stroke-linejoin="round"/>
<path d="M380.759 319.214H416.351" stroke="#313A46" stroke-width="24" stroke-miterlimit="10" stroke-linecap="round" stroke-linejoin="round"/>
<path d="M201.664 413.667C201.664 446.804 174.801 473.667 141.664 473.667C108.527 473.667 81.6641 446.804 81.6641 413.667C81.6641 380.529 108.527 353.667 141.664 353.667C174.801 353.667 201.664 380.529 201.664 413.667Z" fill="#FFCDAC" stroke="#313A46" stroke-width="24" stroke-miterlimit="10" stroke-linecap="round" stroke-linejoin="round"/>
<path d="M601.001 413.667C601.001 446.804 574.14 473.667 541.001 473.667C507.864 473.667 481.001 446.804 481.001 413.667C481.001 380.529 507.864 353.667 541.001 353.667C574.14 353.667 601.001 380.529 601.001 413.667Z" fill="#FFCDAC" stroke="#313A46" stroke-width="24" stroke-miterlimit="10" stroke-linecap="round" stroke-linejoin="round"/>
</g>
<path d="M305.223 156.447C346.216 156.447 379.447 123.216 379.447 82.2236C379.447 41.231 346.216 8 305.223 8C264.231 8 231 41.231 231 82.2236C231 123.216 264.231 156.447 305.223 156.447Z" fill="#A5DDFF"/>
<path d="M305.115 0.5C350.118 0.5 386.73 37.112 386.73 82.1152C386.73 127.188 350.118 163.73 305.115 163.73C260.112 163.73 223.5 127.118 223.5 82.1152C223.5 37.112 260.112 0.500039 305.115 0.5ZM305.115 15.3525C268.245 15.3526 238.283 45.3145 238.283 82.1846C238.283 119.055 268.245 149.017 305.115 149.017C341.985 149.017 371.947 119.055 371.947 82.1846C371.947 45.3144 341.985 15.3525 305.115 15.3525Z" fill="#313A46" stroke="#313A46"/>
<path d="M313.847 44.3441L315.504 41.4881C318.066 37.0714 323.739 35.5582 328.177 38.108C332.614 40.6581 334.135 46.3055 331.573 50.7224L295.089 113.621L279.02 104.386L294.757 77.2547L313.847 44.3441Z" fill="#FFBC53"/>
<path d="M328.201 38.1222C323.784 35.5433 318.137 37.0736 315.587 41.5403L311.3 49.05L327.293 58.3885L331.58 50.8789C334.13 46.4124 332.617 40.701 328.201 38.1222Z" fill="#FE6663"/>
<path d="M295.517 113.982L276.867 127.25L279.437 105.013L295.517 113.982Z" fill="#2361A8"/>
<path d="M329.649 35.6399C326.853 34.0104 323.597 33.5775 320.479 34.4209C317.361 35.2646 314.755 37.2836 313.141 40.106L276.934 103.427C276.736 103.775 276.61 104.159 276.566 104.558L274.018 127.608C273.891 128.755 274.449 129.869 275.439 130.447C275.885 130.707 276.382 130.836 276.877 130.836C277.479 130.836 278.078 130.646 278.583 130.27L297.079 116.516C297.399 116.278 297.666 115.976 297.864 115.629L334.071 52.3079C337.403 46.4813 335.419 39.0041 329.649 35.6399ZM281.797 109.617L290.124 114.472L280.466 121.654L281.797 109.617ZM294.32 110.208L283.356 103.817L312.412 53.0028L323.375 59.3941L294.32 110.208ZM329.088 49.4024L326.252 54.3624L315.288 47.9711L318.124 43.0111C318.97 41.5327 320.335 40.4752 321.968 40.0333C323.602 39.5912 325.307 39.8184 326.771 40.6719C328.235 41.5254 329.283 42.9036 329.72 44.5526C330.158 46.2015 329.933 47.924 329.088 49.4024Z" fill="#313A46"/>
</g>
</g>
<defs>
<clipPath id="clip0_208_767">
<rect width="683" height="486" fill="white"/>
</clipPath>
</defs>
</svg>
