<svg width="512" height="512" viewBox="0 0 512 512" fill="none" xmlns="http://www.w3.org/2000/svg">
<g clip-path="url(#clip0_148_1809)">
<path d="M309.333 448H223.999C194.602 448 170.666 424.064 170.666 394.667V352C170.666 346.112 175.445 341.333 181.333 341.333C187.221 341.333 191.999 346.112 191.999 352V394.667C191.999 412.309 206.357 426.667 223.999 426.667H309.333C315.221 426.667 319.999 431.445 319.999 437.333C319.999 443.221 315.221 448 309.333 448Z" fill="white"/>
<path d="M224 234.667H10.6667C4.77867 234.667 0 229.888 0 224C0 218.112 4.77867 213.333 10.6667 213.333H224C229.888 213.333 234.667 218.112 234.667 224C234.667 229.888 229.888 234.667 224 234.667Z" fill="white"/>
<path d="M341.333 512C317.802 512 298.666 492.864 298.666 469.333V85.3333C298.666 66.9867 310.442 50.752 327.957 44.9067L455.957 2.24C460.01 0.789333 464.597 0 469.333 0C492.863 0 511.999 19.136 511.999 42.6667V426.667C511.999 444.992 500.245 461.248 482.73 467.072L354.73 509.739C350.613 511.211 346.026 512 341.333 512ZM469.333 21.3333C467.114 21.3333 464.895 21.7173 462.933 22.4L334.698 65.152C325.887 68.0747 319.999 76.1813 319.999 85.3333V469.333C319.999 481.088 329.578 490.667 341.333 490.667C343.551 490.667 345.77 490.283 347.775 489.579L475.989 446.848C484.757 443.904 490.666 435.797 490.666 426.667V42.6667C490.666 30.912 481.087 21.3333 469.333 21.3333Z" fill="white"/>
<path d="M181.333 106.667C175.445 106.667 170.666 101.888 170.666 96V53.3333C170.666 23.936 194.602 0 223.999 0H469.333C475.221 0 479.999 4.77867 479.999 10.6667C479.999 16.5547 475.221 21.3333 469.333 21.3333H223.999C206.357 21.3333 191.999 35.6907 191.999 53.3333V96C191.999 101.888 187.221 106.667 181.333 106.667Z" fill="white"/>
<path d="M138.666 320C135.935 320 133.205 318.955 131.114 316.885C126.954 312.725 126.954 305.963 131.114 301.803L208.917 224L131.114 146.219C126.954 142.059 126.954 135.296 131.114 131.136C135.274 126.976 142.037 126.976 146.197 131.136L231.53 216.469C235.69 220.629 235.69 227.392 231.53 231.552L146.197 316.885C144.127 318.955 141.397 320 138.666 320Z" fill="white"/>
</g>
<defs>
<clipPath id="clip0_148_1809">
<rect width="512" height="512" fill="white"/>
</clipPath>
</defs>
</svg>
