<svg width="50" height="50" viewBox="0 0 50 50" fill="none" xmlns="http://www.w3.org/2000/svg">
<g clip-path="url(#clip0_48_106)">
<path d="M20.1899 0H2.34941C1.06152 0 0.0117188 1.04824 0.0117188 2.33916V20.1858C0.0117188 21.4737 1.06152 22.5235 2.34941 22.5235H20.19C21.4779 22.5235 22.5262 21.4737 22.5262 20.1858V2.33916C22.5261 1.04824 21.4778 0 20.1899 0ZM20.7469 20.7443H1.79092V1.78066H20.7469V20.7443Z" fill="white"/>
<path d="M47.6513 0H29.8107C28.5229 0 27.4746 1.04824 27.4746 2.33916V20.1858C27.4746 21.4737 28.5229 22.5235 29.8107 22.5235H47.6514C48.9393 22.5235 49.9891 21.4737 49.9891 20.1858V2.33916C49.989 1.04824 48.9392 0 47.6513 0ZM48.2098 20.7443H29.2538V1.78066H48.2098V20.7443Z" fill="white"/>
<path d="M20.1899 27.4734H2.34941C1.06152 27.4734 0.0117188 28.5232 0.0117188 29.8126V47.6608C0.0117188 48.9502 1.06152 50 2.34941 50H20.19C21.4779 50 22.5262 48.9502 22.5262 47.6608V29.8126C22.5261 28.5232 21.4778 27.4734 20.1899 27.4734ZM20.7469 48.2193H1.79092V29.2557H20.7469V48.2193Z" fill="white"/>
<path d="M47.6513 27.4734H29.8107C28.5229 27.4734 27.4746 28.5232 27.4746 29.8126V47.6608C27.4746 48.9502 28.5229 50 29.8107 50H47.6514C48.9393 50 49.9891 48.9502 49.9891 47.6608V29.8126C49.989 28.5232 48.9392 27.4734 47.6513 27.4734ZM48.2098 48.2193H29.2538V29.2557H48.2098V48.2193Z" fill="white"/>
</g>
<defs>
<clipPath id="clip0_48_106">
<rect width="50" height="50" fill="white"/>
</clipPath>
</defs>
</svg>
