<svg width="26" height="26" viewBox="0 0 26 26" fill="none" xmlns="http://www.w3.org/2000/svg">
<path d="M21.8854 25.4064C21.3994 25.4064 21.0052 25.0123 21.0052 24.5262V12.2033H15.724C15.2379 12.2033 14.8438 11.8091 14.8438 11.3231C14.8438 10.837 15.2379 10.4429 15.724 10.4429H21.8854C22.3715 10.4429 22.7656 10.837 22.7656 11.3231V24.5262C22.7656 25.0123 22.3715 25.4064 21.8854 25.4064Z" fill="#94A8BF" fill-opacity="0.941176"/>
<path d="M7.80208 25.4064C7.31603 25.4064 6.92188 25.0123 6.92188 24.5262V16.6043C6.92188 16.1183 7.31603 15.7241 7.80208 15.7241C8.28813 15.7241 8.68229 16.1183 8.68229 16.6043V24.5262C8.68229 25.0123 8.28813 25.4064 7.80208 25.4064Z" fill="#94A8BF" fill-opacity="0.941176"/>
<path d="M24.5257 23.646C24.0397 23.646 23.6455 23.2518 23.6455 22.7658V9.56266H16.6038C16.1178 9.56266 15.7236 9.16851 15.7236 8.68245C15.7236 8.1964 16.1178 7.80225 16.6038 7.80225H24.5257C25.0118 7.80225 25.4059 8.1964 25.4059 8.68245V22.7658C25.4059 23.2518 25.0118 23.646 24.5257 23.646Z" fill="#94A8BF" fill-opacity="0.941176"/>
<path d="M18.3646 15.724H13.0833C12.5973 15.724 12.2031 15.3299 12.2031 14.8438C12.2031 14.3578 12.5973 13.9636 13.0833 13.9636H18.3646C18.8506 13.9636 19.2448 14.3578 19.2448 14.8438C19.2448 15.3299 18.8506 15.724 18.3646 15.724Z" fill="#94A8BF" fill-opacity="0.941176"/>
<path d="M18.3643 19.2448H11.3226C10.8365 19.2448 10.4424 18.8506 10.4424 18.3646C10.4424 17.8785 10.8365 17.4844 11.3226 17.4844H18.3643C18.8503 17.4844 19.2445 17.8785 19.2445 18.3646C19.2445 18.8506 18.8503 19.2448 18.3643 19.2448Z" fill="#94A8BF" fill-opacity="0.941176"/>
<path d="M18.3643 22.7658H11.3226C10.8365 22.7658 10.4424 22.3716 10.4424 21.8856C10.4424 21.3995 10.8365 21.0054 11.3226 21.0054H18.3643C18.8503 21.0054 19.2445 21.3995 19.2445 21.8856C19.2445 22.3716 18.8503 22.7658 18.3643 22.7658Z" fill="#94A8BF" fill-opacity="0.941176"/>
<path d="M7.80192 14.8438C3.91923 14.8438 0.760254 11.6849 0.760254 7.80216C0.760254 7.31611 1.15441 6.92196 1.64046 6.92196C2.12651 6.92196 2.52067 7.31611 2.52067 7.80216C2.52067 10.7144 4.88966 13.0834 7.80192 13.0834C10.7142 13.0834 13.0832 10.7144 13.0832 7.80216C13.0832 4.88991 10.7142 2.52091 7.80192 2.52091C6.07636 2.52091 4.45554 3.36715 3.46707 4.78463C3.18945 5.18346 2.63976 5.28274 2.24173 5.00337C1.84291 4.72531 1.74494 4.1765 2.023 3.77803C3.34067 1.88831 5.50079 0.760498 7.80192 0.760498C11.6846 0.760498 14.8436 3.91948 14.8436 7.80216C14.8436 11.6849 11.6846 14.8438 7.80192 14.8438Z" fill="#94A8BF" fill-opacity="0.941176"/>
<path d="M7.80208 8.68229H5.16146C4.67541 8.68229 4.28125 8.28813 4.28125 7.80208C4.28125 7.31603 4.67541 6.92188 5.16146 6.92188H6.92188V5.16146C6.92188 4.67541 7.31603 4.28125 7.80208 4.28125C8.28813 4.28125 8.68229 4.67541 8.68229 5.16146V7.80208C8.68229 8.28813 8.28813 8.68229 7.80208 8.68229Z" fill="#94A8BF" fill-opacity="0.941176"/>
<path d="M4.28125 5.16146H2.52083C2.03478 5.16146 1.64062 4.7673 1.64062 4.28125V2.52083C1.64062 2.03478 2.03478 1.64062 2.52083 1.64062C3.00688 1.64062 3.40104 2.03478 3.40104 2.52083V3.40104H4.28125C4.7673 3.40104 5.16146 3.7952 5.16146 4.28125C5.16146 4.7673 4.7673 5.16146 4.28125 5.16146Z" fill="#94A8BF" fill-opacity="0.941176"/>
</svg>
