<svg width="512" height="336" viewBox="0 0 512 336" fill="none" xmlns="http://www.w3.org/2000/svg">
<g clip-path="url(#clip0_44_66)">
<path d="M512 112.093H0V9.104C0 4.229 3.953 0.276001 8.828 0.276001H503.173C508.048 0.276001 512.001 4.229 512.001 9.104L512 112.093Z" fill="#FAB446"/>
<path d="M503.172 335.725H8.828C3.953 335.725 0 331.772 0 326.897V223.909H512V326.897C512 331.773 508.047 335.725 503.172 335.725Z" fill="#73AF00"/>
<path d="M512 112.091H0V223.901H512V112.091Z" fill="#F5F5F5"/>
<path d="M256 215.449C229.836 215.449 208.552 194.165 208.552 168.001C208.552 141.837 229.836 120.553 256 120.553C282.164 120.553 303.448 141.837 303.448 168.001C303.448 194.165 282.164 215.449 256 215.449ZM256 129.38C234.702 129.38 217.379 146.703 217.379 168.001C217.379 189.299 234.702 206.622 256 206.622C277.298 206.622 294.621 189.299 294.621 168.001C294.621 146.703 277.298 129.38 256 129.38Z" fill="#41479B"/>
<path d="M256 173.38C258.971 173.38 261.379 170.972 261.379 168.001C261.379 165.03 258.971 162.622 256 162.622C253.029 162.622 250.621 165.03 250.621 168.001C250.621 170.972 253.029 173.38 256 173.38Z" fill="#41479B"/>
<path d="M256 168.808L242.33 170.188L212.966 168.808V167.194L242.33 165.814L256 167.194V168.808Z" fill="#41479B"/>
<path d="M256 168.808L269.67 170.188L299.034 168.808V167.194L269.67 165.814L256 167.194V168.808Z" fill="#41479B"/>
<path d="M255.192 168.001L253.812 154.331L255.192 124.967H256.807L258.187 154.331L256.807 168.001H255.192Z" fill="#41479B"/>
<path d="M255.192 168.001L253.812 181.671L255.192 211.035H256.807L258.187 181.671L256.807 168.001H255.192Z" fill="#41479B"/>
<path d="M255.43 168.571L244.788 159.882L225 138.142L226.141 137.001L247.881 156.789L256.57 167.431L255.43 168.571Z" fill="#41479B"/>
<path d="M255.43 168.571L264.119 179.213L285.859 199.001L287 197.86L267.212 176.12L256.57 167.431L255.43 168.571Z" fill="#41479B"/>
<path d="M255.43 167.431L264.119 156.789L285.859 137.001L287 138.142L267.212 159.882L256.57 168.571L255.43 167.431Z" fill="#41479B"/>
<path d="M255.43 167.431L244.788 176.12L225 197.86L226.141 199.001L247.881 179.213L256.57 168.571L255.43 167.431Z" fill="#41479B"/>
<path d="M256.309 168.747L244.207 175.253L216.551 185.215L215.933 183.724L242.534 171.212L255.691 167.255L256.309 168.747Z" fill="#41479B"/>
<path d="M256.308 168.747L269.465 164.79L296.066 152.278L295.448 150.787L267.792 160.749L255.69 167.255L256.308 168.747Z" fill="#41479B"/>
<path d="M255.254 168.31L248.748 156.208L238.786 128.552L240.277 127.934L252.789 154.535L256.746 167.692L255.254 168.31Z" fill="#41479B"/>
<path d="M255.254 168.31L259.211 181.467L271.723 208.068L273.214 207.45L263.252 179.794L256.746 167.692L255.254 168.31Z" fill="#41479B"/>
<path d="M255.691 168.747L242.534 164.79L215.933 152.278L216.551 150.787L244.207 160.749L256.309 167.255L255.691 168.747Z" fill="#41479B"/>
<path d="M255.69 168.747L267.792 175.253L295.448 185.215L296.066 183.724L269.465 171.212L256.308 167.255L255.69 168.747Z" fill="#41479B"/>
<path d="M255.254 167.692L259.211 154.535L271.723 127.934L273.214 128.552L263.252 156.208L256.746 168.31L255.254 167.692Z" fill="#41479B"/>
<path d="M255.254 167.692L248.748 179.794L238.786 207.45L240.277 208.068L252.789 181.467L256.746 168.31L255.254 167.692Z" fill="#41479B"/>
<path d="M256 175.257C260.008 175.257 263.256 172.008 263.256 168.001C263.256 163.994 260.008 160.745 256 160.745C251.993 160.745 248.744 163.994 248.744 168.001C248.744 172.008 251.993 175.257 256 175.257Z" fill="#F5F5F5"/>
<path d="M256 172.352C258.403 172.352 260.351 170.404 260.351 168.001C260.351 165.598 258.403 163.65 256 163.65C253.597 163.65 251.649 165.598 251.649 168.001C251.649 170.404 253.597 172.352 256 172.352Z" fill="#41479B"/>
</g>
<defs>
<clipPath id="clip0_44_66">
<rect width="512" height="336" fill="white"/>
</clipPath>
</defs>
</svg>
