<svg width="26" height="26" viewBox="0 0 26 26" fill="none" xmlns="http://www.w3.org/2000/svg">
<g clip-path="url(#clip0_101_5190)">
<path d="M23.5625 19.9062H14.1781C14.1332 19.7251 14.0473 19.5567 13.9271 19.4139L11.6833 16.7984C11.6452 16.7539 11.598 16.7181 11.5447 16.6936C11.4915 16.669 11.4336 16.6563 11.375 16.6562H6.90625V16.25C6.90625 16.1423 6.86345 16.0389 6.78726 15.9627C6.71108 15.8866 6.60774 15.8438 6.5 15.8438H0.8125C0.704756 15.8438 0.601425 15.8866 0.525238 15.9627C0.449051 16.0389 0.40625 16.1423 0.40625 16.25V25.1875C0.40625 25.2952 0.449051 25.3986 0.525238 25.4748C0.601425 25.5509 0.704756 25.5938 0.8125 25.5938H4.0625C4.17024 25.5938 4.27358 25.5509 4.34976 25.4748C4.42595 25.3986 4.46875 25.2952 4.46875 25.1875V24.7812H6.5C6.60774 24.7812 6.71108 24.7384 6.78726 24.6623C6.86345 24.5861 6.90625 24.4827 6.90625 24.375V23.9688H9.62813L11.9632 25.5255C12.0297 25.5698 12.1077 25.5935 12.1875 25.5938C12.2167 25.5937 12.2459 25.5905 12.2744 25.5844L25.2744 22.7407C25.3649 22.7208 25.446 22.6707 25.504 22.5985C25.5621 22.5263 25.5938 22.4364 25.5938 22.3438V21.9375C25.5931 21.399 25.3789 20.8827 24.9981 20.5019C24.6173 20.1211 24.101 19.9069 23.5625 19.9062ZM3.65625 24.7812H1.21875V16.6562H3.65625V24.7812ZM6.09375 23.9688H4.46875V16.6562H6.09375V23.9688ZM24.7812 22.0188L12.2688 24.754L9.97506 23.2245C9.90835 23.1802 9.83009 23.1565 9.75 23.1562H6.90625V17.4688H11.1881L13.3083 19.9424C13.3715 20.016 13.4062 20.1099 13.4062 20.2069V20.7188C13.4062 20.8265 13.3634 20.9298 13.2873 21.006C13.2111 21.0822 13.1077 21.125 13 21.125H12.5243C12.4709 21.125 12.418 21.1145 12.3686 21.0941C12.3193 21.0737 12.2744 21.0437 12.2367 21.006L10.4435 19.2128L9.86903 19.7872L11.6622 21.5804C11.7751 21.694 11.9095 21.7841 12.0574 21.8454C12.2054 21.9067 12.3641 21.938 12.5243 21.9375H13C13.3232 21.9375 13.6332 21.8091 13.8618 21.5805C14.0903 21.352 14.2188 21.042 14.2188 20.7188H23.5625C23.8857 20.7188 24.1957 20.8472 24.4243 21.0757C24.6528 21.3043 24.7812 21.6143 24.7812 21.9375V22.0188Z" fill="#94A8BF"/>
<path d="M25.1875 12.5938H24.375V3.65625C24.375 3.33302 24.2466 3.02302 24.018 2.79446C23.7895 2.5659 23.4795 2.4375 23.1562 2.4375H20.2906C20.2847 2.42755 20.2783 2.41792 20.2715 2.40866L19.1226 1.25937C19.0464 1.18321 18.9431 1.14043 18.8354 1.14043C18.7277 1.14043 18.6243 1.18321 18.5482 1.25937L18.1265 1.68106C17.9157 1.57087 17.6956 1.47952 17.4688 1.40806V0.8125C17.4688 0.704756 17.4259 0.601425 17.3498 0.525238C17.2736 0.449051 17.1702 0.40625 17.0625 0.40625H15.4375C15.3298 0.40625 15.2264 0.449051 15.1502 0.525238C15.0741 0.601425 15.0312 0.704756 15.0312 0.8125V1.40806C14.8044 1.47952 14.5843 1.57087 14.3735 1.68106L13.9518 1.25937C13.8757 1.18321 13.7723 1.14043 13.6646 1.14043C13.5569 1.14043 13.4536 1.18321 13.3774 1.25937L12.2281 2.40866C12.2214 2.41793 12.2151 2.42756 12.2094 2.4375H9.34375C9.02052 2.4375 8.71052 2.5659 8.48196 2.79446C8.2534 3.02302 8.125 3.33302 8.125 3.65625V6.09375H0.8125C0.704756 6.09375 0.601425 6.13655 0.525238 6.21274C0.449051 6.28892 0.40625 6.39226 0.40625 6.5V11.375C0.40625 11.4827 0.449051 11.5861 0.525238 11.6623C0.601425 11.7384 0.704756 11.7812 0.8125 11.7812H8.125V12.5938H7.3125C7.20476 12.5938 7.10142 12.6366 7.02524 12.7127C6.94905 12.7889 6.90625 12.8923 6.90625 13V14.625C6.90625 14.9482 7.03465 15.2582 7.26321 15.4868C7.49177 15.7153 7.80177 15.8438 8.125 15.8438H24.375C24.6982 15.8438 25.0082 15.7153 25.2368 15.4868C25.4653 15.2582 25.5938 14.9482 25.5938 14.625V13C25.5938 12.8923 25.5509 12.7889 25.4748 12.7127C25.3986 12.6366 25.2952 12.5938 25.1875 12.5938ZM23.5625 3.65625V12.5938H22.75V4.46875C22.75 4.36101 22.7072 4.25767 22.631 4.18149C22.5548 4.1053 22.4515 4.0625 22.3438 4.0625H20.1232C20.0517 3.83565 19.9604 3.61555 19.8502 3.40478L20.005 3.25H23.1562C23.264 3.25 23.3673 3.2928 23.4435 3.36899C23.5197 3.44517 23.5625 3.54851 23.5625 3.65625ZM10.9688 11.375V6.5C10.9688 6.39226 10.9259 6.28892 10.8498 6.21274C10.7736 6.13655 10.6702 6.09375 10.5625 6.09375V4.875H11.375V6.09375C11.375 6.20149 11.4178 6.30483 11.494 6.38101C11.5702 6.4572 11.6735 6.5 11.7812 6.5H12.3768C12.4483 6.72685 12.5396 6.94695 12.6498 7.15772L12.2281 7.57941C12.152 7.65559 12.1092 7.7589 12.1092 7.86663C12.1092 7.97435 12.152 8.07766 12.2281 8.15384L13.3774 9.30312C13.4536 9.37928 13.5569 9.42207 13.6646 9.42207C13.7723 9.42207 13.8757 9.37928 13.9518 9.30312L14.3735 8.88144C14.5843 8.99165 14.8044 9.083 15.0312 9.15444V9.75C15.0312 9.85774 15.0741 9.96108 15.1502 10.0373C15.2264 10.1134 15.3298 10.1562 15.4375 10.1562H17.0625C17.1702 10.1562 17.2736 10.1134 17.3498 10.0373C17.4259 9.96108 17.4688 9.85774 17.4688 9.75V9.15444C17.6956 9.08287 17.9157 8.99138 18.1265 8.88103L18.5482 9.30312C18.6243 9.37928 18.7277 9.42207 18.8354 9.42207C18.9431 9.42207 19.0464 9.37928 19.1226 9.30312L20.2719 8.15384C20.348 8.07766 20.3908 7.97435 20.3908 7.86663C20.3908 7.7589 20.348 7.65559 20.2719 7.57941L19.8506 7.15772C19.9606 6.94693 20.0519 6.72684 20.1232 6.5H20.7188C20.8265 6.5 20.9298 6.4572 21.006 6.38101C21.0822 6.30483 21.125 6.20149 21.125 6.09375V4.875H21.9375V12.5938H10.5625V11.7812C10.6702 11.7812 10.7736 11.7384 10.8498 11.6623C10.9259 11.5861 10.9688 11.4827 10.9688 11.375ZM13.0837 4.55894C13.1647 4.20279 13.3058 3.86305 13.5009 3.55428C13.5501 3.47631 13.5713 3.38392 13.561 3.29231C13.5508 3.20069 13.5097 3.11528 13.4444 3.05012L13.0902 2.69588L13.6646 2.12144L14.0189 2.47569C14.084 2.54091 14.1694 2.58203 14.2611 2.59229C14.3527 2.60255 14.4451 2.58135 14.523 2.53216C14.8318 2.33705 15.1715 2.19596 15.5277 2.11494C15.6175 2.09448 15.6977 2.0441 15.7552 1.97205C15.8126 1.9 15.8438 1.81057 15.8438 1.71844V1.21875H16.6562V1.71844C16.6562 1.81057 16.6874 1.9 16.7448 1.97205C16.8023 2.0441 16.8825 2.09448 16.9723 2.11494C17.3285 2.19596 17.6682 2.33705 17.977 2.53216C18.0549 2.58135 18.1473 2.60255 18.2389 2.59229C18.3306 2.58203 18.416 2.54091 18.4811 2.47569L18.8354 2.12144L19.4098 2.69588L19.0556 3.05012C18.9903 3.11528 18.9492 3.20069 18.939 3.29231C18.9287 3.38392 18.9499 3.47631 18.9991 3.55428C19.1942 3.86305 19.3353 4.20279 19.4163 4.55894C19.4368 4.64877 19.4872 4.72899 19.5592 4.78642C19.6312 4.84385 19.7207 4.87509 19.8128 4.875H20.3125V5.6875H19.8128C19.7207 5.68741 19.6312 5.71865 19.5592 5.77608C19.4872 5.83351 19.4368 5.91373 19.4163 6.00356C19.3353 6.35971 19.1942 6.69945 18.9991 7.00822C18.9499 7.08619 18.9287 7.17858 18.939 7.27019C18.9492 7.36181 18.9903 7.44722 19.0556 7.51238L19.4098 7.86663L18.8354 8.44106L18.4811 8.08681C18.416 8.02169 18.3307 7.98063 18.2391 7.97037C18.1476 7.96011 18.0553 7.98126 17.9774 8.03034C17.6685 8.22534 17.3288 8.36642 16.9727 8.44756C16.8829 8.46792 16.8026 8.51821 16.7451 8.59018C16.6876 8.66216 16.6563 8.75153 16.6562 8.84366V9.34375H15.8438V8.84366C15.8437 8.75153 15.8124 8.66216 15.7549 8.59018C15.6974 8.51821 15.6171 8.46792 15.5273 8.44756C15.1712 8.36642 14.8315 8.22534 14.5226 8.03034C14.4447 7.98126 14.3524 7.96011 14.2609 7.97037C14.1693 7.98063 14.084 8.02169 14.0189 8.08681L13.6646 8.44106L13.0902 7.86663L13.4444 7.51238C13.5097 7.44722 13.5508 7.36181 13.561 7.27019C13.5713 7.17858 13.5501 7.08619 13.5009 7.00822C13.3058 6.69945 13.1647 6.35971 13.0837 6.00356C13.0632 5.91373 13.0128 5.83351 12.9408 5.77608C12.8688 5.71865 12.7793 5.68741 12.6872 5.6875H12.1875V4.875H12.6872C12.7793 4.87509 12.8688 4.84385 12.9408 4.78642C13.0128 4.72899 13.0632 4.64877 13.0837 4.55894ZM8.9375 3.65625C8.9375 3.54851 8.9803 3.44517 9.05649 3.36899C9.13267 3.2928 9.23601 3.25 9.34375 3.25H12.495L12.6498 3.40478C12.5396 3.61555 12.4483 3.83565 12.3768 4.0625H10.1562C10.0485 4.0625 9.94517 4.1053 9.86899 4.18149C9.7928 4.25767 9.75 4.36101 9.75 4.46875V6.09375H8.9375V3.65625ZM1.21875 6.90625H10.1562V10.9688H1.21875V6.90625ZM8.9375 11.7812H9.75V12.5938H8.9375V11.7812ZM24.7812 14.625C24.7812 14.7327 24.7384 14.8361 24.6623 14.9123C24.5861 14.9884 24.4827 15.0312 24.375 15.0312H8.125C8.01726 15.0312 7.91392 14.9884 7.83774 14.9123C7.76155 14.8361 7.71875 14.7327 7.71875 14.625V13.4062H24.7812V14.625Z" fill="#94A8BF"/>
<path d="M16.25 7.71875C16.7321 7.71875 17.2034 7.57579 17.6042 7.30796C18.005 7.04012 18.3175 6.65944 18.502 6.21404C18.6864 5.76865 18.7347 5.27855 18.6407 4.80572C18.5466 4.33289 18.3145 3.89857 17.9736 3.55768C17.6327 3.21679 17.1984 2.98464 16.7255 2.89059C16.2527 2.79654 15.7626 2.84481 15.3172 3.02929C14.8718 3.21378 14.4911 3.5262 14.2233 3.92705C13.9555 4.32789 13.8125 4.79916 13.8125 5.28125C13.8131 5.92752 14.0702 6.54713 14.5271 7.00411C14.9841 7.46109 15.6037 7.71811 16.25 7.71875ZM16.25 3.65625C16.5714 3.65625 16.8856 3.75156 17.1528 3.93011C17.42 4.10867 17.6283 4.36246 17.7513 4.65939C17.8743 4.95632 17.9065 5.28305 17.8438 5.59827C17.7811 5.91349 17.6263 6.20304 17.399 6.4303C17.1718 6.65756 16.8822 6.81233 16.567 6.87503C16.2518 6.93773 15.9251 6.90555 15.6281 6.78256C15.3312 6.65956 15.0774 6.45128 14.8989 6.18405C14.7203 5.91682 14.625 5.60265 14.625 5.28125C14.625 4.85027 14.7962 4.43695 15.101 4.1322C15.4057 3.82746 15.819 3.65625 16.25 3.65625Z" fill="#94A8BF"/>
<path d="M3.36894 7.43164L2.15019 8.65039C2.07403 8.72657 2.03125 8.82989 2.03125 8.93761C2.03125 9.04533 2.07403 9.14865 2.15019 9.22483L3.36894 10.4436L3.94338 9.86914L3.01185 8.93761L3.94338 8.00608L3.36894 7.43164Z" fill="#94A8BF"/>
<path d="M8.00608 7.43164L7.43164 8.00608L8.36317 8.93761L7.43164 9.86914L8.00608 10.4436L9.22483 9.22483C9.30099 9.14865 9.34377 9.04533 9.34377 8.93761C9.34377 8.82989 9.30099 8.72657 9.22483 8.65039L8.00608 7.43164Z" fill="#94A8BF"/>
<path d="M6.13667 7.13071L4.51172 10.3806L5.23844 10.744L6.86339 7.49407L6.13667 7.13071Z" fill="#94A8BF"/>
</g>
<defs>
<clipPath id="clip0_101_5190">
<rect width="26" height="26" fill="white"/>
</clipPath>
</defs>
</svg>
