<svg width="28" height="28" viewBox="0 0 28 28" fill="none" xmlns="http://www.w3.org/2000/svg">
<path d="M17.5 15.7499C17.5 16.0571 17.3389 16.3421 17.0753 16.5002L12.7003 19.1252C12.5619 19.2085 12.4059 19.2499 12.25 19.2499C12.1013 19.2499 11.9526 19.2123 11.8189 19.1363C11.5446 18.9812 11.375 18.6903 11.375 18.3749V13.1249C11.375 12.8096 11.5446 12.5187 11.8189 12.3636C12.0928 12.2081 12.4299 12.2123 12.7003 12.3747L17.0753 14.9997C17.3389 15.1578 17.5 15.4428 17.5 15.7499ZM25.375 13.1249V18.3749C25.375 22.717 21.8421 26.2499 17.5 26.2499H10.5C6.1579 26.2499 2.625 22.717 2.625 18.3749V13.1249C2.625 9.0033 5.86353 6.12494 10.5 6.12494H12.1797L9.81683 3.17139C9.51477 2.79413 9.57587 2.24341 9.95355 1.94178C10.3304 1.64057 10.8811 1.70124 11.1832 2.0785L14 5.59954L16.8168 2.0785C17.1185 1.69996 17.6696 1.641 18.0464 1.94178C18.4241 2.24341 18.4852 2.79413 18.1832 3.17139L15.8203 6.12494H17.5C22.1365 6.12494 25.375 9.0033 25.375 13.1249ZM23.625 13.1249C23.625 9.49848 20.5488 7.87494 17.5 7.87494H10.5C7.45117 7.87494 4.375 9.49848 4.375 13.1249V18.3749C4.375 21.7523 7.12262 24.4999 10.5 24.4999H17.5C20.8774 24.4999 23.625 21.7523 23.625 18.3749V13.1249Z" fill="#94A8BF"/>
</svg>
