<svg width="42" height="42" viewBox="0 0 42 42" fill="none" xmlns="http://www.w3.org/2000/svg">
<g clip-path="url(#clip0_101_5149)">
<path d="M10.5 8.40005C10.5 7.24029 11.4402 6.30005 12.6 6.30005H39.9C41.0598 6.30005 42 7.24029 42 8.40005C42 9.55981 41.0598 10.5 39.9 10.5H12.6C11.4402 10.5 10.5 9.55972 10.5 8.40005ZM39.9 18.9H2.1C0.940242 18.9 0 19.8404 0 21C0 22.1598 0.940242 23.1 2.1 23.1H39.9C41.0598 23.1 42 22.1598 42 21C42 19.8404 41.0598 18.9 39.9 18.9ZM39.9 31.5H21C19.8403 31.5 18.9 32.4403 18.9 33.6C18.9 34.7597 19.8403 35.7001 21 35.7001H39.9C41.0598 35.7001 42 34.7597 42 33.6C42 32.4403 41.0598 31.5 39.9 31.5Z" fill="black"/>
</g>
<defs>
<clipPath id="clip0_101_5149">
<rect width="42" height="42" fill="white"/>
</clipPath>
</defs>
</svg>
