<svg width="26" height="22" viewBox="0 0 26 22" fill="none" xmlns="http://www.w3.org/2000/svg">
<path d="M23.6786 14.7142H22.75V12.3928C22.75 11.116 21.7054 10.0714 20.4286 10.0714H13.4643V7.28564H14.3929C15.6696 7.28564 16.7143 6.241 16.7143 4.96422V3.10707C16.7143 1.83029 15.6696 0.785645 14.3929 0.785645H11.6071C10.3304 0.785645 9.28571 1.83029 9.28571 3.10707V4.96422C9.28571 6.241 10.3304 7.28564 11.6071 7.28564H12.5357V10.0714H5.57143C4.29464 10.0714 3.25 11.116 3.25 12.3928V14.7142H2.32143C1.04464 14.7142 0 15.7589 0 17.0356V18.8928C0 20.1696 1.04464 21.2142 2.32143 21.2142H5.10714C6.38393 21.2142 7.42857 20.1696 7.42857 18.8928V17.0356C7.42857 15.7589 6.38393 14.7142 5.10714 14.7142H4.17857V12.3928C4.17857 11.6267 4.80536 10.9999 5.57143 10.9999H12.5357V14.7142H11.6071C10.3304 14.7142 9.28571 15.7589 9.28571 17.0356V18.8928C9.28571 20.1696 10.3304 21.2142 11.6071 21.2142H14.3929C15.6696 21.2142 16.7143 20.1696 16.7143 18.8928V17.0356C16.7143 15.7589 15.6696 14.7142 14.3929 14.7142H13.4643V10.9999H20.4286C21.1946 10.9999 21.8214 11.6267 21.8214 12.3928V14.7142H20.8929C19.6161 14.7142 18.5714 15.7589 18.5714 17.0356V18.8928C18.5714 20.1696 19.6161 21.2142 20.8929 21.2142H23.6786C24.9554 21.2142 26 20.1696 26 18.8928V17.0356C26 15.7589 24.9554 14.7142 23.6786 14.7142ZM5.10714 15.6428C5.87321 15.6428 6.5 16.2696 6.5 17.0356V18.8928C6.5 19.6589 5.87321 20.2856 5.10714 20.2856H2.32143C1.55536 20.2856 0.928571 19.6589 0.928571 18.8928V17.0356C0.928571 16.2696 1.55536 15.6428 2.32143 15.6428H5.10714ZM14.3929 15.6428C15.1589 15.6428 15.7857 16.2696 15.7857 17.0356V18.8928C15.7857 19.6589 15.1589 20.2856 14.3929 20.2856H11.6071C10.8411 20.2856 10.2143 19.6589 10.2143 18.8928V17.0356C10.2143 16.2696 10.8411 15.6428 11.6071 15.6428H14.3929ZM11.6071 6.35707C10.8411 6.35707 10.2143 5.73029 10.2143 4.96422V3.10707C10.2143 2.341 10.8411 1.71422 11.6071 1.71422H14.3929C15.1589 1.71422 15.7857 2.341 15.7857 3.10707V4.96422C15.7857 5.73029 15.1589 6.35707 14.3929 6.35707H11.6071ZM25.0714 18.8928C25.0714 19.6589 24.4446 20.2856 23.6786 20.2856H20.8929C20.1268 20.2856 19.5 19.6589 19.5 18.8928V17.0356C19.5 16.2696 20.1268 15.6428 20.8929 15.6428H23.6786C24.4446 15.6428 25.0714 16.2696 25.0714 17.0356V18.8928Z" fill="white"/>
</svg>
