<svg width="36" height="41" viewBox="0 0 36 41" fill="none" xmlns="http://www.w3.org/2000/svg">
<path d="M28.9548 27.8557H7.04671V30.5188H28.9548V27.8557ZM27.8988 14.7682L28.5111 20.1733L31.1574 19.8736L30.545 14.4684L27.8988 14.7682ZM7.49029 20.1733L8.10259 14.7682L5.4564 14.4684L4.84412 19.8736L7.49029 20.1733ZM5.62091 24.5103C6.65892 23.2885 7.30877 21.7758 7.49029 20.1733L4.84412 19.8736C4.72135 20.9573 4.28251 21.9725 3.59139 22.7858L5.62091 24.5103ZM28.5111 20.1733C28.6927 21.7758 29.3425 23.2885 30.3804 24.5103L32.4101 22.7858C31.7189 21.9725 31.28 20.9573 31.1574 19.8736L28.5111 20.1733ZM7.04671 27.8557C5.47228 27.8557 4.47081 25.8639 5.62091 24.5103L3.59139 22.7858C1.07206 25.7513 3.04874 30.5188 7.04671 30.5188V27.8557ZM28.9548 30.5188C32.9527 30.5188 34.9294 25.7513 32.4101 22.7858L30.3804 24.5103C31.5306 25.8639 30.5292 27.8557 28.9548 27.8557V30.5188ZM30.545 14.4684C29.8079 7.96178 24.4417 3 18.0007 3V5.66311C23.0255 5.66311 27.3072 9.54589 27.8988 14.7682L30.545 14.4684ZM8.10259 14.7682C8.69418 9.54589 12.9759 5.66311 18.0007 5.66311V3C11.5598 3 6.19348 7.96178 5.4564 14.4684L8.10259 14.7682Z" fill="#94A8BF"/>
<path d="M24.574 33.2052C24.8321 32.5166 24.4831 31.7492 23.7944 31.4911C23.1057 31.2329 22.3384 31.582 22.0803 32.2707L24.574 33.2052ZM13.9216 32.2707C13.6635 31.582 12.896 31.2329 12.2074 31.4911C11.5188 31.7492 11.1697 32.5166 11.4278 33.2052L13.9216 32.2707ZM22.0803 32.2707C21.5073 33.7995 19.9265 34.9572 18.0009 34.9572V37.6203C20.9934 37.6203 23.5963 35.8138 24.574 33.2052L22.0803 32.2707ZM18.0009 34.9572C16.0753 34.9572 14.4945 33.7995 13.9216 32.2707L11.4278 33.2052C12.4054 35.8138 15.0085 37.6203 18.0009 37.6203V34.9572Z" fill="#94A8BF"/>
</svg>
