<svg width="20" height="26" viewBox="0 0 20 26" fill="none" xmlns="http://www.w3.org/2000/svg">
<g clip-path="url(#clip0_576_1043)">
<path d="M9.99678 0.764648C6.17325 0.764648 3.11443 3.82347 3.11443 7.647V10.7058C1.81443 10.7058 0.820312 11.6999 0.820312 12.9999V22.9411C0.820312 24.2411 1.81443 25.2352 3.11443 25.2352H16.8792C18.1792 25.2352 19.1733 24.2411 19.1733 22.9411V12.9999C19.1733 11.6999 18.1792 10.7058 16.8792 10.7058V7.647C16.8792 3.82347 13.8203 0.764648 9.99678 0.764648ZM17.6439 12.9999V22.9411C17.6439 23.3999 17.338 23.7058 16.8792 23.7058H3.11443C2.65561 23.7058 2.34972 23.3999 2.34972 22.9411V12.9999C2.34972 12.5411 2.65561 12.2352 3.11443 12.2352H3.87914H16.1145H16.8792C17.338 12.2352 17.6439 12.5411 17.6439 12.9999ZM4.64384 10.7058V7.647C4.64384 4.66465 7.01443 2.29406 9.99678 2.29406C12.9792 2.29406 15.3498 4.66465 15.3498 7.647V10.7058H4.64384Z" fill="#8F9EBA"/>
<path d="M9.99728 14.5293C8.69725 14.5293 7.70312 15.5234 7.70312 16.8234C7.70312 17.8175 8.31489 18.6587 9.23254 18.9646V20.6469C9.23254 21.1058 9.53843 21.4116 9.99728 21.4116C10.4561 21.4116 10.762 21.1058 10.762 20.6469V18.9646C11.6796 18.6587 12.2914 17.8175 12.2914 16.8234C12.2914 15.5234 11.2973 14.5293 9.99728 14.5293ZM9.99728 17.5881C9.53843 17.5881 9.23254 17.2822 9.23254 16.8234C9.23254 16.3646 9.53843 16.0587 9.99728 16.0587C10.4561 16.0587 10.762 16.3646 10.762 16.8234C10.762 17.2822 10.4561 17.5881 9.99728 17.5881Z" fill="#8F9EBA"/>
</g>
<defs>
<clipPath id="clip0_576_1043">
<rect width="20" height="26" fill="white"/>
</clipPath>
</defs>
</svg>
