<svg width="26" height="26" viewBox="0 0 26 26" fill="none" xmlns="http://www.w3.org/2000/svg">
<g clip-path="url(#clip0_101_5197)">
<path d="M11.6689 22.4631L10.9783 22.4636L10.8849 18.7545C10.8488 17.3387 10.2989 16.1403 9.25023 15.1922C8.04977 14.1055 6.8493 13.0183 5.64781 11.9326C5.29031 11.6076 4.815 11.4522 4.34324 11.4862L4.24066 7.38357C4.22898 6.9174 4.03551 6.48271 3.69578 6.16025C3.35605 5.83779 2.91324 5.66666 2.44707 5.67834C1.48172 5.70271 0.715937 6.5076 0.740312 7.47193L0.964765 16.3754C0.992187 17.4327 1.40301 18.3274 2.18504 19.0353L3.5023 20.2272C4.11473 20.7812 4.43566 21.4799 4.45547 22.3041L4.45953 22.4707L3.80039 22.4712C3.38348 22.4712 3.04477 22.8109 3.04477 23.2288L3.04629 25.2438C3.04629 25.6613 3.38602 26.001 3.80395 26.001L11.6735 25.9924C12.0909 25.9924 12.4302 25.6526 12.4302 25.2347L12.4271 23.2202C12.4261 22.8023 12.0869 22.4631 11.6689 22.4631ZM4.04617 19.6244L2.72891 18.4326C2.11801 17.8796 1.79707 17.1803 1.77574 16.3541L1.55129 7.45111C1.5452 7.20178 1.63711 6.96412 1.81078 6.78232C1.98445 6.60002 2.21754 6.49592 2.46738 6.48982C2.7157 6.48424 2.95387 6.57564 3.13617 6.74881C3.31848 6.92197 3.42258 7.15506 3.42867 7.40439L3.53734 11.7513C3.40227 11.8366 3.27988 11.9397 3.17527 12.056C2.86246 12.4003 2.70301 12.8476 2.72586 13.3153C2.74871 13.784 2.95234 14.2152 3.29816 14.5285L6.3557 17.2966C6.4334 17.3672 6.5309 17.4017 6.62789 17.4017C6.73859 17.4017 6.84879 17.3565 6.92902 17.2681C7.07934 17.1021 7.06664 16.8451 6.90059 16.6948L3.84305 13.9267C3.6577 13.7592 3.54902 13.5276 3.53633 13.2757C3.52414 13.0249 3.60895 12.7857 3.77754 12.5998C3.86844 12.4988 3.97914 12.4201 4.1066 12.3667C4.10812 12.3662 4.10965 12.3652 4.11168 12.3642C4.44887 12.2271 4.83633 12.2936 5.10191 12.5348C6.30391 13.6215 7.50437 14.7083 8.70484 15.795C9.58234 16.5882 10.0424 17.5916 10.0729 18.7758L10.1658 22.4651L5.27051 22.4697L5.26594 22.2838C5.24055 21.2281 4.82973 20.3338 4.04617 19.6244ZM3.85727 25.188L3.85574 23.2822L4.85512 23.2812C4.86172 23.2817 4.86781 23.2822 4.87441 23.2822H4.88457C4.88863 23.2822 4.89219 23.2817 4.89625 23.2812L11.6141 23.2751L11.6166 25.1794L3.85727 25.188ZM23.5538 5.67732C23.0881 5.66615 22.6448 5.83678 22.3051 6.15924C21.9654 6.48221 21.7719 6.91639 21.7602 7.38256L21.6561 11.4852C21.1854 11.4512 20.71 11.6071 20.3536 11.931C19.7467 12.4795 19.1404 13.0279 18.5341 13.5769C17.9394 14.1151 17.3443 14.6534 16.7486 15.1917C15.6995 16.1418 15.15 17.3408 15.1155 18.754L15.022 22.4631L14.3309 22.4626C13.9135 22.4626 13.5737 22.8018 13.5737 23.2177L13.5707 25.2337C13.5707 25.6511 13.9099 25.9908 14.3273 25.9908L22.1974 26C22.6148 26 22.9546 25.6603 22.9546 25.2433L22.9561 23.2278C22.9561 22.8104 22.6169 22.4707 22.201 22.4707L21.5413 22.4702L21.5454 22.3036C21.5657 21.4794 21.8861 20.7807 22.4986 20.2267L23.8158 19.0343C24.5979 18.3254 25.0082 17.4306 25.0356 16.3744L25.26 7.47143C25.2849 6.50658 24.5191 5.7017 23.5538 5.67732ZM22.1441 23.2822L22.1426 25.188L14.3827 25.1794L14.3852 23.2751L21.1031 23.2812C21.1071 23.2812 21.1107 23.2822 21.1148 23.2822H21.1249C21.1315 23.2822 21.1381 23.2817 21.1442 23.2812L22.1441 23.2822ZM24.2241 16.3536C24.2028 17.1788 23.8818 17.8785 23.2709 18.4326L21.9537 19.6244C21.1701 20.3338 20.7593 21.2281 20.7334 22.2833L20.7288 22.4692L15.8335 22.4646L15.9264 18.7753C15.9554 17.5926 16.415 16.5897 17.293 15.7945C17.8881 15.2562 18.4833 14.7179 19.0784 14.1796C19.6848 13.6312 20.2911 13.0828 20.8984 12.5333C21.165 12.2911 21.555 12.2256 21.8927 12.3657C22.0202 12.419 22.1309 12.4972 22.2238 12.6008C22.3904 12.7847 22.4757 13.0238 22.4635 13.2747C22.4513 13.5266 22.3421 13.7581 22.1568 13.9257L19.0993 16.6938C18.9332 16.8441 18.9205 17.1011 19.0708 17.2671C19.1511 17.3555 19.2613 17.4007 19.372 17.4007C19.4689 17.4007 19.5664 17.3662 19.6441 17.2956L22.7017 14.5275C23.048 14.2142 23.2511 13.783 23.274 13.3143C23.2968 12.8466 23.1374 12.3992 22.8266 12.057C22.7205 11.9387 22.5971 11.8346 22.4615 11.7492L22.5717 7.40338C22.5778 7.15404 22.6819 6.92147 22.8642 6.74779C23.0465 6.57463 23.2841 6.48271 23.533 6.48881C23.7828 6.4949 24.0159 6.599 24.1896 6.78131C24.3632 6.96361 24.4552 7.20127 24.4491 7.4501L24.2241 16.3536ZM12.5932 2.65025V0.40623C12.5932 0.181777 12.775 0.000488281 12.9989 0.000488281C13.2229 0.000488281 13.4046 0.182285 13.4046 0.40623V2.65025C13.4046 2.87471 13.2229 3.056 12.9989 3.056C12.775 3.056 12.5932 2.8742 12.5932 2.65025ZM15.5466 3.22307L16.6694 1.27967C16.7816 1.08568 17.0299 1.01916 17.2239 1.13139C17.4179 1.24361 17.4844 1.49193 17.3722 1.68592L16.2499 3.62932C16.1748 3.75932 16.0382 3.83244 15.898 3.83244C15.8289 3.83244 15.7594 3.81467 15.6954 3.77811C15.5009 3.66537 15.4349 3.41705 15.5466 3.22307ZM8.62715 1.68592C8.51492 1.49193 8.58145 1.24361 8.77594 1.13139C8.96992 1.01916 9.21824 1.08568 9.33047 1.28018L10.4517 3.22357C10.5639 3.41756 10.4974 3.66588 10.3029 3.77811C10.2389 3.81518 10.1694 3.83244 10.1003 3.83244C9.96016 3.83244 9.82355 3.75982 9.7484 3.62932L8.62715 1.68592ZM5.75852 11.3862H9.8266V11.5014C9.8266 11.8965 10.1491 12.2185 10.5446 12.2185H15.4547C15.8498 12.2185 16.1717 11.897 16.1717 11.5014V11.3862H20.2413C20.6364 11.3862 20.9584 11.0647 20.9584 10.6691V9.69158C20.9584 8.71252 20.4267 7.83807 19.5934 7.38053C19.7295 7.10885 19.8066 6.80264 19.8066 6.47916C19.8066 5.36553 18.9002 4.45959 17.7855 4.45959C16.6719 4.45959 15.766 5.36553 15.766 6.47916C15.766 6.80365 15.8437 7.11037 15.9803 7.38256C15.5766 7.6065 15.2368 7.93303 14.9971 8.3276C14.9357 8.28697 14.8722 8.24838 14.8072 8.21283C14.9433 7.94115 15.0205 7.63494 15.0205 7.31146C15.0205 6.19783 14.1141 5.29189 12.9994 5.29189C11.8858 5.29189 10.9798 6.19783 10.9798 7.31146C10.9798 7.63545 11.057 7.94115 11.1931 8.21283C11.1281 8.24838 11.0646 8.28697 11.0032 8.3276C10.7635 7.93303 10.4238 7.60701 10.0201 7.38307C10.1567 7.11088 10.2344 6.80416 10.2344 6.47967C10.2344 5.36603 9.32793 4.4601 8.21328 4.4601C7.09965 4.4601 6.19371 5.36603 6.19371 6.47967C6.19371 6.80365 6.2709 7.10936 6.40699 7.38104C5.57367 7.83857 5.0425 8.71303 5.0425 9.6926V10.6701C5.04199 11.0647 5.36344 11.3862 5.75852 11.3862ZM17.7855 5.27158C18.4523 5.27158 18.9946 5.81342 18.9946 6.47916C18.9946 7.1449 18.4523 7.68674 17.7855 7.68674C17.1198 7.68674 16.578 7.1449 16.578 6.47916C16.578 5.81342 17.1193 5.27158 17.7855 5.27158ZM16.4942 8.03053C16.8446 8.32252 17.2945 8.49873 17.7855 8.49873C18.2766 8.49873 18.727 8.32252 19.0774 8.03053C19.7162 8.32607 20.1459 8.97963 20.1459 9.69209V10.5747H16.1717V10.5244C16.1717 9.91604 15.9661 9.34779 15.6101 8.89482C15.7964 8.51397 16.1103 8.20725 16.4942 8.03053ZM12.9994 6.10338C13.6662 6.10338 14.2085 6.64522 14.2085 7.31096C14.2085 7.9767 13.6662 8.51854 12.9994 8.51854C12.3337 8.51854 11.7918 7.9767 11.7918 7.31096C11.7918 6.64522 12.3332 6.10338 12.9994 6.10338ZM10.6386 10.5239C10.6386 9.81143 11.0687 9.15838 11.708 8.86283C12.0584 9.15482 12.5084 9.33104 12.9989 9.33104C13.49 9.33104 13.9404 9.15482 14.2908 8.86283C14.9296 9.15838 15.3592 9.81193 15.3592 10.5244V11.407H10.6386V10.5239ZM8.21277 5.27158C8.87953 5.27158 9.42187 5.81342 9.42187 6.47916C9.42187 7.1449 8.87953 7.68674 8.21277 7.68674C7.54703 7.68674 7.00519 7.1449 7.00519 6.47916C7.00519 5.81342 7.54703 5.27158 8.21277 5.27158ZM5.85348 9.69209C5.85348 8.97963 6.28309 8.32658 6.92191 8.03104C7.2723 8.32303 7.72223 8.49873 8.21277 8.49873C8.70383 8.49873 9.15426 8.32252 9.50516 8.03053C9.88957 8.20725 10.2029 8.51346 10.3893 8.8933C10.0328 9.34627 9.8266 9.91502 9.8266 10.5239V10.5742H5.85348V9.69209Z" fill="#94A8BF"/>
</g>
<defs>
<clipPath id="clip0_101_5197">
<rect width="26" height="26" fill="white"/>
</clipPath>
</defs>
</svg>
