<svg width="26" height="26" viewBox="0 0 26 26" fill="none" xmlns="http://www.w3.org/2000/svg">
<g clip-path="url(#clip0_101_5208)">
<path d="M22.75 14.1782V13.3657C22.9742 13.3657 23.1563 13.1839 23.1563 12.9595V10.522C23.1563 10.2976 22.9742 10.1157 22.75 10.1157H20.5563L20.4775 9.81056C20.2979 9.11263 20.0189 8.44407 19.6487 7.82565L19.4862 7.55381L21.0438 5.99355C21.2005 5.83645 21.2005 5.58191 21.0438 5.4248L19.3185 3.69697C19.1591 3.54511 18.9089 3.54511 18.7495 3.69697L17.1891 5.25739L16.9175 5.09489C16.2981 4.7245 15.6289 4.44552 14.93 4.26572L14.625 4.18638V1.99072C14.625 1.76633 14.4431 1.58447 14.2188 1.58447H11.7813C11.5569 1.58447 11.375 1.76633 11.375 1.99072V4.18447L11.0698 4.26334C10.3719 4.44282 9.70335 4.7218 9.08461 5.09155L8.81277 5.25421L7.25283 3.69697C7.09335 3.54384 6.8415 3.54384 6.68202 3.69697L4.95625 5.42227C4.8804 5.49796 4.83771 5.60079 4.83771 5.70791C4.83771 5.81519 4.8804 5.91786 4.95625 5.99355L6.51666 7.55381L6.35416 7.82565C5.98409 8.44407 5.70496 9.11263 5.52548 9.81056L5.44581 10.1157H3.25C3.02561 10.1157 2.84375 10.2976 2.84375 10.522V12.9595C2.84375 13.1839 3.02561 13.3657 3.25 13.3657V14.1782C2.57699 14.1782 2.03125 13.6325 2.03125 12.9595V10.522C2.03125 9.84896 2.57699 9.30322 3.25 9.30322H4.82184C4.98942 8.74146 5.21603 8.19905 5.49786 7.68521L4.38068 6.56802C4.15216 6.33998 4.02378 6.03053 4.02378 5.70791C4.02378 5.38529 4.15216 5.07584 4.38068 4.84796L6.10724 3.1214C6.58823 2.66104 7.34662 2.66104 7.82761 3.1214L8.94448 4.23811C9.45833 3.95643 10.0009 3.7303 10.5625 3.56288V1.99072C10.5625 1.31771 11.1082 0.771973 11.7813 0.771973H14.2188C14.8918 0.771973 15.4375 1.31771 15.4375 1.99072V3.56288C15.9993 3.7303 16.5415 3.95691 17.0555 4.23859L18.1727 3.1214C18.6539 2.66104 19.4121 2.66104 19.8932 3.1214L21.6195 4.84749C21.8478 5.07553 21.9761 5.38466 21.9761 5.70743C21.9761 6.03021 21.8478 6.33966 21.6195 6.56754L20.5023 7.68473C20.784 8.19889 21.0104 8.74146 21.1782 9.30322H22.75C23.423 9.30322 23.9688 9.84896 23.9688 10.522V12.9595C23.9688 13.6325 23.423 14.1782 22.75 14.1782Z" fill="#94A8BF"/>
<path d="M18.6875 11.7407H17.875C17.875 9.04836 15.6924 6.86572 13 6.86572C10.3076 6.86572 8.125 9.04836 8.125 11.7407H7.3125C7.3125 8.59959 9.85886 6.05322 13 6.05322C16.141 6.05322 18.6875 8.59959 18.6875 11.7407Z" fill="#94A8BF"/>
<path d="M13 14.9907C11.6538 14.9907 10.5625 13.8992 10.5625 12.5532C10.5625 11.207 11.6538 10.1157 13 10.1157C14.3463 10.1157 15.4375 11.207 15.4375 12.5532C15.4361 13.8989 14.3457 14.9893 13 14.9907ZM13 10.9282C12.1026 10.9282 11.375 11.6558 11.375 12.5532C11.375 13.4506 12.1026 14.1782 13 14.1782C13.8974 14.1782 14.625 13.4506 14.625 12.5532C14.625 11.6558 13.8974 10.9282 13 10.9282Z" fill="#94A8BF"/>
<path d="M19.9063 16.6157C18.5601 16.6157 17.4688 15.5242 17.4688 14.1782C17.4688 12.832 18.5601 11.7407 19.9063 11.7407C21.2524 11.7407 22.3438 12.832 22.3438 14.1782C22.3423 15.5239 21.252 16.6143 19.9063 16.6157ZM19.9063 12.5532C19.0089 12.5532 18.2813 13.2808 18.2813 14.1782C18.2813 15.0756 19.0089 15.8032 19.9063 15.8032C20.8037 15.8032 21.5313 15.0756 21.5313 14.1782C21.5313 13.2808 20.8037 12.5532 19.9063 12.5532Z" fill="#94A8BF"/>
<path d="M6.09375 16.6157C4.74757 16.6157 3.65625 15.5242 3.65625 14.1782C3.65625 12.832 4.74757 11.7407 6.09375 11.7407C7.44009 11.7407 8.53125 12.832 8.53125 14.1782C8.52982 15.5239 7.43945 16.6143 6.09375 16.6157ZM6.09375 12.5532C5.19635 12.5532 4.46875 13.2808 4.46875 14.1782C4.46875 15.0756 5.19635 15.8032 6.09375 15.8032C6.99115 15.8032 7.71875 15.0756 7.71875 14.1782C7.71875 13.2808 6.99115 12.5532 6.09375 12.5532Z" fill="#94A8BF"/>
<path d="M23.5892 17.658C22.9838 17.2419 22.266 17.0199 21.5313 17.022H18.2813C18.0837 17.0237 17.8864 17.0417 17.6917 17.0755C17.4318 16.6689 17.0936 16.3182 16.6969 16.0432C16.6374 15.9983 16.5748 15.9575 16.5096 15.9215C15.9413 15.5773 15.2893 15.396 14.625 15.397H11.375C10.1326 15.3926 8.97495 16.0265 8.3094 17.0755C8.11421 17.0417 7.91664 17.0237 7.71875 17.022H4.46875C3.73464 17.0199 3.01704 17.2416 2.41195 17.6572C1.41188 18.3377 0.813135 19.4687 0.8125 20.6782V22.3032C0.813928 23.4125 1.45933 24.4199 2.46686 24.8845C2.83883 25.0597 3.24524 25.1494 3.65625 25.147H7.71875V24.3345H4.0625V19.8657H3.25V24.2937C3.09702 24.2631 2.94849 24.2136 2.80757 24.1468C2.0879 23.8149 1.62659 23.0956 1.625 22.3032V20.6782C1.62595 19.7369 2.09235 18.8569 2.87057 18.3276C3.34077 18.0048 3.89825 17.8329 4.46875 17.8345H7.71875C7.79032 17.8345 7.85935 17.8421 7.92918 17.8469C7.79175 18.2344 7.7205 18.6422 7.71875 19.0532V23.1157C7.72018 24.2371 8.62885 25.1456 9.75 25.147H10.9688V18.647H10.1563V24.3345H9.75C9.07699 24.3345 8.53125 23.7888 8.53125 23.1157V19.0532C8.53125 17.4825 9.80459 16.2095 11.375 16.2095H14.625C15.1477 16.2098 15.66 16.3545 16.1058 16.6275C16.147 16.65 16.1867 16.6754 16.2243 16.7033C16.605 16.9641 16.9175 17.3124 17.1352 17.719C17.354 18.1297 17.4688 18.5878 17.4688 19.0532V23.1157C17.4688 23.7888 16.923 24.3345 16.25 24.3345H15.8438V18.647H15.0313V25.147H16.25C17.3713 25.1456 18.2798 24.2371 18.2813 23.1157V19.0532C18.2793 18.6422 18.2084 18.2346 18.0711 17.8469C18.1411 17.8421 18.2102 17.8345 18.2813 17.8345H21.5313C22.1021 17.8329 22.66 18.0052 23.1305 18.3283C23.9081 18.8581 24.3739 19.7374 24.375 20.6782V22.3032C24.3736 23.0984 23.9088 23.8199 23.1856 24.1499C23.0468 24.2156 22.9004 24.2639 22.75 24.2937V19.8657H21.9375V24.3345H18.2813V25.147H22.3438C22.7524 25.1495 23.1564 25.061 23.5263 24.8877C24.5372 24.4245 25.1859 23.4152 25.1875 22.3032V20.6782C25.1869 19.4692 24.5886 18.3387 23.5892 17.658Z" fill="#94A8BF"/>
<path d="M11.375 24.3345H14.625V25.147H11.375V24.3345Z" fill="#94A8BF"/>
</g>
<defs>
<clipPath id="clip0_101_5208">
<rect width="26" height="26" fill="white"/>
</clipPath>
</defs>
</svg>
