<svg width="27" height="27" viewBox="0 0 27 27" fill="none" xmlns="http://www.w3.org/2000/svg">
<mask id="mask0_62_184" style="mask-type:luminance" maskUnits="userSpaceOnUse" x="0" y="0" width="27" height="27">
<path d="M26.0835 26.0833V1.58334H1.5835V26.0833H26.0835Z" fill="white" stroke="white" stroke-width="1.5"/>
</mask>
<g mask="url(#mask0_62_184)">
<path d="M16.2812 4.35153C17.179 4.58325 18.0272 4.93897 18.8059 5.39956C18.8059 5.39956 19.1812 5.02423 19.6026 4.6028C19.9086 4.29649 20.3238 4.12469 20.7567 4.12469C21.1891 4.12469 21.6044 4.29649 21.9104 4.6028C22.2816 4.97406 22.6928 5.38524 23.064 5.7565C23.3704 6.06246 23.5421 6.47775 23.5421 6.91015C23.5421 7.34301 23.3704 7.75825 23.064 8.0642C22.6426 8.48564 22.2673 8.86091 22.2673 8.86091C22.7278 9.63969 23.0836 10.4878 23.3153 11.3857H24.44C25.3411 11.3857 26.0718 12.1163 26.0718 13.0175V14.6493C26.0718 15.5504 25.3411 16.281 24.44 16.281H23.3153C23.0836 17.1789 22.7278 18.027 22.2673 18.8058C22.2673 18.8058 22.6426 19.1811 23.064 19.6025C23.3704 19.9085 23.5421 20.3237 23.5421 20.7566C23.5421 21.189 23.3704 21.6043 23.064 21.9102C22.6928 22.2814 22.2816 22.6927 21.9104 23.0639C21.6044 23.3702 21.1891 23.542 20.7567 23.542C20.3238 23.542 19.9086 23.3702 19.6026 23.0639C19.1812 22.6424 18.8059 22.2672 18.8059 22.2672C18.0272 22.7277 17.179 23.0835 16.2812 23.3151V24.4398C16.2812 25.341 15.5505 26.0716 14.6493 26.0716H13.0176C12.1164 26.0716 11.3858 25.341 11.3858 24.4398V23.3151C10.488 23.0835 9.63983 22.7277 8.86105 22.2672C8.86105 22.2672 8.48577 22.6424 8.06434 23.0639C7.75838 23.3702 7.34309 23.542 6.91029 23.542C6.47788 23.542 6.06254 23.3702 5.75664 23.0639C5.38543 22.6927 4.9742 22.2814 4.60294 21.9102C4.29663 21.6043 4.12483 21.189 4.12483 20.7566C4.12483 20.3237 4.29663 19.9085 4.60294 19.6025C5.02437 19.1811 5.3997 18.8058 5.3997 18.8058C4.93911 18.027 4.58344 17.1789 4.35167 16.281H3.22702C2.32586 16.281 1.59521 15.5504 1.59521 14.6493V13.0175C1.59521 12.1163 2.32586 11.3857 3.22702 11.3857H4.35167C4.58344 10.4878 4.93911 9.63969 5.3997 8.86091C5.3997 8.86091 5.02437 8.48564 4.60294 8.0642C4.29663 7.75825 4.12483 7.34301 4.12483 6.91015C4.12483 6.47775 4.29663 6.06246 4.60294 5.7565C4.9742 5.38524 5.38543 4.97406 5.75664 4.6028C6.06254 4.29649 6.47788 4.12469 6.91029 4.12469C7.34309 4.12469 7.75838 4.29649 8.06434 4.6028C8.48577 5.02423 8.86105 5.39956 8.86105 5.39956C9.63983 4.93897 10.488 4.58325 11.3858 4.35153V3.22683C11.3858 2.32567 12.1164 1.59508 13.0176 1.59508H14.6493C15.5505 1.59508 16.2812 2.32567 16.2812 3.22683V4.35153Z" stroke="#94A8BF" stroke-width="1.5" stroke-miterlimit="10" stroke-linecap="round" stroke-linejoin="round"/>
<path d="M13.8333 8.93804C16.5351 8.93804 18.7286 11.1315 18.7286 13.8334C18.7286 16.5351 16.5351 18.7287 13.8333 18.7287C11.1315 18.7287 8.93799 16.5351 8.93799 13.8334C8.93799 11.1315 11.1315 8.93804 13.8333 8.93804Z" stroke="#94A8BF" stroke-width="1.5" stroke-miterlimit="10" stroke-linecap="round" stroke-linejoin="round"/>
</g>
</svg>
