<svg width="24" height="24" viewBox="0 0 24 24" fill="none" xmlns="http://www.w3.org/2000/svg">
<path d="M20.75 21.625H12C11.7679 21.625 11.5454 21.7172 11.3813 21.8813C11.2172 22.0454 11.125 22.2679 11.125 22.5C11.125 22.7321 11.2172 22.9546 11.3813 23.1187C11.5454 23.2828 11.7679 23.375 12 23.375H20.75C21.4462 23.375 22.1139 23.0984 22.6062 22.6062C23.0984 22.1139 23.375 21.4462 23.375 20.75V3.25C23.375 2.55381 23.0984 1.88613 22.6062 1.39384C22.1139 0.901562 21.4462 0.625 20.75 0.625H3.25C2.55381 0.625 1.88613 0.901562 1.39384 1.39384C0.901562 1.88613 0.625 2.55381 0.625 3.25V4.125C0.625 4.35706 0.717187 4.57962 0.881282 4.74372C1.04538 4.90781 1.26794 5 1.5 5C1.73206 5 1.95462 4.90781 2.11872 4.74372C2.28281 4.57962 2.375 4.35706 2.375 4.125V3.25C2.375 3.01794 2.46719 2.79538 2.63128 2.63128C2.79538 2.46719 3.01794 2.375 3.25 2.375H20.75C20.9821 2.375 21.2046 2.46719 21.3687 2.63128C21.5328 2.79538 21.625 3.01794 21.625 3.25V6.75H1.5C1.26794 6.75 1.04538 6.84219 0.881282 7.00628C0.717187 7.17038 0.625 7.39294 0.625 7.625V20.75C0.625 21.4462 0.901562 22.1139 1.39384 22.6062C1.88613 23.0984 2.55381 23.375 3.25 23.375H8.5C8.73206 23.375 8.95462 23.2828 9.11872 23.1187C9.28281 22.9546 9.375 22.7321 9.375 22.5V8.5H21.625V20.75C21.625 20.9821 21.5328 21.2046 21.3687 21.3687C21.2046 21.5328 20.9821 21.625 20.75 21.625ZM7.625 21.625H3.25C3.01794 21.625 2.79538 21.5328 2.63128 21.3687C2.46719 21.2046 2.375 20.9821 2.375 20.75V8.5H7.625V21.625Z" fill="white"/>
</svg>
