<svg width="128" height="128" viewBox="0 0 128 128" fill="none" xmlns="http://www.w3.org/2000/svg">
<path fill-rule="evenodd" clip-rule="evenodd" d="M39.0843 73.9414C42.1349 73.9414 44.7497 73.9414 47.5823 73.9414C50.1971 73.9414 53.0298 73.9414 55.6446 73.9414C58.4773 73.9414 61.0921 73.9414 63.9248 73.9414C63.9248 74.8164 63.9248 75.6914 63.9248 76.5664C63.489 76.5664 63.2711 76.7852 62.8353 76.7852C54.3372 76.7852 45.8392 76.7852 37.3411 76.7852C36.9053 76.7852 36.6874 76.7852 36.2516 76.5664C36.0337 74.8164 35.8158 66.9414 36.2516 64.3164C37.1232 64.0977 37.9948 64.0977 38.8664 64.3164C39.0843 67.3789 38.6485 70.6602 39.0843 73.9414Z" fill="white" fill-opacity="0.07"/>
<path fill-rule="evenodd" clip-rule="evenodd" d="M76.3446 91.8789C74.6014 92.0977 67.1929 92.0977 64.3602 91.8789C63.7065 91.2227 64.1423 90.3477 64.1423 89.4727C64.5781 89.4727 65.0139 89.2539 65.4497 89.2539C67.4108 89.2539 69.5898 89.2539 71.5509 89.2539C72.2046 89.2539 72.8583 89.2539 73.512 89.2539C74.1656 88.5977 73.9477 87.7227 73.9477 87.0664C73.9477 80.2852 73.9477 73.5039 73.9477 66.7227C73.9477 65.8477 73.9477 65.1914 73.9477 64.3164C74.8193 63.8789 75.6909 64.0977 76.3446 64.0977C76.5625 66.0664 76.7804 89.2539 76.3446 91.8789Z" fill="white" fill-opacity="0.07"/>
<path fill-rule="evenodd" clip-rule="evenodd" d="M54.1226 64.0972C53.251 64.0972 52.5973 64.0972 51.7257 64.0972C51.7257 63.6597 51.5078 63.441 51.5078 63.0035C51.5078 54.4722 51.5078 45.941 51.5078 37.4097C51.5078 37.191 51.5078 36.7535 51.7257 36.5347C53.6868 35.8785 55.8658 36.0972 57.8269 36.0972C59.788 36.0972 61.7491 35.8785 63.928 36.0972C63.928 36.5347 64.1459 36.7535 64.1459 37.191C64.1459 37.6285 64.1459 38.066 64.1459 38.5035C63.0564 38.941 61.967 38.7222 60.8775 38.7222C59.788 38.7222 58.6985 38.7222 57.8269 38.7222C56.7374 38.7222 55.6479 38.7222 54.7763 38.7222C53.9047 39.5972 54.1226 40.4722 54.1226 41.1285C54.1226 47.9097 54.1226 54.691 54.1226 61.691C54.1226 62.3472 54.1226 63.0035 54.1226 64.0972Z" fill="white" fill-opacity="0.07"/>
<path fill-rule="evenodd" clip-rule="evenodd" d="M64.1445 54.2539C64.1445 53.1602 64.1445 52.5039 64.1445 51.6289C66.5414 51.4102 68.7204 51.6289 71.1173 51.4102C73.5142 51.4102 75.6932 51.4102 78.0901 51.4102C80.269 51.4102 82.6659 51.4102 84.8449 51.4102C87.2418 51.4102 89.4208 51.4102 91.5998 51.4102C92.0356 53.1602 92.0356 59.7227 91.8177 63.6602C90.9461 64.0977 90.9461 64.0977 89.4208 63.8789C88.985 63.0039 89.2029 61.9102 89.2029 60.8164C89.2029 59.7227 89.2029 58.6289 89.2029 57.7539C89.2029 56.6602 89.2029 55.5664 89.2029 54.6914C88.5492 54.0352 87.8955 54.2539 87.2418 54.2539C80.4869 54.2539 73.7321 54.2539 66.9772 54.2539C66.1056 54.2539 65.234 54.2539 64.1445 54.2539Z" fill="white" fill-opacity="0.07"/>
<path fill-rule="evenodd" clip-rule="evenodd" d="M64.1445 85.3164C64.1445 84.4414 64.1445 83.7852 64.1445 83.3477C64.3624 83.1289 64.3624 83.1289 64.5803 83.1289C65.4519 83.1289 66.1056 83.1289 66.9772 82.9102C67.6309 82.2539 67.413 81.5977 67.413 80.9414C67.413 76.1289 67.413 71.3164 67.413 66.5039C67.413 65.8477 67.413 64.9727 67.413 64.0977C68.0667 64.0977 68.7204 64.0977 69.3741 63.8789C69.592 64.0977 69.592 64.3164 69.592 64.5352C69.592 65.1914 69.592 65.6289 69.592 66.2852C69.592 71.7539 69.592 77.2227 69.592 82.6914C69.592 83.3477 69.8099 84.2227 69.3741 84.8789C68.9383 84.8789 68.5025 85.0977 68.0667 85.0977C66.9772 85.3164 65.6698 85.3164 64.1445 85.3164Z" fill="white" fill-opacity="0.07"/>
<path fill-rule="evenodd" clip-rule="evenodd" d="M63.9248 67.8164C63.9248 68.4727 63.9248 68.9102 63.9248 69.5664C63.7069 69.5664 63.489 69.7852 63.2711 69.7852C62.8353 69.7852 62.3995 69.7852 61.9637 69.7852C56.2984 69.7852 50.4151 69.7852 44.7497 69.7852C44.096 69.7852 43.6602 69.7852 43.0065 69.7852C42.5707 68.0352 42.5707 66.0664 43.0065 64.0977C43.2244 64.0977 43.4423 63.8789 43.6602 63.8789C44.096 63.8789 44.5318 63.8789 44.9676 63.8789C45.6213 64.9727 44.9676 66.0664 45.4034 66.9414C46.0571 67.3789 46.7108 67.1602 47.3645 67.1602C52.1583 67.1602 56.9521 67.1602 61.7458 67.1602C62.3995 67.5977 63.0532 67.3789 63.9248 67.8164Z" fill="white" fill-opacity="0.07"/>
<path fill-rule="evenodd" clip-rule="evenodd" d="M64.362 58.4102C71.3348 58.4102 78.0896 58.4102 84.8445 58.4102C85.2803 60.3789 85.0624 62.1289 85.0624 63.8789C84.1908 64.0977 83.755 64.0977 83.1013 63.8789C83.1013 63.6602 82.8834 63.6602 82.8834 63.4414C82.6655 62.5664 83.1013 61.6914 82.4476 60.5977C80.4865 60.1602 78.5254 60.3789 76.5643 60.3789C74.6033 60.3789 72.6422 60.3789 70.4632 60.3789C68.5021 60.3789 66.541 60.3789 64.362 60.3789C63.9262 59.7227 63.9262 59.0664 64.362 58.4102Z" fill="white" fill-opacity="0.07"/>
<path fill-rule="evenodd" clip-rule="evenodd" d="M58.2617 42.8789C60.2228 42.6602 61.966 42.6602 63.9271 42.8789C63.9271 43.5352 63.9271 44.1914 63.9271 44.8477C63.7092 44.8477 63.4913 45.0664 63.2734 45.0664C62.4018 45.0664 61.7481 45.0664 60.8765 45.2852C60.2228 45.9414 60.4407 46.3789 60.4407 47.0352C60.4407 51.8477 60.4407 56.6602 60.4407 61.4727C60.4407 62.1289 60.4407 63.0039 60.4407 63.6602C59.787 64.3164 59.1333 64.0977 58.4796 63.8789C58.4796 63.6602 58.2617 63.4414 58.2617 63.2227C58.2617 62.7852 58.2617 62.3477 58.2617 61.9102C58.2617 56.2227 58.2617 50.5352 58.2617 44.8477C58.2617 44.4102 58.2617 43.7539 58.2617 42.8789Z" fill="white" fill-opacity="0.07"/>
</svg>
