<svg width="290" height="117" viewBox="0 0 290 117" fill="none" xmlns="http://www.w3.org/2000/svg">
<rect width="65" height="85" rx="5" fill="#11294B"/>
<path d="M22.7906 56V51.56C22.7906 50.1067 23.0106 48.8733 23.4506 47.86C23.8906 46.8467 24.544 45.9933 25.4106 45.3C26.2906 44.5933 27.3906 43.9867 28.7106 43.48L34.0306 41.44C35.1906 40.9733 36.044 40.4 36.5906 39.72C37.1506 39.04 37.4306 38.2 37.4306 37.2C37.4306 36.2 37.064 35.36 36.3306 34.68C35.6106 33.9867 34.5773 33.64 33.2306 33.64C31.9373 33.64 30.8506 33.9667 29.9706 34.62C29.104 35.26 28.604 36.2 28.4706 37.44H23.2306C23.2706 35.6667 23.7306 34.1933 24.6106 33.02C25.4906 31.8467 26.6706 30.9733 28.1506 30.4C29.6306 29.8133 31.2973 29.52 33.1506 29.52C34.8973 29.52 36.4773 29.8533 37.8906 30.52C39.304 31.1733 40.424 32.0933 41.2506 33.28C42.0906 34.4533 42.5106 35.8267 42.5106 37.4C42.5106 38.7333 42.264 39.9067 41.7706 40.92C41.2906 41.9333 40.5573 42.82 39.5706 43.58C38.584 44.34 37.3373 45.0133 35.8306 45.6L30.4706 47.68C29.4306 48.08 28.6773 48.5267 28.2106 49.02C27.744 49.5 27.5106 50.1333 27.5106 50.92V51.68H42.3506V56H22.7906Z" fill="white"/>
<path d="M16.9988 95.952H19.9428C20.9561 95.952 21.8361 96.16 22.5828 96.576C23.3295 96.9867 23.9081 97.568 24.3188 98.32C24.7295 99.072 24.9348 99.9573 24.9348 100.976C24.9348 101.984 24.7295 102.864 24.3188 103.616C23.9081 104.368 23.3295 104.955 22.5828 105.376C21.8361 105.792 20.9561 106 19.9428 106H16.9988V95.952ZM18.2468 97.056V104.912H19.9428C20.7001 104.912 21.3508 104.741 21.8948 104.4C22.4441 104.059 22.8655 103.592 23.1588 103C23.4575 102.403 23.6068 101.728 23.6068 100.976C23.6068 100.219 23.4575 99.5467 23.1588 98.96C22.8655 98.368 22.4441 97.904 21.8948 97.568C21.3508 97.2267 20.7001 97.056 19.9428 97.056H18.2468ZM32.2973 106L32.1373 104.32V101.04C32.1373 100.352 31.9906 99.8587 31.6973 99.56C31.404 99.256 30.964 99.104 30.3773 99.104C30.0466 99.104 29.7453 99.152 29.4733 99.248C29.2066 99.344 28.9933 99.4933 28.8333 99.696C28.6786 99.8933 28.6013 100.149 28.6013 100.464H27.2093C27.2093 99.9093 27.3453 99.464 27.6173 99.128C27.8893 98.7867 28.2626 98.5413 28.7373 98.392C29.2173 98.2373 29.764 98.16 30.3773 98.16C30.964 98.16 31.484 98.2587 31.9373 98.456C32.3906 98.6533 32.7453 98.968 33.0013 99.4C33.2573 99.8267 33.3853 100.384 33.3853 101.072V106H32.2973ZM29.6893 106.192C29.06 106.192 28.54 106.08 28.1293 105.856C27.7186 105.632 27.412 105.341 27.2093 104.984C27.0066 104.627 26.9053 104.251 26.9053 103.856C26.9053 103.339 27.0333 102.917 27.2893 102.592C27.5506 102.267 27.9053 102.029 28.3533 101.88C28.8013 101.725 29.3053 101.648 29.8653 101.648C30.2653 101.648 30.6653 101.688 31.0653 101.768C31.4706 101.848 31.8653 101.957 32.2493 102.096V102.88C31.9293 102.752 31.5666 102.651 31.1613 102.576C30.7613 102.501 30.3933 102.464 30.0573 102.464C29.5453 102.464 29.1133 102.571 28.7613 102.784C28.4093 102.992 28.2333 103.349 28.2333 103.856C28.2333 104.229 28.3666 104.549 28.6333 104.816C28.9053 105.083 29.3373 105.216 29.9293 105.216C30.3453 105.216 30.7186 105.12 31.0493 104.928C31.3853 104.731 31.6493 104.485 31.8413 104.192C32.0386 103.899 32.1373 103.605 32.1373 103.312H32.4413C32.4413 103.824 32.3293 104.299 32.1053 104.736C31.8866 105.173 31.572 105.525 31.1613 105.792C30.7506 106.059 30.26 106.192 29.6893 106.192ZM35.1098 98.352H36.5018L38.9978 104.912H38.7098L40.6458 98.352H41.9258L39.0458 107.536C38.8058 108.304 38.4858 108.896 38.0858 109.312C37.6858 109.728 37.1738 109.936 36.5498 109.936C36.2138 109.936 35.8938 109.888 35.5898 109.792C35.2911 109.696 34.9818 109.557 34.6618 109.376V108.224C34.9445 108.448 35.2165 108.608 35.4778 108.704C35.7445 108.8 36.0218 108.848 36.3098 108.848C36.6298 108.848 36.8965 108.747 37.1098 108.544C37.3285 108.341 37.5098 108.08 37.6538 107.76C37.7978 107.445 37.9205 107.115 38.0218 106.768L38.2458 106L35.1098 98.352ZM46.5789 106.192C45.8376 106.192 45.2189 106.088 44.7229 105.88C44.2269 105.667 43.8509 105.376 43.5949 105.008C43.3389 104.635 43.2029 104.208 43.1869 103.728H44.3869C44.4136 104.213 44.6083 104.579 44.9709 104.824C45.3389 105.064 45.8376 105.184 46.4669 105.184C46.7976 105.184 47.1016 105.131 47.3789 105.024C47.6563 104.917 47.8776 104.771 48.0429 104.584C48.2083 104.397 48.2909 104.187 48.2909 103.952C48.2909 103.653 48.1816 103.419 47.9629 103.248C47.7443 103.077 47.3949 102.928 46.9149 102.8L45.4269 102.32C44.7816 102.117 44.2856 101.84 43.9389 101.488C43.5976 101.131 43.4269 100.704 43.4269 100.208C43.4269 99.5893 43.6989 99.0933 44.2429 98.72C44.7869 98.3467 45.5016 98.16 46.3869 98.16C47.3256 98.16 48.0536 98.352 48.5709 98.736C49.0883 99.12 49.3576 99.6 49.3789 100.176H48.1469C48.0989 99.84 47.9283 99.5867 47.6349 99.416C47.3416 99.24 46.9256 99.152 46.3869 99.152C45.8696 99.152 45.4643 99.2693 45.1709 99.504C44.8829 99.7333 44.7389 99.9893 44.7389 100.272C44.7389 100.8 45.1923 101.189 46.0989 101.44L47.6189 101.952C48.2749 102.149 48.7763 102.408 49.1229 102.728C49.4749 103.048 49.6509 103.456 49.6509 103.952C49.6509 104.336 49.5256 104.699 49.2749 105.04C49.0243 105.381 48.6696 105.659 48.2109 105.872C47.7523 106.085 47.2083 106.192 46.5789 106.192Z" fill="black"/>
<rect x="150" width="65" height="85" rx="5" fill="#11294B"/>
<path d="M169.922 56.56C168.549 56.56 167.222 56.3733 165.942 56C164.662 55.6267 163.516 55.0733 162.502 54.34C161.489 53.6067 160.682 52.7 160.082 51.62C159.496 50.5267 159.202 49.2667 159.202 47.84H164.162C164.216 48.7467 164.489 49.5333 164.982 50.2C165.476 50.8533 166.142 51.36 166.982 51.72C167.836 52.0667 168.816 52.24 169.922 52.24C171.549 52.24 172.822 51.8667 173.742 51.12C174.662 50.3733 175.122 49.4267 175.122 48.28C175.122 47.5333 174.936 46.8933 174.562 46.36C174.189 45.8133 173.616 45.4 172.842 45.12C172.069 44.8267 171.082 44.68 169.882 44.68H166.442V40.96H169.362C170.882 40.96 172.076 40.6333 172.942 39.98C173.809 39.3267 174.242 38.44 174.242 37.32C174.242 36.32 173.869 35.4867 173.122 34.82C172.376 34.14 171.256 33.8 169.762 33.8C168.549 33.8 167.462 34.0467 166.502 34.54C165.556 35.0333 164.949 35.8933 164.682 37.12H159.722C159.909 35.3467 160.442 33.9 161.322 32.78C162.216 31.66 163.369 30.84 164.782 30.32C166.196 29.7867 167.789 29.52 169.562 29.52C171.442 29.52 173.116 29.8267 174.582 30.44C176.049 31.0533 177.202 31.9067 178.042 33C178.896 34.08 179.322 35.3333 179.322 36.76C179.322 38.08 178.962 39.2333 178.242 40.22C177.522 41.1933 176.456 41.92 175.042 42.4C176.616 42.9333 177.876 43.7267 178.822 44.78C179.769 45.8333 180.242 47.1467 180.242 48.72C180.242 50.2533 179.809 51.6133 178.942 52.8C178.089 53.9733 176.889 54.8933 175.342 55.56C173.796 56.2267 171.989 56.56 169.922 56.56ZM194.965 56.56C192.832 56.56 190.952 56.0667 189.325 55.08C187.712 54.0933 186.445 52.6 185.525 50.6C184.618 48.6 184.165 46.08 184.165 43.04C184.165 39.9867 184.618 37.46 185.525 35.46C186.445 33.46 187.712 31.9733 189.325 31C190.952 30.0133 192.832 29.52 194.965 29.52C197.072 29.52 198.932 30.0133 200.545 31C202.172 31.9733 203.438 33.46 204.345 35.46C205.265 37.46 205.725 39.9867 205.725 43.04C205.725 46.08 205.265 48.6 204.345 50.6C203.438 52.6 202.172 54.0933 200.545 55.08C198.932 56.0667 197.072 56.56 194.965 56.56ZM194.965 52.24C196.832 52.24 198.278 51.4533 199.305 49.88C200.332 48.2933 200.845 46.0133 200.845 43.04C200.845 40.0667 200.332 37.7867 199.305 36.2C198.278 34.6 196.832 33.8 194.965 33.8C193.085 33.8 191.625 34.6 190.585 36.2C189.558 37.7867 189.045 40.0667 189.045 43.04C189.045 46.0133 189.558 48.2933 190.585 49.88C191.625 51.4533 193.085 52.24 194.965 52.24Z" fill="white"/>
<path d="M153.968 95.952H155.76L159.216 102.896H159.088L162.544 95.952H164.288V106H163.024V97.248H163.248L159.568 104.736H158.736L155.072 97.296H155.216V106H153.968V95.952ZM168.218 96.544C167.962 96.544 167.76 96.472 167.61 96.328C167.461 96.1787 167.386 95.984 167.386 95.744C167.386 95.5093 167.461 95.3227 167.61 95.184C167.76 95.0453 167.962 94.976 168.218 94.976C168.474 94.976 168.677 95.0453 168.826 95.184C168.976 95.3227 169.05 95.5093 169.05 95.744C169.05 95.984 168.976 96.1787 168.826 96.328C168.677 96.472 168.474 96.544 168.218 96.544ZM167.594 106V98.336H168.842V106H167.594ZM177.72 106V101.504C177.72 100.773 177.544 100.219 177.192 99.84C176.845 99.456 176.371 99.264 175.768 99.264C175.309 99.264 174.912 99.3893 174.576 99.64C174.24 99.8907 173.981 100.251 173.8 100.72C173.619 101.184 173.528 101.739 173.528 102.384H173.048C173.048 101.493 173.165 100.733 173.4 100.104C173.635 99.4747 173.976 98.9947 174.424 98.664C174.877 98.328 175.427 98.16 176.072 98.16C176.675 98.16 177.189 98.296 177.616 98.568C178.048 98.8347 178.379 99.2187 178.608 99.72C178.837 100.221 178.952 100.816 178.952 101.504V106H177.72ZM172.28 106V98.352H173.352L173.528 100.112V106H172.28ZM187.136 98.336H188.384V106H187.136V98.336ZM181.712 98.336H182.96V103.104C182.96 103.744 183.115 104.229 183.424 104.56C183.739 104.891 184.187 105.056 184.768 105.056C185.248 105.056 185.664 104.928 186.016 104.672C186.374 104.416 186.648 104.064 186.84 103.616C187.038 103.163 187.136 102.645 187.136 102.064H187.6C187.6 102.923 187.475 103.656 187.224 104.264C186.979 104.872 186.63 105.339 186.176 105.664C185.728 105.984 185.2 106.144 184.592 106.144C184.016 106.144 183.512 106.037 183.08 105.824C182.648 105.611 182.312 105.288 182.072 104.856C181.832 104.419 181.712 103.867 181.712 103.2V98.336ZM193.976 106.192C193.56 106.192 193.186 106.112 192.856 105.952C192.525 105.792 192.264 105.552 192.072 105.232C191.88 104.912 191.784 104.512 191.784 104.032V96.224H193.016V104C193.016 104.789 193.384 105.184 194.12 105.184C194.338 105.184 194.549 105.16 194.752 105.112C194.96 105.064 195.192 104.992 195.448 104.896L195.624 105.792C195.352 105.909 195.08 106.005 194.808 106.08C194.541 106.155 194.264 106.192 193.976 106.192ZM190.552 99.216V98.352H195.432V99.216H190.552ZM200.295 106.192C199.634 106.192 199.042 106.024 198.519 105.688C198.002 105.347 197.591 104.875 197.287 104.272C196.989 103.669 196.839 102.976 196.839 102.192C196.839 101.355 196.989 100.635 197.287 100.032C197.586 99.4293 197.994 98.968 198.511 98.648C199.034 98.3227 199.629 98.16 200.295 98.16C200.877 98.16 201.373 98.2773 201.783 98.512C202.194 98.7467 202.525 99.064 202.775 99.464C203.026 99.864 203.199 100.317 203.295 100.824C203.397 101.325 203.426 101.845 203.383 102.384H197.847V101.616H202.559L202.191 101.856C202.207 101.541 202.189 101.227 202.135 100.912C202.087 100.597 201.994 100.309 201.855 100.048C201.717 99.7813 201.522 99.568 201.271 99.408C201.021 99.248 200.701 99.168 200.311 99.168C199.821 99.168 199.41 99.2933 199.079 99.544C198.749 99.7947 198.501 100.125 198.335 100.536C198.17 100.941 198.087 101.381 198.087 101.856V102.368C198.087 102.901 198.167 103.379 198.327 103.8C198.493 104.221 198.738 104.555 199.063 104.8C199.389 105.045 199.799 105.168 200.295 105.168C200.791 105.168 201.199 105.048 201.519 104.808C201.839 104.568 202.034 104.213 202.103 103.744H203.399C203.319 104.251 203.138 104.688 202.855 105.056C202.573 105.419 202.213 105.699 201.775 105.896C201.338 106.093 200.845 106.192 200.295 106.192ZM208.61 106.192C207.869 106.192 207.25 106.088 206.754 105.88C206.258 105.667 205.882 105.376 205.626 105.008C205.37 104.635 205.234 104.208 205.218 103.728H206.418C206.445 104.213 206.64 104.579 207.002 104.824C207.37 105.064 207.869 105.184 208.498 105.184C208.829 105.184 209.133 105.131 209.41 105.024C209.688 104.917 209.909 104.771 210.074 104.584C210.24 104.397 210.322 104.187 210.322 103.952C210.322 103.653 210.213 103.419 209.994 103.248C209.776 103.077 209.426 102.928 208.946 102.8L207.458 102.32C206.813 102.117 206.317 101.84 205.97 101.488C205.629 101.131 205.458 100.704 205.458 100.208C205.458 99.5893 205.73 99.0933 206.274 98.72C206.818 98.3467 207.533 98.16 208.418 98.16C209.357 98.16 210.085 98.352 210.602 98.736C211.12 99.12 211.389 99.6 211.41 100.176H210.178C210.13 99.84 209.96 99.5867 209.666 99.416C209.373 99.24 208.957 99.152 208.418 99.152C207.901 99.152 207.496 99.2693 207.202 99.504C206.914 99.7333 206.77 99.9893 206.77 100.272C206.77 100.8 207.224 101.189 208.13 101.44L209.65 101.952C210.306 102.149 210.808 102.408 211.154 102.728C211.506 103.048 211.682 103.456 211.682 103.952C211.682 104.336 211.557 104.699 211.306 105.04C211.056 105.381 210.701 105.659 210.242 105.872C209.784 106.085 209.24 106.192 208.61 106.192Z" fill="black"/>
<rect x="75" width="65" height="85" rx="5" fill="#11294B"/>
<path d="M107.331 29.88H110.891V56H106.171V35.52C105.464 35.84 104.771 36.0867 104.091 36.26C103.411 36.4333 102.731 36.52 102.051 36.52V32C102.958 31.9067 103.838 31.7 104.691 31.38C105.544 31.0467 106.424 30.5467 107.331 29.88Z" fill="white"/>
<path d="M87.9519 95.952H89.1999V100.384H94.1759V95.952H95.4079V106H94.1759V101.456H89.1999V106H87.9519V95.952ZM101.423 106.192C100.735 106.192 100.122 106.04 99.5831 105.736C99.0497 105.432 98.6284 104.981 98.3191 104.384C98.0097 103.787 97.8551 103.051 97.8551 102.176C97.8551 101.296 98.0097 100.56 98.3191 99.968C98.6284 99.3707 99.0497 98.92 99.5831 98.616C100.122 98.312 100.735 98.16 101.423 98.16C102.106 98.16 102.714 98.312 103.247 98.616C103.786 98.92 104.207 99.3707 104.511 99.968C104.82 100.56 104.975 101.296 104.975 102.176C104.975 103.051 104.82 103.787 104.511 104.384C104.207 104.981 103.786 105.432 103.247 105.736C102.714 106.04 102.106 106.192 101.423 106.192ZM101.391 105.104C101.887 105.104 102.308 104.987 102.655 104.752C103.002 104.512 103.263 104.173 103.439 103.736C103.62 103.299 103.711 102.779 103.711 102.176C103.711 101.264 103.522 100.547 103.143 100.024C102.764 99.496 102.202 99.232 101.455 99.232C100.954 99.232 100.53 99.352 100.183 99.592C99.8417 99.8267 99.5804 100.165 99.3991 100.608C99.2231 101.045 99.1351 101.568 99.1351 102.176C99.1351 103.077 99.3244 103.792 99.7031 104.32C100.087 104.843 100.65 105.104 101.391 105.104ZM112.605 98.336H113.853V106H112.605V98.336ZM107.181 98.336H108.429V103.104C108.429 103.744 108.584 104.229 108.893 104.56C109.208 104.891 109.656 105.056 110.237 105.056C110.717 105.056 111.133 104.928 111.485 104.672C111.842 104.416 112.117 104.064 112.309 103.616C112.506 103.163 112.605 102.645 112.605 102.064H113.069C113.069 102.923 112.944 103.656 112.693 104.264C112.448 104.872 112.098 105.339 111.645 105.664C111.197 105.984 110.669 106.144 110.061 106.144C109.485 106.144 108.981 106.037 108.549 105.824C108.117 105.611 107.781 105.288 107.541 104.856C107.301 104.419 107.181 103.867 107.181 103.2V98.336ZM117.093 106V98.336H118.341V106H117.093ZM117.957 102.544C117.957 101.573 118.05 100.768 118.237 100.128C118.423 99.4827 118.695 99.0027 119.053 98.688C119.415 98.368 119.855 98.208 120.373 98.208C120.543 98.208 120.698 98.2213 120.837 98.248C120.981 98.2693 121.125 98.304 121.269 98.352L121.189 99.584C121.039 99.536 120.877 99.496 120.701 99.464C120.525 99.4267 120.367 99.408 120.229 99.408C119.775 99.408 119.41 99.5387 119.133 99.8C118.855 100.056 118.653 100.419 118.525 100.888C118.402 101.357 118.341 101.909 118.341 102.544H117.957ZM125.626 106.192C124.884 106.192 124.266 106.088 123.77 105.88C123.274 105.667 122.898 105.376 122.642 105.008C122.386 104.635 122.25 104.208 122.234 103.728H123.434C123.46 104.213 123.655 104.579 124.018 104.824C124.386 105.064 124.884 105.184 125.514 105.184C125.844 105.184 126.148 105.131 126.426 105.024C126.703 104.917 126.924 104.771 127.09 104.584C127.255 104.397 127.338 104.187 127.338 103.952C127.338 103.653 127.228 103.419 127.01 103.248C126.791 103.077 126.442 102.928 125.962 102.8L124.474 102.32C123.828 102.117 123.332 101.84 122.986 101.488C122.644 101.131 122.474 100.704 122.474 100.208C122.474 99.5893 122.746 99.0933 123.29 98.72C123.834 98.3467 124.548 98.16 125.434 98.16C126.372 98.16 127.1 98.352 127.618 98.736C128.135 99.12 128.404 99.6 128.426 100.176H127.194C127.146 99.84 126.975 99.5867 126.682 99.416C126.388 99.24 125.972 99.152 125.434 99.152C124.916 99.152 124.511 99.2693 124.218 99.504C123.93 99.7333 123.786 99.9893 123.786 100.272C123.786 100.8 124.239 101.189 125.146 101.44L126.666 101.952C127.322 102.149 127.823 102.408 128.17 102.728C128.522 103.048 128.698 103.456 128.698 103.952C128.698 104.336 128.572 104.699 128.322 105.04C128.071 105.381 127.716 105.659 127.258 105.872C126.799 106.085 126.255 106.192 125.626 106.192Z" fill="black"/>
<rect x="225" width="65" height="85" rx="5" fill="#11294B"/>
<path d="M245.19 29.88H248.75V56H244.03V35.52C243.324 35.84 242.63 36.0867 241.95 36.26C241.27 36.4333 240.59 36.52 239.91 36.52V32C240.817 31.9067 241.697 31.7 242.55 31.38C243.404 31.0467 244.284 30.5467 245.19 29.88ZM264.368 56.56C262.502 56.56 260.855 56.24 259.428 55.6C258.002 54.9467 256.875 54 256.048 52.76C255.235 51.52 254.808 50.0133 254.768 48.24H259.568C259.568 49.5733 260.028 50.5733 260.948 51.24C261.868 51.9067 263.008 52.24 264.368 52.24C265.822 52.24 267.008 51.7733 267.928 50.84C268.862 49.8933 269.328 48.7333 269.328 47.36C269.328 44.6933 267.542 43.36 263.968 43.36H256.048L257.248 30.04H272.808V34.36H261.048L261.968 33L261.208 40.72L260.808 40.28C261.448 40.1333 262.208 40.0267 263.088 39.96C263.968 39.88 264.728 39.84 265.368 39.84C268.048 39.84 270.182 40.4933 271.768 41.8C273.368 43.0933 274.168 44.9467 274.168 47.36C274.168 49.08 273.762 50.64 272.948 52.04C272.135 53.4267 270.995 54.5267 269.528 55.34C268.062 56.1533 266.342 56.56 264.368 56.56Z" fill="white"/>
<path d="M231.113 106.192C230.441 106.192 229.825 106.072 229.265 105.832C228.705 105.587 228.255 105.227 227.913 104.752C227.572 104.277 227.396 103.691 227.385 102.992H228.601C228.601 103.461 228.716 103.848 228.945 104.152C229.175 104.451 229.479 104.675 229.857 104.824C230.236 104.968 230.649 105.04 231.097 105.04C231.583 105.04 232.004 104.963 232.361 104.808C232.719 104.653 232.993 104.451 233.185 104.2C233.383 103.944 233.481 103.664 233.481 103.36C233.481 102.933 233.351 102.589 233.089 102.328C232.828 102.061 232.441 101.845 231.929 101.68L230.153 101.056C229.321 100.757 228.692 100.416 228.265 100.032C227.839 99.648 227.625 99.1093 227.625 98.416C227.625 97.6373 227.924 97.0027 228.521 96.512C229.124 96.0213 229.977 95.776 231.081 95.776C232.105 95.776 232.905 96.0133 233.481 96.488C234.057 96.9573 234.388 97.5893 234.473 98.384H233.241C233.161 97.92 232.943 97.56 232.585 97.304C232.233 97.0427 231.732 96.912 231.081 96.912C230.42 96.912 229.905 97.0587 229.537 97.352C229.169 97.6453 228.985 98.016 228.985 98.464C228.985 98.832 229.1 99.1253 229.329 99.344C229.564 99.5573 229.929 99.7493 230.425 99.92L232.505 100.64C233.225 100.88 233.793 101.216 234.209 101.648C234.631 102.08 234.841 102.64 234.841 103.328C234.841 103.861 234.697 104.344 234.409 104.776C234.127 105.208 233.708 105.552 233.153 105.808C232.599 106.064 231.919 106.192 231.113 106.192ZM240.225 106.192C239.564 106.192 238.972 106.024 238.449 105.688C237.932 105.347 237.521 104.875 237.217 104.272C236.918 103.669 236.769 102.976 236.769 102.192C236.769 101.355 236.918 100.635 237.217 100.032C237.516 99.4293 237.924 98.968 238.441 98.648C238.964 98.3227 239.558 98.16 240.225 98.16C240.806 98.16 241.302 98.2773 241.713 98.512C242.124 98.7467 242.454 99.064 242.705 99.464C242.956 99.864 243.129 100.317 243.225 100.824C243.326 101.325 243.356 101.845 243.313 102.384H237.777V101.616H242.489L242.121 101.856C242.137 101.541 242.118 101.227 242.065 100.912C242.017 100.597 241.924 100.309 241.785 100.048C241.646 99.7813 241.452 99.568 241.201 99.408C240.95 99.248 240.63 99.168 240.241 99.168C239.75 99.168 239.34 99.2933 239.009 99.544C238.678 99.7947 238.43 100.125 238.265 100.536C238.1 100.941 238.017 101.381 238.017 101.856V102.368C238.017 102.901 238.097 103.379 238.257 103.8C238.422 104.221 238.668 104.555 238.993 104.8C239.318 105.045 239.729 105.168 240.225 105.168C240.721 105.168 241.129 105.048 241.449 104.808C241.769 104.568 241.964 104.213 242.033 103.744H243.329C243.249 104.251 243.068 104.688 242.785 105.056C242.502 105.419 242.142 105.699 241.705 105.896C241.268 106.093 240.774 106.192 240.225 106.192ZM248.476 106.192C247.863 106.192 247.289 106.027 246.756 105.696C246.228 105.365 245.801 104.899 245.476 104.296C245.151 103.693 244.988 102.981 244.988 102.16C244.988 101.317 245.151 100.597 245.476 100C245.801 99.4027 246.228 98.9467 246.756 98.632C247.289 98.3173 247.863 98.16 248.476 98.16C248.908 98.16 249.295 98.2267 249.636 98.36C249.983 98.488 250.284 98.6667 250.54 98.896C250.796 99.1253 251.007 99.3867 251.172 99.68C251.343 99.968 251.468 100.272 251.548 100.592L250.268 100.704C250.135 100.261 249.911 99.912 249.596 99.656C249.287 99.3947 248.908 99.264 248.46 99.264C248.081 99.264 247.724 99.3733 247.388 99.592C247.057 99.8053 246.788 100.128 246.58 100.56C246.372 100.987 246.268 101.52 246.268 102.16C246.268 102.752 246.361 103.267 246.548 103.704C246.74 104.136 247.001 104.472 247.332 104.712C247.663 104.952 248.039 105.072 248.46 105.072C249.052 105.072 249.5 104.928 249.804 104.64C250.113 104.347 250.268 103.941 250.268 103.424H251.548C251.548 103.957 251.423 104.432 251.172 104.848C250.921 105.264 250.564 105.592 250.1 105.832C249.641 106.072 249.1 106.192 248.476 106.192ZM256.806 106.192C256.118 106.192 255.505 106.04 254.966 105.736C254.433 105.432 254.011 104.981 253.702 104.384C253.393 103.787 253.238 103.051 253.238 102.176C253.238 101.296 253.393 100.56 253.702 99.968C254.011 99.3707 254.433 98.92 254.966 98.616C255.505 98.312 256.118 98.16 256.806 98.16C257.489 98.16 258.097 98.312 258.63 98.616C259.169 98.92 259.59 99.3707 259.894 99.968C260.203 100.56 260.358 101.296 260.358 102.176C260.358 103.051 260.203 103.787 259.894 104.384C259.59 104.981 259.169 105.432 258.63 105.736C258.097 106.04 257.489 106.192 256.806 106.192ZM256.774 105.104C257.27 105.104 257.691 104.987 258.038 104.752C258.385 104.512 258.646 104.173 258.822 103.736C259.003 103.299 259.094 102.779 259.094 102.176C259.094 101.264 258.905 100.547 258.526 100.024C258.147 99.496 257.585 99.232 256.838 99.232C256.337 99.232 255.913 99.352 255.566 99.592C255.225 99.8267 254.963 100.165 254.782 100.608C254.606 101.045 254.518 101.568 254.518 102.176C254.518 103.077 254.707 103.792 255.086 104.32C255.47 104.843 256.033 105.104 256.774 105.104ZM268.228 106V101.504C268.228 100.773 268.052 100.219 267.7 99.84C267.353 99.456 266.879 99.264 266.276 99.264C265.817 99.264 265.42 99.3893 265.084 99.64C264.748 99.8907 264.489 100.251 264.308 100.72C264.127 101.184 264.036 101.739 264.036 102.384H263.556C263.556 101.493 263.673 100.733 263.908 100.104C264.143 99.4747 264.484 98.9947 264.932 98.664C265.385 98.328 265.935 98.16 266.58 98.16C267.183 98.16 267.697 98.296 268.124 98.568C268.556 98.8347 268.887 99.2187 269.116 99.72C269.345 100.221 269.46 100.816 269.46 101.504V106H268.228ZM262.788 106V98.352H263.86L264.036 100.112V106H262.788ZM275.18 106.192C274.561 106.192 273.993 106.027 273.476 105.696C272.959 105.36 272.545 104.891 272.236 104.288C271.927 103.68 271.772 102.965 271.772 102.144C271.772 101.328 271.924 100.621 272.228 100.024C272.532 99.4267 272.935 98.968 273.436 98.648C273.943 98.3227 274.497 98.16 275.1 98.16C275.66 98.16 276.151 98.296 276.572 98.568C276.999 98.84 277.329 99.232 277.564 99.744C277.799 100.256 277.916 100.875 277.916 101.6H277.436C277.436 101.093 277.335 100.667 277.132 100.32C276.935 99.9733 276.676 99.712 276.356 99.536C276.036 99.3547 275.692 99.264 275.324 99.264C274.908 99.264 274.527 99.3813 274.18 99.616C273.839 99.8453 273.564 100.176 273.356 100.608C273.153 101.035 273.052 101.547 273.052 102.144C273.052 102.752 273.153 103.275 273.356 103.712C273.564 104.149 273.839 104.485 274.18 104.72C274.527 104.955 274.908 105.072 275.324 105.072C275.671 105.072 276.004 104.981 276.324 104.8C276.649 104.619 276.916 104.355 277.124 104.008C277.332 103.656 277.436 103.232 277.436 102.736H277.916C277.916 103.477 277.793 104.107 277.548 104.624C277.308 105.136 276.98 105.525 276.564 105.792C276.153 106.059 275.692 106.192 275.18 106.192ZM277.644 106L277.436 104.208V95.088H278.684V106H277.644ZM284.681 106.192C283.939 106.192 283.321 106.088 282.825 105.88C282.329 105.667 281.953 105.376 281.697 105.008C281.441 104.635 281.305 104.208 281.289 103.728H282.489C282.515 104.213 282.71 104.579 283.073 104.824C283.441 105.064 283.939 105.184 284.569 105.184C284.899 105.184 285.203 105.131 285.481 105.024C285.758 104.917 285.979 104.771 286.145 104.584C286.31 104.397 286.393 104.187 286.393 103.952C286.393 103.653 286.283 103.419 286.065 103.248C285.846 103.077 285.497 102.928 285.016 102.8L283.529 102.32C282.883 102.117 282.387 101.84 282.041 101.488C281.699 101.131 281.529 100.704 281.529 100.208C281.529 99.5893 281.801 99.0933 282.345 98.72C282.889 98.3467 283.603 98.16 284.489 98.16C285.427 98.16 286.155 98.352 286.673 98.736C287.19 99.12 287.459 99.6 287.481 100.176H286.249C286.201 99.84 286.03 99.5867 285.737 99.416C285.443 99.24 285.027 99.152 284.489 99.152C283.971 99.152 283.566 99.2693 283.273 99.504C282.985 99.7333 282.841 99.9893 282.841 100.272C282.841 100.8 283.294 101.189 284.201 101.44L285.721 101.952C286.377 102.149 286.878 102.408 287.225 102.728C287.577 103.048 287.753 103.456 287.753 103.952C287.753 104.336 287.627 104.699 287.377 105.04C287.126 105.381 286.771 105.659 286.313 105.872C285.854 106.085 285.31 106.192 284.681 106.192Z" fill="black"/>
</svg>
