<svg width="28" height="22" viewBox="0 0 28 22" fill="none" xmlns="http://www.w3.org/2000/svg">
<path d="M23.3291 7.29238C22.035 2.13712 16.8068 -0.992959 11.6515 0.301134C7.62283 1.31247 4.69753 4.79442 4.39613 8.93715C1.53557 9.40889 -0.400972 12.1102 0.0707651 14.9708C0.490118 17.5138 2.69367 19.3762 5.27103 19.366H9.64555V17.6162H5.27103C3.33826 17.6162 1.77141 16.0494 1.77141 14.1166C1.77141 12.1838 3.33826 10.617 5.27103 10.617C5.75425 10.617 6.14594 10.2253 6.14594 9.74206C6.14156 5.39329 9.66343 1.86437 14.0122 1.86005C17.7767 1.85628 21.0173 4.51762 21.7455 8.21098C21.8174 8.57975 22.1167 8.86147 22.4891 8.9109C24.881 9.25151 26.5438 11.4666 26.2033 13.8584C25.8974 16.0062 24.0636 17.6054 21.8942 17.6162H18.3946V19.366H21.8942C25.2766 19.3558 28.0102 16.6055 27.9999 13.2231C27.9914 10.4076 26.0642 7.96054 23.3291 7.29238Z" fill="white"/>
<path d="M13.3988 10.8707L9.89917 14.3704L11.1328 15.604L13.1451 13.6004V21.9908H14.8949V13.6004L16.8984 15.604L18.132 14.3704L14.6324 10.8707C14.2911 10.5315 13.7401 10.5315 13.3988 10.8707Z" fill="white"/>
</svg>
