<svg width="662" height="662" viewBox="0 0 662 662" fill="none" xmlns="http://www.w3.org/2000/svg">
<g clip-path="url(#clip0_148_1802)">
<path d="M130.818 320.167C88.5104 320.167 54.0938 286.063 54.0938 244.156C54.0938 202.245 88.5104 168.141 130.818 168.141C173.12 168.141 207.531 202.24 207.531 244.156C207.531 286.068 173.12 320.167 130.818 320.167ZM130.818 189.474C100.271 189.474 75.4271 214.005 75.4271 244.156C75.4271 274.302 100.271 298.833 130.818 298.833C161.354 298.833 186.198 274.302 186.198 244.156C186.198 214.005 161.354 189.474 130.818 189.474Z" fill="white"/>
<path d="M161.682 530.625H27.8802C12.5052 530.625 0 518.198 0 502.922V468.031C0 396.604 58.6823 338.49 130.818 338.49C159.188 338.49 186.193 347.344 208.891 364.089C213.63 367.589 214.641 374.266 211.141 379.01C207.641 383.745 200.969 384.755 196.224 381.26C177.219 367.24 154.604 359.823 130.818 359.823C70.4479 359.823 21.3333 408.37 21.3333 468.031V502.922C21.3333 506.432 24.2708 509.292 27.8802 509.292H161.688C167.573 509.292 172.354 514.068 172.354 519.958C172.354 525.844 167.573 530.625 161.682 530.625Z" fill="white"/>
<path d="M633.453 522.552H499.651C493.766 522.552 488.984 517.776 488.984 511.885C488.984 506 493.766 501.219 499.651 501.219H633.458C637.068 501.219 640.005 498.365 640.005 494.854V459.964C640.005 400.292 590.891 351.755 530.521 351.755C505.307 351.755 480.693 360.438 461.208 376.208C456.635 379.911 449.922 379.208 446.208 374.63C442.505 370.052 443.203 363.333 447.792 359.625C471.057 340.797 500.438 330.422 530.521 330.422C602.651 330.422 661.333 388.531 661.333 459.964V494.854C661.333 510.125 648.828 522.552 633.453 522.552Z" fill="white"/>
<path d="M530.516 314.896C488.214 314.896 453.803 280.797 453.803 238.885C453.803 196.974 488.214 162.87 530.516 162.87C572.824 162.87 607.24 196.969 607.24 238.885C607.24 280.802 572.818 314.896 530.516 314.896ZM530.516 184.203C499.98 184.203 475.136 208.734 475.136 238.885C475.136 269.036 499.98 293.562 530.516 293.562C561.063 293.562 585.907 269.036 585.907 238.885C585.907 208.734 561.058 184.203 530.516 184.203Z" fill="white"/>
<path d="M475.438 565.333H185.896C166.661 565.333 151.016 549.802 151.016 530.708V481.635C151.016 383.562 231.599 303.776 330.667 303.776C429.734 303.776 510.318 383.562 510.318 481.635V530.708C510.318 549.802 494.672 565.333 475.438 565.333ZM330.667 325.115C243.37 325.115 172.349 395.333 172.349 481.641V530.714C172.349 538.042 178.427 544.005 185.896 544.005H475.432C482.901 544.005 488.979 538.042 488.979 530.714V481.641C488.984 395.333 417.964 325.115 330.667 325.115Z" fill="white"/>
<path d="M326.958 291.313C272.604 291.313 228.375 247.505 228.375 193.651C228.375 139.802 272.599 96 326.958 96C381.323 96 425.547 139.807 425.547 193.656C425.547 247.51 381.318 291.313 326.958 291.313ZM326.958 117.333C284.365 117.333 249.708 151.573 249.708 193.656C249.708 235.745 284.365 269.984 326.958 269.984C369.557 269.984 404.214 235.745 404.214 193.656C404.214 151.573 369.557 117.333 326.958 117.333Z" fill="white"/>
</g>
<defs>
<clipPath id="clip0_148_1802">
<rect width="661.333" height="661.333" fill="white"/>
</clipPath>
</defs>
</svg>
