<svg width="558" height="558" viewBox="0 0 558 558" fill="none" xmlns="http://www.w3.org/2000/svg">
<g clip-path="url(#clip0_148_1795)">
<path d="M115.393 275.106C109.171 275.105 103.089 276.949 97.9154 280.404C92.7418 283.86 88.7092 288.773 86.3276 294.521C83.9459 300.268 83.3223 306.593 84.5355 312.696C85.7487 318.798 88.7442 324.403 93.1433 328.803C97.5423 333.203 103.147 336.199 109.249 337.414C115.351 338.628 121.677 338.005 127.425 335.624C133.173 333.244 138.086 329.212 141.543 324.039C144.999 318.866 146.844 312.784 146.844 306.562C146.835 298.223 143.519 290.228 137.623 284.331C131.727 278.434 123.732 275.116 115.393 275.106ZM115.393 318.769C112.979 318.769 110.619 318.053 108.611 316.711C106.604 315.37 105.039 313.464 104.115 311.233C103.192 309.003 102.95 306.548 103.421 304.18C103.892 301.813 105.054 299.638 106.762 297.93C108.469 296.223 110.644 295.061 113.012 294.59C115.379 294.119 117.834 294.36 120.064 295.284C122.295 296.208 124.201 297.773 125.543 299.78C126.884 301.788 127.6 304.148 127.6 306.562C127.596 309.798 126.308 312.901 124.02 315.189C121.732 317.477 118.629 318.765 115.393 318.769Z" fill="white"/>
<path d="M442.857 275.106C436.635 275.106 430.554 276.95 425.381 280.407C420.208 283.863 416.176 288.776 413.795 294.524C411.414 300.272 410.791 306.597 412.005 312.699C413.219 318.801 416.215 324.406 420.614 328.805C425.013 333.204 430.618 336.2 436.72 337.414C442.822 338.628 449.147 338.005 454.895 335.624C460.643 333.243 465.555 329.211 469.012 324.038C472.468 318.865 474.313 312.783 474.313 306.562C474.304 298.222 470.987 290.226 465.09 284.329C459.192 278.432 451.197 275.115 442.857 275.106ZM442.857 318.769C440.443 318.767 438.084 318.049 436.078 316.707C434.072 315.364 432.509 313.457 431.586 311.226C430.664 308.996 430.424 306.542 430.896 304.174C431.368 301.807 432.531 299.633 434.239 297.927C435.946 296.221 438.121 295.059 440.489 294.589C442.857 294.119 445.31 294.361 447.54 295.285C449.77 296.209 451.676 297.774 453.017 299.781C454.358 301.788 455.074 304.148 455.074 306.562C455.071 309.8 453.783 312.905 451.492 315.194C449.201 317.483 446.095 318.769 442.857 318.769Z" fill="white"/>
<path d="M368.694 264.19H189.555C186.939 264.177 184.363 264.838 182.076 266.109C179.789 267.38 177.867 269.218 176.496 271.447C175.226 273.541 174.526 275.93 174.464 278.378C174.401 280.826 174.98 283.248 176.143 285.403L197.107 324.7C198.416 327.107 200.356 329.112 202.718 330.5C205.08 331.888 207.775 332.608 210.515 332.58H347.735C350.475 332.607 353.171 331.887 355.533 330.499C357.896 329.111 359.837 327.107 361.148 324.7L382.082 285.403C383.244 283.248 383.823 280.826 383.761 278.378C383.699 275.93 382.998 273.541 381.728 271.447C380.359 269.222 378.442 267.386 376.16 266.115C373.877 264.844 371.306 264.181 368.694 264.19ZM345.417 313.311H212.857L196.907 283.439H361.327L345.417 313.311Z" fill="white"/>
<path d="M543.795 161.89H503.013C497.426 161.901 492.016 163.853 487.71 167.413C483.403 170.973 480.468 175.919 479.407 181.404L471.118 161.292C465.157 146.811 459.192 132.346 453.224 117.898C450.466 111.116 445.744 105.312 439.664 101.232C433.584 97.1523 426.423 94.9821 419.101 95.0001H139.134C131.817 94.9807 124.662 97.1471 118.585 101.222C112.508 105.296 107.786 111.093 105.026 117.868C99.0445 132.333 93.0749 146.808 87.1169 161.292L78.8279 181.404C77.7666 175.919 74.8316 170.973 70.5253 167.413C66.2189 163.853 60.8091 161.901 55.2219 161.89H14.4547C10.6211 161.89 6.94446 163.413 4.23368 166.124C1.5229 168.835 0 172.512 0 176.345V205.554C0.00527788 210.657 2.03506 215.55 5.64392 219.159C9.25279 222.768 14.146 224.798 19.2497 224.803H45.8563C42.2773 231.55 40.3568 239.053 40.2538 246.69V377.514C40.2622 382.711 41.8262 387.787 44.7444 392.087C47.6625 396.388 51.8012 399.716 56.6275 401.644V437.531C56.6354 444.424 59.3772 451.031 64.2513 455.905C69.1254 460.778 75.7336 463.518 82.626 463.525H115.373C122.265 463.517 128.873 460.776 133.747 455.903C138.62 451.03 141.363 444.423 141.372 437.531V403.513H164.798C167.067 403.513 169.263 402.711 170.999 401.25L200.731 376.224H357.479L387.211 401.25C388.947 402.711 391.143 403.513 393.412 403.513H416.838V437.551C416.848 444.443 419.59 451.05 424.464 455.923C429.337 460.796 435.945 463.537 442.837 463.545H475.584C482.476 463.538 489.085 460.798 493.959 455.925C498.833 451.051 501.575 444.444 501.583 437.551V401.664C506.409 399.736 510.548 396.408 513.466 392.107C516.384 387.807 517.948 382.731 517.956 377.534V246.445C517.846 238.903 515.938 231.495 512.389 224.838H538.98C541.512 224.838 544.019 224.339 546.358 223.37C548.697 222.401 550.822 220.98 552.611 219.189C554.401 217.398 555.82 215.272 556.787 212.932C557.755 210.593 558.252 208.085 558.25 205.554V176.33C558.246 172.499 556.721 168.826 554.011 166.119C551.301 163.411 547.626 161.89 543.795 161.89ZM19.2497 205.554V181.13H55.2219C56.4985 181.131 57.7224 181.639 58.6251 182.542C59.5278 183.445 60.0355 184.668 60.0368 185.945V205.554H19.2497ZM122.142 437.551C122.139 439.34 121.427 441.054 120.162 442.319C118.897 443.583 117.182 444.294 115.393 444.295H82.6459C80.8573 444.294 79.1422 443.583 77.877 442.319C76.6118 441.054 75.8997 439.34 75.8971 437.551V403.513H122.142V437.551ZM482.353 437.551C482.35 439.34 481.638 441.054 480.373 442.319C479.108 443.583 477.393 444.294 475.604 444.295H442.857C441.072 444.287 439.364 443.574 438.104 442.31C436.844 441.046 436.135 439.336 436.133 437.551V403.513H482.378L482.353 437.551ZM498.727 377.514C498.724 379.304 498.012 381.019 496.747 382.284C495.482 383.549 493.767 384.261 491.978 384.263H396.921L367.189 359.232C365.453 357.774 363.26 356.975 360.993 356.974H197.257C194.99 356.975 192.797 357.774 191.061 359.232L161.329 384.263H66.2922C64.5031 384.261 62.788 383.549 61.523 382.284C60.2579 381.019 59.546 379.304 59.5433 377.514V246.53C59.87 242.05 61.035 237.671 62.9776 233.621C68.7644 221.723 78.5388 219.59 87.0272 212.048C93.0084 206.725 94.8028 193.232 104.936 168.624C110.897 154.15 116.867 139.672 122.845 125.19C124.161 121.945 126.416 119.167 129.322 117.213C132.228 115.259 135.652 114.219 139.154 114.225H419.116C422.62 114.217 426.045 115.257 428.953 117.211C431.861 119.165 434.118 121.944 435.435 125.19C441.416 139.645 447.383 154.113 453.334 168.594C463.397 193.018 465.012 206.476 471.243 212.018C479.751 219.605 489.51 221.728 495.287 233.626C497.248 237.714 498.415 242.137 498.727 246.66V377.514ZM539 205.554H498.213V185.955C498.215 184.678 498.722 183.454 499.625 182.552C500.528 181.649 501.752 181.141 503.028 181.14H539V205.554Z" fill="white"/>
<path d="M447.028 224.694C447.027 222.141 446.012 219.694 444.208 217.889C442.403 216.085 439.955 215.07 437.403 215.069H120.846C118.293 215.069 115.845 216.083 114.04 217.888C112.235 219.693 111.221 222.141 111.221 224.694C111.221 227.246 112.235 229.694 114.04 231.499C115.845 233.304 118.293 234.318 120.846 234.318H437.403C439.956 234.318 442.404 233.304 444.209 231.499C446.014 229.694 447.028 227.246 447.028 224.694Z" fill="white"/>
</g>
<defs>
<clipPath id="clip0_148_1795">
<rect width="558" height="558" fill="white"/>
</clipPath>
</defs>
</svg>
